<mxfile host="65bd71144e">
    <diagram id="ME2-4YQW0P97IoCFztwL" name="Page-1">
        <mxGraphModel dx="646" dy="679" grid="1" gridSize="10" guides="1" tooltips="1" connect="1" arrows="1" fold="1" page="1" pageScale="1" pageWidth="827" pageHeight="1169" math="0" shadow="0">
            <root>
                <mxCell id="0"/>
                <mxCell id="1" parent="0"/>
                <mxCell id="4" value="Instancia del backend &amp;lt;Docker&amp;gt;" style="swimlane;whiteSpace=wrap;html=1;" vertex="1" parent="1">
                    <mxGeometry x="40" y="40" width="400" height="170" as="geometry">
                        <mxRectangle x="40" y="40" width="220" height="30" as="alternateBounds"/>
                    </mxGeometry>
                </mxCell>
                <mxCell id="8" value="" style="shape=image;verticalLabelPosition=bottom;labelBackgroundColor=default;verticalAlign=top;aspect=fixed;imageAspect=0;image=data:image/png,iVBORw0KGgoAAAANSUhEUgAAAloAAAGwCAYAAABxbMuTAAAABHNCSVQICAgIfAhkiAAAIABJREFUeF7svYmTJFeV5nuuR+RWudS+76VSrVqpBgQIWkCzdQMNEiXQApKAQT02Mz325j3rsRl79kx/Q489eyaGRjtCFEhqoW6xCFSAxKJdql1Vpdr3LTMr94jw+77jUVmVVZkRfj229PD4rsmVWR7Xr9/7c8/wz8899xwjLCRAAiTgSGDD9x6U/t7mZZJJrTbGLsZhM61IK34axyaSUM1isENizGkM+6ARf9ecU0sObt78ySSMjWMgARKoMIFG+nKsMDo2RwKNQ2Ddxp+IzQ5dIyn7CWvtB8Uza8RKILSwqdBqpAJtKUPWymnjyUH83AHR+Zrv298vOLNsJwVXI90KHCsJhBOg0ApnxBok0NAEVm784fQmSX3W9+WrxsjNgLEAG787Lt0VPn49DMH1O0+8pz1v+IVtm7473NA3DQdPAiRwkUCKLEiABEigEIF1Gx9ZYmzqbnz+nyGy/ho/p2GjyLocmPKYCj7rxNhVYtPezOu/eOTM1ufOF+LK/SRAAo1DgEKrca41R0oCkQisvPXxRcb4EFnmfhy4BpsXqYHGq6zfp2rtW+nZ1OC86zfuO7n1Z/2Nh4EjJgESGEuAQov3AwmQwDgCKzY+KGnPu8uI+Y/4cOW4CtxRmIAJ/NYW+zn/5IK/uvWdE+8+U7guPyEBEkg8Ab6hJv4Sc4AkEJWAlRaZ8hk4u9+BIymyouLL11+LCdY7h4as+rSxkAAJNDABCq0GvvgcOglMRGDdxofnWd//PKxZH8Dn9MeaCFL4Pv1u/XDKms+t3/iDlvDqrEECJJBUAhRaSb2yHBcJlEgga70bIa8+hsPbS2yCh+UJTLXGfiwnzTcRCAmQQOMSoNBq3GvPkZPAOAIaLwuOm9fhg7XjPuSO6ASsXAvr4PUCriwkQAKNSYBCqzGvO0dNAhMSyMrgQkTjvAofdk1YgTujEphpjHfVeunl9GFUcqxPAgkhkE7IODgMEiCBChDwxM6DW9b8kppqahY7BbONzdAUXoLe4RCpVYaRcWcQkRoymahoEF7LzhvxmlfgwB1RD2Z9EiCB+idAoVX/15AjIIGKEbA502VSsGZpkhnX4qXEdk0VO3Ou2E4YwpIqtM73iDl9Qkxfr4iKL8dixXQ1ZWkhdMTFaiSQOAIUWom7pBwQCZROwBjTLGKxORZYruy0GeIvXh78lFRCv1I6oD2nzhCvvUPk0H4xPWeByVWN2mbkh+TUoeMtxWokkDQCCf1WTNpl4nhIoDYErJdDfmTPPaQDpgrt/EVip89K1nThRLjTafFnzhEP04dmZEhkwDnoe8p6NkFzqRPB4T4SIIFCBPjHX4gM95MACRQnoN5HXTNgyUIg9CT5ZBUbtU6TTp+JcU8vVoufkQAJkMBFAhRavBlIgARKI6CiY8oUTDQ21qyYbW0T2zalccRlaXcHjyIBErhAgEKLtwIJkEBpBDCVJukmLFJ0n2ks7UQxO8rga7MJ404xVWzMrgy7QwKxJEChFcvLwk6RQB0Q0OnCRpkyvPJyqNjSjYUESIAEQgjwmyIEED8mARIgARIgARIggVIJUGiVSo7HkQAJkAAJkAAJkEAIAQqtEED8mARIgARIgARIgARKJcA4WqWS43EkQALRCWRGxARpbDTYJ8JDIG1P4FgepcSljSh9Zl0SIIGGJUCh1bCXngMngdoS0NQ15tRxMUGgzwtCq6NT7Ox5CBOBiOsOJS5tOHSVVUiABEggIEChxRuBBEigJgRMb7d4Rw8GCZpHi+ltF78FcalchVaV2hD0w6If4tiPmgDjSUiABBJBgD5aibiMHAQJ1AGBXE5Et7Ell8U+bK6lSm0Y9EE3FhIgARKoNAEKrUoTZXskQAIkQAIkQAIkcIEAhRZvBRIgARIgARIgARKoEgEKrSqBZbMkQAIkQAIkQAIkQKHFe4AESIAESIAESIAEqkSAQqtKYNksCZAACZAACZAACVBo8R4gARIgARIgARIggSoRoNCqElg2SwIkQAIkQAIkQAIUWrwHSIAESIAESIAESKBKBCi0qgSWzZIACZAACZAACZAAhRbvARIgARIgARIgARKoEgEKrSqBZbMkQAIkQAIkQAIkQKHFe4AESIAESIAESIAEqkSAQqtKYNksCZAACZAACZAACVBo8R4gARIgARIgARIggSoRoNCqElg2SwIkQAIkQAIkQAIUWrwHSIAESIAESIAESKBKBCi0qgSWzZIACZAACZAACZAAhRbvARIgARIgARIgARKoEgEKrSqBZbMkQAIkQAIkQAIkQKHFe4AESIAESIAESIAEqkSAQqtKYNksCZAACZAACZAACVBo8R4gARIgARIgARIggSoRoNCqElg2SwIkQAIkQAIkQAIUWrwHSIAESIAESIAESKBKBCi0qgSWzZIACZAACZAACZAAhRbvARIgARIgARIgARKoEgEKrSqBZbMkQAIkQAIkQAIkQKHFe4AESIAESIAESIAEqkSAQqtKYNksCZAACZAACZAACVBo8R4gARKoDQHPiOg2tnj4CtLNtcSlDdf+sh4JkEDDE0g3PAECIAESqAkB2zFV7Ox5IgP9F85nxLZ3iO3odD5/XNpw7jArkgAJNDwBCq2GvwUIgARqQ8B2ThW/qUlkZPjCCWHdamkR29Lm3IG4tOHcYVYkARJoeAIUWg1/CxAACdSIAKYI7ZQOEd1KLXFpo9T+8zgSIIGGIxDBOaLh2HDAJEACJEACJEACJFAWAQqtsvDxYBIgARIgARIgARIoTIBCqzAbfkICJEACJEACJEACZRGg0CoLHw8mgQYm4PsiujVisVZENxYSIAESCCFAoRUCiB+TAAkUIJDLimSxNVpRgZXNiOj4WUiABEgghACFVgggfkwCJFCAQC4nMjQwJlxDgXoJ222Gh8QMYtyNas1L2PXkcEig2gQotKpNmO2TQFIJwLJjes5hO9s402gQV6b7jJje7qReVY6LBEigwgQotCoMlM2RQCMRMP3nxTt2GOIDYivpFh5Y8My502KOHxkT3b6RrjbHSgIkUAoBBiwthVodH3PLLS/JydmnpDnTT5Fdx9exWl0fFE+jiaac21cLz7kz4uGnnTVXNHK7NLegBfcmnM81WRV1ilSnC893izl1Im/Nsg26CGCyrgHPSwJ1TIBCq44vnlPXN/5EVsngwlRO1lpPrjpuDuFpaDuHUx5yobCQwJUE7FIRs+jKvUX/DafwwNID65ZtR97CpAqtgfMQXKPpg4oS4YckQAIkcJEAhVZSb4YHHpA1O5cuM7mhj0NYfdSmzLViZQV+n4UhN1mkmWMhgSsJmFJvDF2Jp1YfbCwkQAIkQAKXCFBoJfBu2PClB6V/a/MtVryN8FL+DCwUyyGyeK0TeK05JBIgARIggXgT4MM33tcncu9W3vW49A9lb8OB98No9VH8bI/cCA8gARIgARIgARKoCAEKrYpgjEcjgSVLRZYx/w09+hA2Xt94XBr2ggRIgARIoEEJcOVZUi48fLL6W5pvESP3Y0gUWUm5rhwHCZAACZBAXROg0Krry3ep8+r4Dl+sr2HT6UJashJyXTkMEiABEiCB+iZAoVXf1y/fe4RwsBnvZrEGju/0yUrCJeUYSIAESIAEkkGAQisB11HjZHlqyTKyPAHD4RBIgARIgARIIDEEKLQScCk1GKkYey2GwiCkCbieHAIJkAAJkEByCFBoJeBaWmOWI1zkigQMhUMgARIgARIggUQRoNN0vV9O9c+yA3ONGI34Hq2km8ROQZittilwn9dbISHh4jVKeTYTJP41g/0imquunOKlxCqjdqQBBDOEzyintXgdm82KDA6IGejLMyu1d8qkpfVSCh4vQe9wmixbo94jxZCMIAWP3l8sJEACJOBIgELLEVRcq20YOid9LS1IMCfNzn3UhyIElq9JgKfNTK7Q6u8LcvB5Z06KDA0647msIsSDP3OO2Bmzky20us+IOY2EySq4ogqJVBr30XQklZ53Kal0EoXWxaTS58oX76XdjTyKBEigDglQaNXhRRvb5XOtmrgwgsjSg1VkLVgqdu4CsZoAOIkFAkk0wXHnVPFhhfKOHw6sEpEK2PhzF4pduAQWrYQG2Nfrj/vBdnaJp8yOHMhbblxBqbVvxizxFyPLU9d0kSQJrLEMWtsCRmZKh3iH9gUCXtTSxUICJEACIQQSZN8PGWlCP+7KNHsenLSch4cpQn8mLFlJFlljYOiUn52/SOx0zKyaCLc7kNrpM/PHJlVkjb1pVFTOmQ+r1Nz89KjjDWUxnerPA9+pM5IrskZZqKiEBdjOWwgrcEKFt+N1ZzUSIAF3ArRoubNKRE21zNhpM5JryZrgKo2O2WB6zHkKEcIjeKjCgtEwJRgz7g1Ya0xvd/iwVYxOxZQhtkT5rRUbOSx2Kirt1GnRLH/F2uRniSGwDj6z2ezw9V46l24fGn7jjZ9rog6WRicQ4RW/0VElZPzq1K1bIxUVBGrZwvSPa9G6gQN8BGOha9uxrhfl/oBvlrSCUVKnnwtcKKtO/zrupE6TFhg3d4cT8GVgg/Fy/wXBo/+fgea2/7R642Orb7nlpfADWSPRBCi0En15JxicrprTrdFKCmPWzbWoiNCt0YquPg1WoDqUVMq9rkNzdVNFxbf+DTXi/VE3F6n2HV39jX9ZIL75mjHmKzj7l6yx/2Ss/Z8nZh36RvCZcLVq7a9KPM5IoRWP61C7XuhDotGsNErXw7h1cy2NyikI8eHISS06jWrVadj7w/UPqLHqLcKUock1fRZ/OX+PkWMpd/BHtATi6g4r9v822ab/a+3Gxz9zw1ce4jO3sW6NYLSOr64NSIZDJgESIAESIIFQAlamyKM3o9o3rJFVV1RXM/p6CK6lEFwfGmxKfWjNxod/MdRu39j/8H2hLbNCMghQXSfjOnIUJEACJEACk0BgzTceXuZZuR0zgx/B6TGfPmHpwOcfw1Tif1X/rdZ+873VGx9dLg88MGFl7kwWAQqtZF1PjoYESIAESKBGBFZ/+V/EZFJ/h9N9EVuXw2kR+Rh1rfffPev/05otKz63YuODDoexSj0T4NRhPV+9WvQ9kxEzjKjqo8EZNQp4KwJbRnEEjksb1eSVy4ITAqJqShstGgZAA4A2uQfsl7i0US1OiDgfMNI0NqNFV/DpqkVXv8G4tFEtRmy3fgjAGuVta/6MFV+tWcsidBwGDrsCfw33iGevbfFb1q297aHnd1x7YDctXBEo1lFVCq06ulg172pmRLxTx8VoCptRoYUVaXb2/CB9j5MjdFzaqCY8sDFnkern5LFL+QJVaCFtjz97nlv4g2q3gWCkkURfFXiZvh4xx4/m0/xcaN92wAigwXP1p0OpSBvn0Y8T5fXDoausknACa3YsX+X7ua9jleFfYaiOK0gug4IYMvIxfHssQRur12xb8WT7lx78HWNvJe/GodBK3jWt2IjU+qAiy0BsXVawtN04Bj2NSxsVgzJRQ0hgrSlZzMmjl+cJVPGEFEBOaY5q0UYU69pE4yxzn+ntEe/EkcssWgb5KH0EhXUWWpVoA0Kr3H6UiYKH1zmBlXc9LmYo+3ewxH4OQykrMCGMuYvRxl1i/RUDLS1L12186FfbN913xZdunQNr8O7TR6vBb4Ciw1cr1kT53Artn6ixQnUL7a9WGxO1W6F9RgVVLjc+GbOPfbo5lLi04dDV0qtMdM0jMApOHJc2SqfAI+uegJWmwdzfWC+Il7WoQsNBCgrzKUwn/pO13n/QQKecRqwQ2Rg0Q6EVg4vALpAACZAACdQHgbW3/mip9exXMO23ocI91hWL6xHW9B+M9f+PNVuv+qim9GGpfwIUWvV/DTkCEiABEiCBGhBQ4eN7mU/B+vRZnK5amcURRV7ugPn2v/t28IsUWzW4sFU+BYVWlQGzeRIgARIggWQQ0ITRRszfYjQrqjwiXR3yeQQ5/aecP3j3mq8+UpYfWJX7yuZDCFBohQDixyRAAiRAAiQQxMxK+7Bk2Y+DRqHApJeDakJgeF2E4hq+5PKjmyHqPor1jP8npiq/u/LWxyvlD8aLWWMCFFo1Bs7TkQAJkAAJ1B+BVHPzx+GXhVWGBrFtHIqGwkEYHH/pVWKnz8onInc47IoqKcSNuAHhH/5zysveu+YbDy2L3gSPmGwCFFqTfQV4fhIgARIggVgTuPbOJ5p88T+NTjo7wNvOaeLPXyL+wmXiL78avyOKQxvcukqzbl0N69Z3Jev9BwQ3vTrWsNi5cQQotMYh4Q4SIAESIAESuEQgO5T9a1iWPo1tmhOXVsQiRbBiizh6kkqJnTpD7OLl4i9Zgd+nI9iz28zjFedain/fY8X7h6u//uhaTGE6dYWVJp8AhdbkXwP2gARIgARIIKYEVm784XRr5NOQNdc7dVGzQkybGWSGUJE1WizElz9vofjLrg5EmDRHSM916cQLxdi7Ujn7H9fd9sh6ii2nKzLplSi0Jv0SsAMkQAIkQAJxJeDZ1E1wSP8k+tfp1Mcp7fDNmiO2bYKFgporFv5a6reVn0qcoE7oSQIfsa8jTPI/UGyFwopFBQqtWFwGdoIESIAESCBuBNZv/EGLJ0ZXGcJ65FBgwfIhpHSqsKAvFny0NOWUVd+tRcvz04vR/bbmQPzd7hvve6tue3iNQ89YZRIJUGhNInyemgRIgARIIL4ErE3fbMW/GT1EipzwYts7gylD29IaWjk/lbhI7BKsSsRUo2DKMWKZg6nD2z3jfWf9xsdWRjyW1WtIIPKVrWHfeCoSIAESIAESmBQCKzY+KJieuxmr/a5z6oCGc1BrVpebv3zQJuJs+RoCQp3kA5+utNOpxlSCs5d8I+fnvrlu4yNLoh7M+rUhQKFVG848CwmQAAmQQB0RSEsrrFmi04ZYOhhegunAGYiXpQFKoxRdlah+W2rZguhS8RWxLBLj3Y309V+/5o4fucX4ingCVi+PAIVWefx4NAmQAAmQQMIIbPjSg5Ky8jGEc7jRaWhqzdKVhhrOoZSiKxUR9iGwbM2eH12siV1hrL03O5L9slriWOJFgEIrXteDvSEBEiABEphkAoOtzTf4xt6EbsCrPbwEvlnTUDUd2Rp1qXF1kodQ8xctEzsHYqu5JfzEl9Uwa42x3232W25bhOTXLPEhQKEVn2vBnpAACZAACUwygVtueUl9sz4kvnGLAq9TfxBZJVuzrhivTkGWKLYMpjpvxGrH77XnBj8pFFuTfCddOj2FVmwuBTtCAiRAAiQw2QROzDi61FrzQRiYFrj0xU7pyIdziOqbVaRxtZD5C5fmLVvR2lWT2scwE/nt1f6gmxN/kX7wo8oQoNCqDEe2QgIkQAIkkAACvpe9Ab5Zas0Kz5MTRIGHNSvKSkNHRoHYWgCxpVHkoznIt8Oy9TnE2brzmm/8EAkWWSabAIXWZF8Bnp8ESIAESCAWBFbe9Tgy3NgPoDNuiZtbEdldRVZkfyq34dqOC5atmVhMCIf7CGU2xOJtuWzqSzomlsklQKE1ufx5dhIgARIggZgQSI9kN8DHSYWWW4DSrqnwzYoQN6uEcdpO+GzpNCJCQERMRn0VLFt3NQ35f6t+ZyyTR4BCa/LY88wkQAIkQAJxIfDAA5ht825Ad9x8m2DFUpFl29qqPAKsRoTVzEfKHjtteuHUPuN7AaOWfMCKvev47P3Xjv+Ye2pFgEKrVqR5HhIgARIggdgSuGbXqrnW2uvRQTcneA1QqtOGpgaPUQ39AJFl1WcrWqyuVqjHvxHr3XrVVx9F6HmWySBQgztkMobFc5IACZAACZCAO4FsZngtaqs1K9wZSkM6QPDYdqcZRvdOFKvpIWE1Is/b+fBvn9JerOaVnyEnotzanLafWseQD1eyqcm/KbRqgpknIQESIAESiC0BFSDGuwb9U7EVWiyc4APLUjkBSkPPMkEFnE/T9PhzYHSL5oC/zorZKP6gW6T7CU7NXaUToNAqnR2PJAESIAESSACBtbnh+VhtuB5Dgce5Q4GDuug2CcW2tIqdu0DsTE1CHR6B4kIXkSPIfsI38uWVG38IRy+WWhKg0KolbZ6LBEiABEggdgR88ddYY9ahY+HPRMS0ChJIt1TbCb4wJg2S6s9bBB+xSM7xsxG74stNftNfM2p8YbbV+CT8pqrGWdkmCZAACZAACcSBAFYbIoP0GrGyyqU7tq0dvlmdkGST+PhU53iILDtvoQj641ysWW+N/+U13qDTWJ3bZcWiBCbxTinaL35IAiRAAiRAAlUnsH7bIsRpCESW26o8FVm6TXZRh/wZs8UPIsc3u/ZGM1V/GskcP7vhSw+6HsN6ZRKg0CoTIA8nARIgARKoXwKZXOo6xM/SSPDhDk86bQiRpX5ScSiBv9ac+UEaIARade3SYgQy/cJgc9uHXQ9gvfIIUGiVxy/ZR6tpfCLzeKH9E9EoVLfQ/mq1MVG7FdpnNd+ZOqVe+UWH5diukZzj0kaFkEzczETXXLm5O/Tm78cr78nJaGPiEXJvHRLwUqmr4SjulHInP22IkA5X/q1P4riDnIgqtuC35ViMsfLhnPE/c8NXHqIGcIRWTrXweCHltM5j65pA8LY0U0Ow4E3Jz+XHosuLkQrCOi5rLtiGxoOpYRtVvRCjTLIZkQw2LSq+YNa3bciF5lLi0oZLX0usY5GuxIdPienvy7egfibI5aaOxa4lLm249pf14k1g5Rf+GRrLX2GMWeTUU41fFS2GlVOzZVXS7xr9Tu47L2Z4SES/h8LLTFT57Eja/Ak/fxNenTXKIUChVQ69pB+LeX99UzK6suWi0MIqYTWbX2lVKMQiLm0U6l8l9l8QVb76bYx+yek+XZWEqQanEpc2nDpbWiXbgbhDTXCHGRnON6BWAU1jEiEeUFzaKI0Aj4obgeaOqUusleWYSgt/I1KfqLaOSV1tWJCf/h0hvpbt6xFz9rRAPRasOvqBEXODb+VvVt3xo1ffe/LO86EHsELJBCi0SkbXIAeqpaXDUSwUQhKXNgr1rxL79Uu43DfduLRRCR4TtaEWrFaIT91KLXFpo9T+87hYEbA5u8ymzHI4w4eWwDo/BXrM9SUztMXKVghCTsyaB4txv8jQgEvjnQhmcYvJDv8OlX/hcgDrlEaA87OlceNRJEACJEAC9U7AE2RqNkudhqFuAK6uAE4NVrhSsAoRU4jTMSvoKgatXGN8769h1YrBMsoK84hRcxRaMboY7AoJkAAJkEBtCGz43oPiGw+JA+18lzMGaXewxbkEfdSI8e6xtTpg1fp4Kpu7Kc7jqve+UWjV+xVk/0mABEiABCITGD7fOdfzBRE/JXwuOw0vG7VmucerityfihygU+tTZwTJp51X88KqhQUBH1151+MV6QIbGU+AQms8k2TvUSdJB0fJxEHwfTj0Y3MtjcopyrijMnVlXw/1LO4l3VjqlkBuOLfQGqtCK7TYZvhn6eKWGIV1KNTpwJdMVyFOcZ4NxCoV+Wh6JPeRQm1yf3kEKLTK41d/R2dGEIIAW6MVXQ3otuw5TyZq/aTwzGbBCZtLCeqCa6MJdxVYGsYjdyHkiQsr1okdgUBkGesW1qEVK611q5MSpOdRXy33GHU3Gt/epOEuWCpPgEKr8kzj3eIgVqMMYlVKIxU8GM1Av5ihQedRa109JpIVzLn1GFfUe8P1/kDIj4DraLiGGA+rkl0L7g1lFMVCWskOsK3KEPB8RPk0yF/jUNSaNYlJpB16eHmV5uZAaAU5Gd3KLCTV/mCqY/pqt+qsFYUAhVYUWgmoqw8Ic+5MJNFR78M2GsjvHGLLRBEEsPrpMaavt96H79z/QEAgBk8gMF0KLFmm51yebaOIDlixgr+fnm4XQqwTUwK33PKSGmI1GrMG7ixe1O9Jp+MixHsr3mBtPrWdU+GvhRiIbisQMUjZgP9tgIm6Nh1soLNQaDXQxQ6GigeFd+akmGOH8FbuFGulfgmpEIBQ8o4eFNN9NtoU1wURERx7vifasXVIzCDujjl+GPfGCdwjjlOHOk61aOlxZ09FO64OGek0afC3c/yIa5yiehxlQ/T51Oy9LchvqEmkNcly8aIZLFRkuQmW4m3V8lPtMxzjnVcgGoS68O2GVXc86WwGq+Vw6vlcyQlYuvEnsrJ5RLyR3EIv5ZcZYbN+LulgxuvCC5d7DhMdGgSWB6Flka4hMC/rkmVdVVMHjp5OV0Z9huBDYwb6YKE5BZF1pjS/NLVqnTouHtoK4tO0I5eYrjpKEicVVbgfVIh6ZyCW3AIdXroMOi2rIlYFPCyHthO3YpTMAU4XdJIrqS/WyJCYXkTdVqGlVs5ofmmtRlLz1nzjoWWTPJKanh45JHI2559snZ4bfuP799f03GEny0rLMiO+Cq3QopaserNmjQ7Kdk0LrFr6XehwzzZbI9fjheJ6HP9yKBhWcCZQ10JrEcTVVBlZ50vuWiuDy2XYqCm4QzKmCQ9D51TmzrRiWBGjxJPf4g8j4nB1mgiWCBUhiRVa6kejub+iPRQvv8oqtk4fh1WrO5+3MJFCC/eC+q+NplmKep9j2jCYQoR1K8jtmFShNQALcJQFFZc4LoXj9b2S9T4fFW09189YmzUm3d9/Ts6s2fjoQYRS2DHkDf7l/U0xEF253CxJGSQjdSAMfyfRrQ5LMOUJsWX0JWo43EcVT5H1npXrZONPXpZNt9fhiOPZ5boUWusgsLLZ4etT/sCnfGM+gj+Wa6AzluCJioyfKI2hscbcURFF1uiR6lejUz+uPjnxvIer3ysVaipMIzjTV79TMTyDitJGXNEafinm4TvKzek6vK26qZF/19VwMqLJLY/DWrK92W95DaLrt3Y487tdz31n0sZijIc5NR+bw3envlzFPX5WIZLqX6a+WrA0GwehhWbm4Ipdtzp1fsEukaOFmuX+aATqTmit3/iDlqwMfgmrVm/HDfEJDHeuy99KNCysTQIkQAIkUCEC6ge1FN/XS/ES/DEor497TU0HjwE+AAAgAElEQVQ/W3vrE8/vePquAxU6R6RmjCfTEBZ+KsRfeKlnoYXRaQ5WFVu6iMPB/xIGLbsulU2txaEUWuF3h1ONunKGv+aOH83N+s33QaP/D/zRfhVvI3OdRslKJEACJEACcSCAzMfySQic/2a97PdWb3xsUsIJQEyoyJrmAsTCGd6qD2u9lhS85TThtGOeRmjPVVhGtFoeeKBeRxy7fteN0FJLVmYk+1Vj/P+C2CcfAMk6vvNjdx+wQyRAAiRQQwJ2BU52H6Lr33f1rT/U32tXICCstSqywlfXacBPXXXo4Wc9lw4MVTenYmbBkLFm5bYliA3BUgkCdSG01Ccr56e/aIz9LqxY6yoxcLZBAiRAAiQwqQTmw3pyRyqV+sq1dz5Rs5Xiy/YvxaANlhDrQqKQAmtQsCK7zoumDwqCl6poDC8puOOsasrBqsVSEQJ1IbR86ceqQrMRI76uIqNmIyRAAiRAAnEgsARTibcPj2T/Rr3ma1Ha+3OIoWXCE0lrZ9Si5Z7GphbdL+0ciAGmQst1+hCX4irfeCtLOxmPupJA7IXWsnsfwjX3PoXFE+r47iTHrxwk/00CJEACJBBbAtenrHxu7a2Pz69FDzPShKkxizgk4cVCZOmWiDIFRjzd3MpCz8hy5j50gxVWK/ZCq2kwtdZYexMG0nDLo8MuHj8nARIggQQQaIVj+k1+KquBMqteUr4/xdmi5WHaULcEFIuk2LoC0dHfrA32xeVNbTN1npWlTAKxF1qprL8OS4KvwThdFuKWiYOHkwAJkAAJ1JoAHuqrjTXXbPjeg1U/tfWkFU+TVqcTadqdeku9U2hgcOi3bQj1oAGFXYqRZUipQaHlwiqkTryFFlaH4A9iOeYOebFDLiQ/JgESIIF6JYC36Gnww13efarNKS1OOeP0fC+NWRI3M1WShJZC0xAPjmEe8NxdZFPeonJY89g8AbebbZJoXbd3hSCNwxyYlV3XpV7qqaYewHLWi+llkmIQ09xyGn27H3n8sDkEoCt89TSHlzLCW47o6pqkRNTXhNDKSHMdKqPS0qZc4qZxdDTPIfwbbAJT8Ghy8SB/34gG8C6x6AMJOTODeD0tmoA3IX4tigOpiQxSOQWMNBF7OSmdlBMedAGnIFFxAjmdByfNmRmRE8TWnBbP1zRqyBdTvZK1ftoz+oXn4Hyv34lJ+V4EUtuK1YfYHKeH5huILaTjEabjKe9+jLXQwjNydjol7Y43RZ4EQv7aLqQcmD1f7LTpyRZaSHDrnT4ZPRGwpmXQL/rZyAyiSaWTLLTOngaj40GqoZIK2Piz5oqdiRftJAst5LzUBNrmfE/kB6Q0QYhOR9LtWbifNN1HUoVWb3eekSYpzyIZd9QCkR78venfnXJKqtAqmZPpsNaP/lId8TroOkLknkQUT4cDEya0gpyNEFrBSkpNll68tAPRwvXS27INmRKLV+WnxQjEWmi1pHMp30Z75Qu+wBYvF38mXoz0pSVxBUJSxwXrgWC5ro8YL96xw/nkyY5jDaxYi5Yhdz3WF7jFVXFsOT7VbApfJvqFEjBqEu/oweiCFMf78xaKXYAV6K5+DfFB4NYTXVWllk1Y7Dwd46F9ebHldnTwhW1nzBF/yYpAvCfp7f8iAl0ar1ZNCG2DzcPLnMFLTqQk3BqdG2LdX9wInNoRPKEdnOByHnBCTlWnYqECTHhsK6e2KlQpaUIL927wvagiX62zxYu+ks8b8ZpXoNqO4lX5aTECyVIi+sCYMw+pQpMqsi6/lGoClrmLxA4i4fFJpKVyMdWr9QEWGrXSJFVkjaUUCKS5C8RiKsMchyB1/dJXy6haaVRoJVVkjQUFIeHPnCueTiNq8mzH5NAqrgIxiqS1iV+voo+dLqTIw3g9vZ/U+udY9OXGn4e/1YbghL+dqZhNGFkoOi0tOuXqVlLWg6s6S1UJ2Ga41WALrk1IgRPGnJQvOp0bIrSsrPzC/xJv2qxOOzw0O5Uy7b54bamcxYpSrw0WxFaEi8CJbYtvTdp4Nm19TyfSUz5+92x+fhb1MLNrsghOjj0mi8wBGcyvj/h4ymGxxJCx/mAOv9umVJ/xbW9a2o5sX79d4p4uKFFCK7DU4A88CZF8Q+7/ix8HCUMxZnPutJOPjb6V26lIWl+v2ehdwYypp0H6dMwBI4cvl+BQTH8FDwtXx9ES+hW7Q1SEg5PFdKvpORvevUB4gBHER+JF1iiNMWMOfLZcXm70GL2XGo3ThTEHnOq16PV1ucb1ND6d2tfNqfhzrPVUaEFI/bO0Tps1d9jPzvAy/gxJyUxPvKniS5c1j+BNa1qnjGQ6EQ5D37rg8mPbbAqBYa3VZY5twIifHiyWFl80EFsGEkuMBz+wNOKa4XfstQKRBadIgdKyFvPzBkLL6rQlnCQhsDwzBC0+YHK2H3bSXl8GetZuXd7jb3ykF3bmszlrT+Nl+jTOcsrLte/fvknjnEdyPnKiErVSooRWMJ2mWyMV/RJXB0dYXYyLM7NawXRrsJJnBCdQR6EVpKwI7qXJ/yOt6aVqw72hm4uxJpjCRt0GEu3BtRj1c9H38XA/l7zlWO+lhE7TF7o/gylp3B9GOblakgs1VsH9vkll9YGOB3h4qwkUWsF1web2zWbgUGi/tPa2hxfhQs7IjWQhruwMkzIzwW8G8EyDAFKfAfjWYeoXs8UBV/w3tv1Lv0NaXfzH5T249K/xPbu4J7hkkGX4f34fnn/wmMT/+vDzLDzPTsPb6JRk7WlrB0+u2fjocWMfPYpuHcn4mSNdmcz7b/z8/vDrXuEaiRJaiYriG+VC6wPP1R8tSt0ofYh7Xc1XFiVnWVJSb0S9LlHuj6hMo/YlrvX1SaGc1H3URWg16r00llOMhFbKy2Vhpck6yCw801U0ONWM6906vl8q+Jt0xauTAJ6Gy/j3kEdfBgg4KUoqEDgBEv0tFmzS6AnM6hYhQgT+ZPk+IVqBKrJe/O8Yph6PpLz0kYFm79Darz2yHx/tyxnv/eH23L79D983nlGF9yRKaOUv/Hg1XGFm8WtOh+w6bP3yu/RKEb+xVKtHUccdtX61+h3ndhuZUZSxR6kb5+udkL7ZbCprUxZTUg5FBWKMRKJDj8Or6P0IN4HgZcFHGJziRX3mdCqwHos+Fafqhl/WBJYwY3TAJ3FV98Gqua+tz9uzduMj7xnxdw3JyNvvb6qOtSthQqse7wX2mQRIgARIoFYEsiY74NnUoNP7proL6Za0okJLN8dFLwkavq5qXYSpRARitR+H7WvA+HIg55ldzX7rztVfe3gr1NiWlNf27vZNt1ds2BRaFUPJhkiABEiABOJOIC1Ng7BtYGlt+LSXwdSwbuE14z7qy/sXhCvB5joRUl+ji9TbKZhiRD5lsxYwhiHADuLnVt8Ovrt648NvNqX8t7bmOg6VG7CVQivSNWFlEiABEiCBeibQ4mdPDKbNQOC3HVZy8JnXLWlF/bQabHGGwyXUpZhXX9g+g7vjvWw29cYaO/SabHzoz0PtsqVUf66GFlpBvCBNFTE6B6+Rm3U5f4QbMC5tONxEJVXR1CNBSIRR87m+CSmjCCvN4tJGSQBcD8pksKIR0edH0/2oo7SGlYgSgysubbiOOWo9TWWj95LeU0HBV1krQuvoijx1zHUpcWnDpa+l1rlyjDrHpatgdTWoBpx0KXFpw6WvNa4z0tTue/5Af+AsHebdqhkASskCUOMxRT5doy7QcAeFOEjmA6h+PVZVfg4Oba+1nfdfWXXrQy+3tqdee/exb7m3hJoNK7RUIJkTRxB5A2m1xgitIKjgbATzdPhCi0sbka54lMoIF6GBUI2m+RkrtBAA1EeKoyCNQ1gp1sYctOES+L8SbYT1s5zPcf94Z08iIOqRy4SW1ewEGsxTozCHlbi0EdbPMj7XAJ/esUNBns58wZNOA3jO10CeGosrvMSljfCell7D9F7ghFydQYHQsh3w6Q04qW9veIlLG+E9rX0Nja209muPaRA0vGlL8XhAas3Slyddeejk1FX78ZR0Rv3edfnuLanxRB2kDzmkBrGL4Uj/cWSFeG1kUF5ad9sjvx3o9N9ytXA1rNBSS5aKLHMOecvGFKNWiBmzIEEd3hzj0kaV7usgkS74BIE+xxaN2aVR0x2EVmgbLeFirRJtVAlR0KzBF7HpPptPNzL2RAiFrPk2g3QXISUubYR0s6yPNXClOX0CgXUvrXQyw4Pia9osV6EVkzbKAhFysIpJzTs5Nhm6vtT5EKXOQismbYQMdZI+xt+lebgb/9NoccWFlgosFVoquCLMdEzSwNxPGweL1sXVuFdO4YJ5/MJqaCfx5mz/Dttf5Ty5ubXP+8XKrz/84p61+/eGRaZvXKFVYNmuwX7dnJwf49KG+59XtJqFbvZC+ydqvVDdQvur1cZE7VZqX4H7ILCU6uZSCtUttH+iNgvVLbR/ojaquc/HX5VuY0vUvsWljapymmClW2ROMWmjmpzKaNv60o1X6W5MH8KsXrwYndLHps7jSSmaQli3KyVOSeNTwaTWMY2rpzk9g5/492isOf1d84Wqe4DOFAU/cUyY0NJ7HhdKv0P1mRzErNOZlcDKqD/z1yUvhGu5MtTMRWiIL0Mk3JDOmQ1rt6x4Nn3nE7/e8qO7CoYMaVyhVdIdxYNIgARIgATqnYDnpc5Z8c86vVFrCATdkpSOC9Z2ZP12v4wqilQwqR+z+ufqpv66GiJi1LE+qtAKO3vwMu4gtCCCJTsCMazXCb+rq4lmSdHNJaBwWD8m/hwZf2QZProbyYOuzYxk1q297aF/3XHtgd0TWbcotCaGyL0kQAIkQAIJJWAkewomltNOMxe6eOPiAo6EALloTZpgPGqdUkGl+RDV7UFT9oyKK6SfGi+0ICMcfJonOFPxXUEf875kha7Txf0ahgNi6zKhdeG6BYux1CdbF7+N+tsVP3OUT7FKRW5CRxGXy1uxZtvyx7yNP/nTlTG4KLSiIGVdEiABEiCBuieQS/knTSZ1AivKQsei1hHdwmuGNhWjCmrNUqsWpvECUYV8z9iCn4G40t/HCi1YruLsPA9rm01hVS5W52oJrtUF/7qLQktXPGNleLDyeQA/VYBVLhjtImTEvgsnXujboR+svOvxn+954u6L15tCK0a3PrtCAiRAAiRQfQK5nv6jTe3TTuKBrEGyij8HdToqeChjGss1DEn1h1DeGWAtstNmiK9WIyT+vkxo6VSg7q/3omMYnerswEKSUeE1KrSwqtf0nw82tXg5+9MW5qKpij4P8T4rPeTPW3vrY8/vePqbx7R68RuscIP8hARIgARIgATqksCeF/5R1t726HEYdboxACwzL1LUT0iFlvr8QJQkoqjQ0pXj2BIjHsMuzFjh1TVNLJzq1boVCK0+CC5dqYtVzYE/noqy0oqm+PkIxNYM68n81Rsfe2rX+r27KLRKg8mjSIAESIAE6pqAQSBFewTTPcWFFsZoNJQPNpsUoaXXLSnWuVLvQV0hqZYubDITKxgR3y8QW73d2M5hmlGzNDmuGr+8D2oOXAOxdr8n/vy17171vym0Sr1IPI4ESIAESKBuCVgvdwidPwgZdX3YIALLBzY7bWZYVX5ejwR0BeXU6WJh6TIzZ4vpgdjS2Ig9ZwO/rhKnFRdYMX+L++xVCq16vCnYZxIgARIggbIIZLLewXTKHnLyRtJpw9FUZHF2Ci+LCA8OsjC0tQdpwQx82EzPuSBgdxC0W/24ok8pnkROzVMO4c8JnwRIgARIgASSRWDxucX6AIRFS0ZzQhUeoAbNVKvW0GiezsJV+UkCCKjgwjSxjzRx/tKVwWZnzIZzfcSgtdZulbS/lUIrAfcEh0ACJEACJBCNwObNn0SiArsPZgoVW+FFc0+O5p8Mr80aSSAQWLimiOZA9pevEjsTeZA14r1bgTlMtnm59v0UWm7AWIsESIAESCBhBJCEZjemdna7DMtoDCZdoaZhHlgai4CmEFLH+SntUcb9HmJrbdXgpRRaUbCxLgmQAAmQQGIINOf8d7CQX4WWxtMqXrIIB6Bxl5AInaXxCARCW8M/aK7F8IKwXXZrU8pu06oUWuHAWIMESIAESCCBBN5+9l44X1kVWiedhocQAKIbS2MRgBN8sBKxt8d13Gchrra1dGV0ZSuFlis11iMBEiABEkgaAUwc5mQnRqVbaAmsGoi15GjVCG2PFeqDQBBHrecMAtc6WjMN7idrtrzx/fuDAdKiVR/Xmb0kARIgARKoAoER6+1AszrFkwttXqcPNaglcuWxNAgBtWZpTK1uBDF1C++QEV/egrwKpg21UGg1yL3CYZIACZAACYwnsPf6909h+nArPgny0oWVQGidR+Yet4duWHP8POYEAitmEEcLyaiditHpwtd3XLf34v1EoeUEjpVIgARIgAQSSeCBBzAss0WX4juND8FL1VfHaP5DlmQT0PhpGrAUFi1HYY21Ff6rubR5VYL7Kl8otJJ9m3B0JEACJEACIQRSknkTq8TeQbVw9aRTSciFpznxWJJNwGiy6TOn8knF3YZ6DNHlX7G93TodfbFQaLnBYy0SIAESIIGEEti26TvIseO9juHtdRoifLQ0D57R1DwsySSQGYHIOhGk4XG1ZiFu1qtIJP3ynhf+8TImFFrJvEU4KhIgARIgAWcCRnIp/01MIb6BQzD9E1I0aKlOJ+lDmCV5BEYd4E+fEIHgcizwyTKbe6X97SvrU2hdSYT/JgESIAESaDgCzf4UWLOsWrXwdA0vBvG0At8dWrXCYdVZDV1V6p06ns8E4NZ3TRfwRyP+bw8jEvyVhULrSiL8NwmQAAmQQMMR0FQpvu//+YJVK3z8fg5C60zgr8WSIALZjBhYsoKVhq7pliySkxv762zf+S0TkaDQmogK95EACZAACTQcgXSq/TU8XV/BwGGqCi+BVessVqVxBWI4rHqoMTpleAqzgO7XFHOLdrN4ZvOVvlmjQ6bQqoeLzz6SAAmQAAlUnUA+AXDqZZxonJ/NhCeHVcvT5f/nEDWccbUmRFRPOzWXoXf8cD6noXvHt4nxfj7vxJL3Ch1CoVWIDPeTAAmQAAk0HIHmbFYtWn/A5pbYTlcg6uq0AeZArOebxQwNijlxNC+aXacMRc4hidO/ZU32pc2bP1lw+BRaBdHwAxIgARIggUYj8Paz9yFKpXkJvlpIo+JQRqebNN5SLutwAKvEjkAGfllwfvd0ytB9laFvjfzJWHl+z6ZvF3XUo9CK3RVnh0iABEiABCaTwIgM/g4P0RfRB8wJOhT485jTWKXWwyCmDrTiVUWnf88iCxOmDGXQNc1OMIS9npVner3Wv4QNiEIrjBA/JwESIAESaCgC72+6X7xc7jewasE53q0EORBhETHRHtZujbNWdQiMWiOPYtEg/LMiFEwrm+dT6dwvJwrncGU7FFpXEuG/SYAESIAEGp5AU3vqz8b6vwKIo04wchcsI2dOcgrRCdgkVwpSKXWLd+RAlOjv2uksrJ2vIJzDpq0/vk8TSIeWxhVaqbSIbmOL54lNN4n1UqHgggpxacOtt9FrpcBBt7HFGLHYZ8HKqRRtw5VzsX44tuHU2dIqBTzSuJfA5rIy0f1R4BRxaaNA9yqze4J7wYKRbs6lWm3g+gXXMA4F30Gi25iifYvUv7i0EQeeJfbh3ce+hTzTokLrd9jcnK9gzTIn4VDtnralxN7xsHIJBCsMj+wPwnMIpg8jlO1wgH9iqN3/E770nQ6LyTeLU18rWslOaRc7d4FIS8vFoGS2qVnsjFnjxUWBM1ekjbby+1Gge2Xvti2tYmfPywvKCzdiIERnzhn3ICh0sqJtNLndfpVoo1D/KrL/AhMEOxSDYHdBgVi302eJbZ3idopqt9Hm2A+33pZUy3ZNF3/BEqzO6sfxmuUEor2jU6RrqnN7VW2j070fzh0uoaKdCk4Ll17ipC837eAUoX8Tt9GFNqY596gSbTifLKYV22YOb+s/1/a8WP963K/rXLoZTCGeOIJnSxuuW4fLIaxTYwJ5kQVLVnTr41FrzE+yWfn1/ofvc+6125POubk6qghR5c+ZL2b6zEtCS98Cm7BdaZkoNKxKtNFcgX4U6l+5+8HDnzVPzNQZFxV/YH3AuMXVolWsDeNoFatEG+WyKHa8PginzQwehmZ01ZEKLeV0pUWwUDtxaaNQ/yqwX0WVxYuNwQqfi0JLGenfnGOJSxuO3S2pmu3oAqfWS5z03lBO+v3kWOLShmN3Y1vtje/fL9d844d/yGZTGu7hamzhF0GnELEC0cdLloVglma8zLPEhkAgsg7DkoVVhhJ8FzmX82LN89AHP937zDexxNS9NK7QUkZRpy0m4hqXNibqWyX26bRYqq28luLSRnmjKH60Ck+1ABavVfzTuLRRvJflfapWYxUN5ZS4tFHOGMKOjcsYK9GPsLHG9fMHHpB125YvyWXNR9FFKKYIf93If2hOHhOvtQ0v9Jg5cX3hiiuLRPQLPlmByIIlKxBZzsmidfRa+XfW+o/uWr9/l2yKBqSxhVY0VqxNAiRAAiSQcAK33PKSHJ574KrUVrnJir0Z2ycwzbESww63Zo1hEwQwPYYo4/oCBjcC55mShPOdlOGp4zumdAOfLOQxjGjJ0oTRr1tj/3dusPcVgQCPWii0ohJjfRIgARIggcQRWHnX4+INZj54LHXgr9I582EMEEJLluNnaSZYfbhrtHFsEWxhieM66QNS31ksTghWFyJeloz60bp2zMh2a+0Pcs3p5wrlMgxrikIrjBA/JwESmJiAPj34BJmYDffWBYGVX/hnaemYvjJn7XV2OHeD8VIfQM7CG9D5+dgcnUgLDDWYNpwP/034uLr6/RZoirtLJACf2SAXpYqsbuQJh/9cxLLH+PaHWc9/ds8Td0c89FL1ZAktCwufbo1WNJmpa0LTRmWkuavc81fl7yPeS8X/khr1XlIqUcYe9d4rTr2+Po3y3VSjkV33zUdlcETWpn27BpaKNRBZ63Hq67BQfwUubHvZ3VBRhVXt/tyFWNmOLQYrfsseUx02YNRPDtOE5tihYNow0vd/fryIYmoey/ipTXs23V00xU4YnkQJLV1ar1vZzrZh1OL2ua6ccF09MVoXS48bqqjjYxTnxyhMkwQyyrjVBK9M9WHaSG/sKpyUk+vbsa5EVVYNxwnWAx13tBhFlf9r2vgTWZXOdpqR7GosdF41MuCv9sSstp6swY2LqUGLuBcVKrraGOFK7LxFYmfNFcsVhxUCG60Z098XxDPzsImGk3E1RFw6zVF8qz3p57KP73n624ejnX187UQJLQHcYENsqoYp+BJXp0szPOg05KAuGOny74YpOkev44avhGsJfCtwjPXhxOoawNa18TjXUwde3VwKhMYo10Z6a9cUK/o35PyGrJz0ix/58CymkxqlBJz0Xor+kCsP0QVhlRrOXW09uwwJ7JZJRpYhbNty8WUVXgoWw+aEIFflnWbc0RBV/ozZeSvWtOnjA2KPO4A7Kk5A/9Z6zyFv4RGE2ECEfli1SihQZ/ZJkzI/3P3Tb79fwvHjDkmU0NJAiIGzm8ahaYQvNHW2RAqBILItIqg5Ff3y0wSaCH6oAVcboQQBBJVRJIvWSHCMQZDNwMeiAYoZzP/9RMnVpk6mBj4QtnlhYyxhx99Z8PeDL3Pnon+nygnH6VRSQyz119kFxJLS76fqFisr73pC0tncKpuRheLZBZ4dWmgzdpFNQWRZbxnwq7DSaLQI6F2F3mhGEX3mILhzYMWagiCljWThrQLSUppUY4MGIDUnEJlf7ztXi/PlJwtElqTM93c+dc97pfRjomMSJbREHd9OnxRfA/up6VbnxpN6w19Q7sFKCp1/di1q3dEHhTJasDjZXwo61mBJb+RcVgFNfZjqser1p9MBibVsqRDQlxT4MmigxUhTPSrcsYTdg9XPnzk7H8zW9V6st3p4O/bU50OjfsM6FamoiD0OToinpFaPIOhvQstF3xjlFMGKXBTHAw/IdXtXSHbILvEhaXxr5nhW5oh5ZLYMC9JXmAWYFkTAKrMA4RjUkR0pN/TLH/d20YbL+FCbxwu9hm7wVWBpYOcIwXfLODMPHUtAn4WIj6UJvfXvUzSpdwlWVBwCZ67AkvUvlRRZ2tVkCS0d0dCAeHhgWF1SC0tEkAJFg8UlRXCpEy78Q0z/+bzFJVDujtas0ZsTDwkPX4J2BFMZGtFcBalGfE8MI8wJ6Bu1TtfoihPNOxZ1Sa+yUuvFmRPiwRKmqZmCN1V9QCaJk049q1jCihzTfSa6gAisquCrLzn9vWI1TUxzq3vmgLFfmLH8HfeS+mQNw7H2PKzHaqUpZTrsglUr4NSHANOdmLpPEid9sCknfKeYXrzc6MyC6xT0pevebCQ1b91tD6+Hk3qn9UyXMWa675vpZqs/PWPtdKimmdhmYzkgRBY2MVCtEFX4paa3DzIc2C48X/ByEaTaatMp4dp2oabjjenJgu8uNRwgAGlgxSrlez4/tn24fI/nUvLInqfu2Vvp4VbmzrgwJy5DuRVeKjdX/zhw03XAFNDqezbtBW8W0QsyZMMeaz+HIzUyb7Si6V30j0GdvpMotPRNMcpU2ET09LLAryCYZk2i0ILoDpyWS3i7GYdLI2QrpyQKLb2X1JehXE6aAUAZJUlAqCPPqNBSP8jSpiMuv500m0QrxGiSOI0VWmrtK43TMTzs3jVWevPf/dKF36fhdzxPRJM0AtokF32mIF+kReq2QGDpy5drOrJJ7nqiTo9nXzAdDwuWhm8ILKelfX/pkv0dRrxHxE89tePpuw5Ug1NJAijoiIorGVzoYWksOrkO5toViJy62MCki0/VqUWzabZiFGmcpNTz6HH6x5VcO3sAk4UESIAESCCWBPSFVKO7d0Fg6SwJpggDgcW0OrW/XGqBD3xuYcXSrU8XpUSOjTXabzRm3kIDP0inm/9165N3Yt6xOgvPissAACAASURBVCWyANrwvQelv6d1lfjmo8aXD0FcaXC31dj0rSNye9UZFlslARIgARIggTIIqOVRFwypwNLFQ1OxMKYN/6YFqwyoJR6qAgtT7ureEAis873lTBNqJ+A0KS9ba/6luTn17JYf3YWpj+qVCMLIIov5Q4tzufQtvm8/g+nBj8HktgRdS56fV/V4s2USIAESIIG4Ehi1Xqmw0pWE6nOov2s8rNI8YOI60vrol/rJwvfTnIPAUj9SXfhVrsuMCBwIzQuY336oz7RvPrzp9qqzcBJaizBN2GWHP56T3K1YH/t59OpqbPAwZyEBEiABEiCBOiagFir1VW3vwNYJ1/rOvAVLrVecHpyUC6sx50RXEmpMLPXFCgRW2UYnXUD+nrH2Z4iv9tROad8iNRBZCjBUaK2640ed3sjIF8Uz98AvVJ3ScSeykAAJkAAJkECdEtCFG7pQClODgb9VILKwtenKYoS+Yak9AQ3ToKsI1QcLK3xFY0RqYOCoq+on7jkalr/AUPSEn8q8sOvH30G8rNqVokJr7a2Pzbcp/zY4838HFa9Ft2jFqt214ZlIgARIgAQqQUCtVrpyWEPZYFNfq8DfSoWW7tO4giy1J6CxDnU1r/pfqQUr+Anr1RAsWhXKNQv9cgizvr9A8IMfY03Db9997Fs1H2dBoXVBZN0BK9b30Ct1dmchARIgARIggfgTUIuVhs/QMBoaVFStV/pzVGglKbRG/K/G5T1Uy5WG3tEgyYi1FlitVGRpoNHKWK9GzzcAgfMmJu5+Jjb3bzuuPbBbEPh2MsqEQiuYLsxk7kWH/hM2iqzJuDI8JwmQAAmQQHEC6qCuflRqrVKHdQ3DgC3wuQrE1QWhpZ81Us7S4tRq+6larTROn+aPVTGlWRI0mK0KLRVcrunj3HsNXyyz34j/K4SXeibbkv7Vnifudj+6CjXHrRjc8KUHpS8z8mWssPgOrFkUWVWAziZJgARIgAQiENCpP0zvWfWfSiOsov4cFVcaRLh5jNBSa1U6QZkuImCa9KqjmUtUWGELnNpVYGlA0VGhhewBzgnZow8IqUDsnzDv+Hw257+4+7qD70+WFWts1y8XWjCr9W9tvgWhG+6FyLom+hjHHKFvGsFy2AmNZmU1zYNJgARIgATqnEDweMD/VESptUmn+zRDhVqogg2/QzDZlIorFVYTCC0VWVwZePmNMBohvVrhKLR9jWul6W50JaBapDRSu4ZdGBVYY4WW/q7ZFapbMAcp7yCTwC9933thuDP3+v6Hvy3ydHVP6tr6ZUJr9bYVy0HkaxBZN6GBaI7vGtxN57+xgiMw3eobRRDYjULL9WKwHgmQAAk0DIEoQotiyu220Gk6ze+qef9GBWwgYj2x+lP3jRpBxhlDNBsNThMINf0dm7ankdc1pVLwE4LJh7DS+FYTCS3dV31RNZYFTGWyHZlpfuNJ6sV0s7e52sFH3S7E5bUuCq2VX/hnwSX4FDKefx65pTR9jltRgYUEqUFyYg3udlFoqU6jyHKDyFokQAIkQAIkUB4B9Xnyjh8Wc/LYBWuhiqsKCy2dHiwtr2B5g7v86EHIwF0I1/B7a/zfZLPen/Y+800EIo1nuSi0mlqnXQN4n4XIglXLsWAVhz9zrtg58/Iii0tkHcGxGgmQAAmQAAlUlkA+BhXCI6gQumCRwrxecJKEmD3OYyjbMbiXPZt62W8aeXXXj7+NmFjxHl0gtDR/Yd8ZuRnWwo/AmqjzfeEF8Uf8eYvEzl2YnzIMP4I1SIAESIAESIAEqkFAfaQ0gro6nierqGo8iSG9C3nyF9/kXslmU2/sfeZuTaWD3d+J/WgDodV3rm05lkJ+GHO3C516rJaseYvFzofQUn8sFhIgARIgARIggUkjYPoR7FOFVm19pKo53iE4t++DlnrDt/KaManXW7LZP7/97H0XPOtrH3i01MHmpw6tvQ4i63o0Em7NgpO7PwvThXMXUGSVSp3HkQAJkAAJkEClCKjTuqauQWT1Oi8ZzKwdgR7ZhqnPLVAkb3vivWFMy57tNcpLWA1+6XVIGO3L4FoMbqXLCdTh3c6ez+lCF1isQwIkQAIkQAJVJqBxqvKJlzF9WH9lGPrjGETVLizG2w7n9i34uSXjDb3+/qb76280E/Q4PZIbWYSVn1dhpjM8WbQGjJuO1YVdWF3IQgIkQAIkQAIkMOkEND9gILTqo2j8COTckf2YGnwP/9gtntkNP6xdkrPv7HrmHoSLj7dze1TM6XQqB2crWeJyoNUEnJ3T8oHkXA5gHRIgARIgARIggeoR0NhVKrI0vU08CwJwCQJ7yUHIp4MQVgchpA4Y3+w1ktttvCnbLp8WvCeeoyijV2nje3Ot58PpyqEVxMjSOFksJEACJEACJEACk09A/bJMb2yc4HXu8iwMUifw8zimAE9Y8Y8j3tVhFViehdDyZdfOdOuA/PT2yYdXox6kffFnwElrRmi0flTQFYZB4k4WEiABEiABEiCBySUA1RI4wWPFYQ2KrvZDokJR01k/rFKY/rPnYKSBtcp0G4vfjZyBoDoJA84JGHBO5PzsiaZUx/vbN23EIcmaDozCG6sObQdyG4abqVSJaVodpkKIwpd1SYAESIAESKAqBMzQUN43S/MJupWdeJK/CzGUQzxTz4OpCb+nrbGesSaLfTl8nsOqv6xYXcpoNNrpEOoMYP8gqg+i7oC1th+/91gIrBQEVs6T7qbm9OGZRxdkNm/+pFtPGqhWGk5oLVCkyMwZUoK8SeHRH0Ja4cckQAIkQAIkQAKVIKC+We5O8H045fOeST2U83JZm/UhtJq8rJ9L21zKpLAP6gqaCRkNTSrr+U1+zstmmyRzuke6hg+vR0D2Bx6oRK8bro00VKomJbyYiqfhCHDAJEACJEACJFBvBOAEH0wbujvBa/iE32/76d1QTCWUTSUcw0MCAu4mqtHcSQRHAiRAAiRAAiQwqQTykeDhHuXror7QopVez1rvrdCarFBxAlgEgPlYkWxoy7oq0WVlYmhDrEACJEACJEACJFAyAXWf6u1GJPhe1yaOYPbq9T2p5sOuB7Be5Qh4nm9VZIULrUBlUWlVDj1bIgESIAESIIHoBIJI8BrSYcQtEjwc2N80xn9d6jiNTXRK8TkiLcbDpKC1oQsvOXUYn6vGnpAACZAACTQsAXMe1ix3J3goMu/1dKu83bDAJnngHpRuFiIr3KJFoTXJl4qnJwESIAESaHgCGVix1Jo15BgJ3sgO48vr7z72rYZHN1kAPOsjXgaWdDp1gGLLCRMrkQAJkAAJkEA1CKhfllq0BH5aDiUDj5/XPC/3jkNdVqkSAcQrU2d4FVsOhULLARKrkAAJkAAJkEAVCOQQSzRwgneLBI9opMgvaF/fvv7A8Sr0hk06EkB4BzsCxavRX8MLhVY4I9YgARIgARIggSoQMIP9gdASTSTtUoy8CbH1BgONusCqXp3ARwspiNyuGvIqISx/9XrDlkmABEiABEiABMYTgKHD9CKdoLsT/FnMVr3e603ZNr4x7qklAQ+5jDRJktMaUSSNRGIkhnio5QXiuUiABEiABEjADCOkQw+sWcOa19mhGNnqG3n9MEM6OMCqbpX81KGj0Aqc79wc8Krba7ZOAiRAAiRAAo1EQFca6rShm7FjWLDSMCfZ3zYSoriOFQFLPQ3v4DZ1SKEV1+vIfpEACZAACSSVAEI6BE7wjnkN4Zf1vvHk1T2b7ksqkboalwd1rNOGTlOHgX8WfbTq6gKzsyRAAiRAAvVNIAjpAP8sx7yGPiKQv5rx7Ovw0arvgSek914uJUOQT+qnFV5o0QpnxBokQAIkQAIkUCkCGtIBvlmuIR1w2mOQV69OnTq8t1JdYDvlEfCMb4aMGDfvOs0S7pYpvLxe8WgSIAESIAESIAExA315a5ZzSAf7pvjen9/4/v2kFxMC8NESiCw76NQfWrScMLESCZAACZAACZRNAK46psc9pANiAnRb8f7S1A6xxRIbAl6m2R+EmdHRosVVh7G5cuwICZAACZBAogmYQYR0UN+sETfvHmNkm5ezf2Few3jdFrBoGfXRchNamCsW3VhIgARIgARIgASqSOBCgFKNneUW0mEIIR3+kknlXqxip9h0CQQ8LyvnYNFymjo08M/SjYUESIAESIAESKB6BAwCk+q0oQw5PZ51geEea8yfGdKhetek1Ja99uzQgHX10aJFq1TOPI4ESIAESIAE3AlogFIVWm4hlbIwev3Z81OvMqSDO+Ja1fTe2HAMQtgM4IThSQwptGp1XXgeEiABEiCBRiWgAUrVCR5JpB3LIbHypx2ppgOO9VmthgQ8zeqN4GYqtMLtkwzvUMNLw1ORAAmQAAk0IgFNHG16kBPazScaj3B5Le2l/izMaxjL2wW5DrXYPvwvXDpreAe98G6OebEcMDtFAiRAAiRAArElgHhZpvusmP7zjl20J5E8+o/DfWe3Ox7AajUmEAgtBC1Vi1a40NLKnD6s8SXi6UiABEiABBqFgEaAD5zgs1mnIcP1503Ez/rTnhf+0ak+K9WeQCC0rAeRZdyElsllRTcWEiABEiABEiCBChLQ56tas/rgCO9QNECpL/aPZjgLJ3iWuBJI5zvm90FtOVq0ILIotOJ6PdkvEiABEiCBOiVg+pFuR32zMhmnESBA6buIBP/HXc/d61SflSaHQN6iJR6urrhNCKs509GkOTlD4llJgARIgARIoM4IwAdaRZY6wjsWGEjMK2kZ+a1jfVabJAKBRcv40usstOijNUmXiqclARIgARJIKoEgeTSmDV3T7YgxO4z4r2zb9N2kIknMuPKrDj2j1qxep1HptCGnDp1QsRIJkAAJkAAJhBJQa5b6ZvUi3Y5bGbLWfyWVbn7drTprTSaB/KrDrD2BYGdOU4dGl55iYyEBEiABEiABEiifgBnAerTuM+7WLDG7jZWXtz55x4nyz84Wqk0gEFpeum0AU4dq0cIihpBCH60QQPyYBEiABEiABBwJBL5ZZ/IhHdxiVGZ0yjDd5DPdjiPiya4WCK3tiCaLyLIqtIZDO6TThrRohWJiBRIgARIgARIII6BpdiL5Zom8j9DhL29dc/BQWNv8PB4ELkSGR6JDYyG0bPhyB40Or1Ytt9QA8Rgle0ECJEACJEACcSOAhNGBb1aQPDp8Qgndz8Io8ooY74+aPo+lPghcFFpYediNpaLhQgvjop9WfVxc9pIESIAESCC+BMwAvHbUN2t4yLWT+6HHfr9LWve5HsB6k09gjEXLdGP+ELLaoejUIacPHUCxCgmQAAmQAAlMQECtWdF8szQlyyspz3uFyaMn4BnjXReFVsr3IbKMo9Bi0NIYX1N2jQRIgARIIOYEAmvWuSjWLHNQrVmzTy3aE/OhsXtXELhk0UqlIbJ8tyAemRGkCMDGQgIkQAIkQAIkEI1AEDcr0krDnEFOQ4E1a/PmT0Y7F2tPOoGLQqspneo21nOyaBnkYdKNhQRIgARIgARIIBqBIG7WudPuvllWdIXh7zqmD+yKdibWjgOBi0Krr2X4hDVwiHeKpQVrVpYWrThcQPaBBEiABEigjgiUYM3C6P6Ys/7Lb3z//joaKLs6SuCi0Nr/8L3Y5yPRkvSH4tHQDmrR0lAPLCRAAiRAAiRAAk4ETD9yGka2ZpnNaa99p9MJWCl2BC4KLTjCa1h4eOYFW/Gi8T5UaGk8LRYSIAESIAESIIFwAjBSmO7T+bhZ4bW1Rs4Yedl65vcaWJylPgmMEVqQWtbDHWDDhRbGauAMrxsLCZAACZAACZBAOAHTfz6/0nAkPAmLtoZ8hvt9Ky/RNyucbZxrpC/rnDFnELQUHnoOhSsPHSCxCgmQAAmQAAmAANLX6ZSh6XVac6bIsvCbfjltvN/TN6u+76DLLFq4qG5ThzpmCq36vvLsPQmQAAmQQM0ImPO9Ys7CjjHiPBO0D/48LzFuVs0uUdVOdPnUYdY/hAvrNnUI06dxNH9WrfdsmARIgARIgATiTkBdbc6eEnPeKcudjiaDnIZ/yNncHxg3K+4XN7x/lwmt9tlDA+KZUzgsXHJrCh61arklwgzvCWuQAAmQAAmQQAIJmF5kuIPQipC6bq8v9re7Ux3vJxBHww3pMqGl88BWfNwNNnwSWUM7qAmUKw8b7qbhgEmABEiABNwIGCSMDqxZcIR3LMOIAbDZ85teZk5DR2Ixr3aZ0NK+Gl9OinjYwovJYPoQGwsJkAAJkAAJkMAVBDDjY3rOiadxszT+pEsxstOK9+sd1+0+4FKddeJPYJzQ8j1zwop1ElqiPlr004r/VWYPSYAESIAEak7ADA3mpwyRcsex9Isvv/FM7o/ywAOOh7Ba3AmME1qeJycRu+OEU8eHIbR0YyEBEiABEiABErhEYDTVzjmsL3PNomJki/X8X2/fdO9xokwOgXFCq3XY32ONm0VLVx1y5WFybgaOhARIgARIoDIEzABS7ZzB5BDWmDmWHmPNiybr/UIztbAkh8A4ofV2U7uPS6xTh4Ohw0QAtmDq0HXuObRBViABEiABEiCBOiegwUnVAb4b6YNdV+YbeROxLF/c+cw9dT54dv9KAuOElq5yQCZDNVuG+2mpo59atZiK50qu/DcJkAAJkECDEtB4WYE1y92H+RQE2a+zzd7vGhRZooc9XmhhuMh5eBSWy2NOI8fSVdGNhQRIgARIgAQanYAaH06fjBKcFLGS5E945v5qzxN3Nzq9RI5/QqGFVYfHYNY66jTiEYgs3VhIgARIgARIoJEJ6CwPpgvzwUnhWuNWDllrXhhqt2+4VWeteiMwodDKeblDmFh2smgFwdho0aq3687+kgAJkAAJVJiA0eQqmDJUR3jHghQrstmk7W/3P3yf4yGsVm8EJhRai04tP3fBTyvcVKWR4VVoqWM8CwmQAAmQAAk0IgE/FySNNtHCOewyRl6Yd2LJe42IrFHGPKHQCpJYWqNTh24O8WrVcnf6axS2HCcJkAAJkECDEDB95+GbhRCUw+EL9i8g6bfWvuinskwcnfB7ZEKhpWM2Yo7gh27hhQ7x4YxYgwRIgARIIJkEkPdXRZbpRZpg13AOIu8glNILu378bTd/6GSSa4hRFRRanviHcRMcdqIwhKlD3VhIgARIgARIoJEIBPkMz+StWRl1uXIqp7Ho7IWm5qZfMTipE6+6rlRQaDXn7A7cPiq04K5VvBisOjRqLnVX8sUb5KckQAIkQAIkUAcEzGC/eKdgzXJ3gNdwDn9U36wtP7qrDkbILpZLoKDQevuGAz4CaqnQ6g09iUaGR/JMYeDSUFSsQAIkQAIkkBACGgH+DCLAnzvtnM8QuYT3Ybbo5wznkJB7wGEYBYWWZg63vgot6+SnFWQpV7HFQgIkQAIkQAINQCCIAB84wDu7zuBBaX/tG/MbhnNogBvkwhALCy1UMJ45JAabS1GRRaHlQop1SIAESIAE6pxAEENSHeDPd0cZybtYafb8rvXv74tyEOvWN4GiQgsTyQfhduUktPKBS9WiFerSVd/E2HsSIAESIIHGJuDDswbThRqcVDSWpFuBx7z5d0+y/6YzRiyNQyBdbKhpaTuSk4EDsG0NoN6UYnWDgKWBnxZWXTQ1F63KD0lgMgnACVVaU0bam420pEQ87Mj6VgZxC/ePWMngdxYSIAESKETA9PWKOYnkKQP9hapcuV99nv/o5/wXdj793Ss/478TTqCo0Nq+6XZZfdsj+/FcOmaNXFWUhS5xHRwI/LQshVZRVPyw9gQ6IaqWTE3J0qmezG/3ZEabJ7qvBX8BiBknuQtCq2fYl1ODSPR5Pif7un051ufLSI7Cq/ZXjGckgZgSCJJGY8qwxz1mljrAW+v9fKQr91pMR8VuVZFAUaGl500Z70BOfBVbxYWWVobQCrbOqVXsMpsmATcCHm7aeR2eXDc7Lddgu3pGXmjNhdBSaxY+HldUU3UPWTlyQWjtOpuVd07kZOeZrPQOU3CNA8YdJNBIBKxOGY7GzBpxHXm/NfYXkvZ/TQd4V2TJqhcqtMT4BzwrB1weMRpLS5NqIq0AzAQTPcaSBY+jiS+BmbBY/dX8tHxscZNsmJeGJSsVTBOGFcwoysw2gy0t180R6Rlukh2nc/Lq0Yy8fDgjO/H7YNblryHsTPycBEig3giY/j7EzDom+tO1IDDpm55vnt3x43v2i9znehjrJYhAqNAa6es5mO6YdgDqST3d24qOXZ0C1aKl8bSaW4pW5YckUA0CaSzvWDUjLZ9d0SSfWtYsK6enpKnoko/ivZjaYuSmhWlZNyslN0Cw/XLviPz+YEaO92vMQRYSIIGGIYDnmjl1XEz3Gaz5cv77P2KMeTbTlnqREeAb5k4ZN9DQd/yze16Q2eu/ugRzzBsw1zJjXAtX7miGI3xnl0hLcU125WH8NwmUS6A1beRDC5rkW9e1yt9d1SKLuzxMfZfbav74FrStPl5XTccSkSYjpwd9OYcpRhYSIIEGIKA+yGdPiXcUEY/UmOBWhiGufu5b/6HdT92DiKYsjUrA6V3fWrMXc8zvO0EawE2oGwsJ1JDAFIifj2Oa8Hs3tsnfwJI1rbVCCmvMGLTFZXCmv31ti3zr2lZZOzPFGfIaXmOeigQmi0AwZYhVhqb/fJQubDXWPLPgzLKdUQ5i3eQRcBJaxpd9UOZOQiuIp4XcT+IjLQ8LCdSAgFqbPoLpvXthyfog/LKaQ+205XVKfbi+cFWz3Lm+VVZharLykq68/vFoEiCBChIY0SlDiCw4wQviZzkWtWD9PNecenbz5k86HsJqSSXgJLTmnl2k4R32AkJ43kMILIPYImbIOSVBUtlyXDUgoCsLr5+Tljsgem6ED5X6aNWiqO/WZ5Y3y1dWt8iCzhqdtBYD4zlIgAQuEbgQmFR9swRhHRyLRjD9vfG9n7/35J2Oh7BakgmEOsPr4FWRr/naoyq0DsAL8NpQIGrR0m1Ke2hVViCBcgjoasK/X9UcWLJcnd7PD2Tk6Kk+OXluQPoRpVRXyTanUzJ35hRZOr9TOqe4BdydAcvW51Y0y1HE2npm17D0IdgpCwmQQHIIaGBS78SRiFOGZgfe/zaZVMubySHBkZRDwElo6Qn8nNlr0rm9mHMOFVpB4FJYtewMhnko5+Lw2OIE2uGX9ddLmuQT2NRHK6yosHp392nZsueM7DvaIyfP5oWWr0KrKSWf/uBi+dqnr3YWWno+dbjXacS953LypyMZiLawXvBzEiCBeiAQuMGoX1b3WdgXnP+wT+Ob6F9TTemXtj55ez0Mk32sAQFnoTXFZrcMWW8P+qRm0eLHZZGGRy1amo5HVyGykEAVCKyBM/otS5tkHgKQFisjmZxs33dWfvWXg/LHd47K/mO9MjxyuQ/h1I4WacK8Y1d79Pt1PUI/qODbDbF1imEfil0KfkYC9UEgBxcY5DH0TmPKUJ9nbiWYMhTfPLP1yTtPuB3CWo1AoPgTagyBt5+91xdr3sOu8BtIl8Kqn5aKLRYSqAKBDkR2v2lhk1yLiO/FyhAE1Z+3HpfvP7NVNr34nuw6cG6cyNLjF8/tkNVLp8uU1uLtTXQutaZpX9RXLNyuNlEL3EcCJBAnAuZ8N6xZR/NxId07th35Jjhl6M6rYWo6C60g2Jon7+GHiq3QYgb6IkXPDW2QFUhgDIEV0/IBRLvglF6oZHO+vLHjhDzy/HZ5BZasPvhmFSrTO1tleldroY9D96+Y5skNc9NSrD+hjbACCZDApBMIXF9OHEUuw+4oU4anML34LN7rntEcwSwkMJZABKGFey6V2Q2z6G40ED5hPYwVGhBbEcyuvDIk4ERAVxquxXSdTh0WK3sO98jTL+2F2DopOn1YrKgo063UosFStU/LIQBZSIAE6pQA3F10haGHaUPJ6UygU9E3uN95nn1m7zPfcl6a6NQyKyWCQCShNf/4Csh8eQ8qqyd09Jp8E0HeDIOXhqJihWgEupo9uQqCZvaUwrdv32BG/vDWEUwbHpPhEJGlZz92pl+OncYCjvBXiIKd1T5dhbhaLCRAAnVIQJ9ZSK+j1iwZ0oxzbgVfGdsQ/uiptukjb7sdwVqNRqDwk2oCEkHgNSvvwaCgoR5CSzB9qFYtFhKoIIH5HZ4s6koVTa+z51C3vLrtuJztcYvndhwi662dJ+U4BFepRYXfIsTU0gCqLCRAAvVFwJxHKIfjh2EgCA8XOWZkWJZofmrTTT994/v319eA2duaEYgktLRXKc/sgL+WW0qBYbwVDCBlgbsJtmYD54nql8CcdiNzsRUqGq5hB1YZ7tx/rlCVcfvVaf5l+HH9+yv75dS5id9mu/uGpQdboaIR6edgBeT0KqT/KXRO7icBEiifgBlSvyzEy4oW/X0QJvBf+p48zcCk5V+DJLcQeYlVf3t2T0t/ageSTKupqqMoHI2qq9OHcC60HUg0zUICFSAwvc1DLsPC7wjq9H7w+Hlna9Zolw7hmJ/9do90nx+WD187T5bN75L21iYZGMog7lavvPXeKVm3fEYQb6tQUZGleRaP05BbCBH3k0C8CCB8gzl1AqEcsKDePZQDltbLaxjIk7v9VhgfWEigMIHIQmv/w/fJ2o2PbMe8tOY+vK5w0/lPTN950Y1CK4wUP3cloIFKO4oEKD3XOySnewZFLVtRitbWQKZPvTgor2O1ogqtKW15obUfQkvF1h2fWy0fv3EhIslPLPS0b7qxkAAJ1AEB9cuCFUutWQKDgGuBoeF939gfy0juV/IcVxm6cmvUepGFloLK+T5SDHg7jAkXWqLTh5rxPIsVHOmSTteo14bjLkBAU+0gkHvBMjCUhRXKecXQuHbO94/I27Be6XZl6YeT/dBwFkJr4sCmLSkjurGQAAnEn8BFvyyk2nEteCFDkC3znJdL//uO5+51PYz1GpjAxK/lIUA6R0Z2QmSpuTTcc1inD3ET0yk+BCo/diYQJmMCO1Y0Y5bzBuF8tgAAIABJREFUuYOmq9h2pI6wMgmQQMkE8vGy4JeFlYaC55RjyRpj/+BZeWrH03cecDyG1RqcQElC642f348g8bINc9T7XPgZWLR0YyGBShDI4DuxWMSGtpa06FbpgpcLaYXHu26FyohvMZtAJVaID/eTQCwIZEby8bIQMytIFedY8Je9FdHfnxgZ6P5LEMSbhQQcCJQktLRd6/tb8Wq/1eEcIhq8FH5agpubhQTKJdCfsTKArVCZ0dUiM6a2wrpf2S9CdYzX6PGagLpQ6cd3dpEA9IUO434SIIFaEYD1yjt7Ou+XFSVelpVDeGD+OJduemrPC/9Yq97yPAkgULLQGvDad1rjqdAKn9xWh8O+Hlq1EnDDxGEIPUO+dA8XNvV3TmkOchdO65jYj6rUMSyY0yGLsBXTb93aN2wsJEACMSSgeXh7z4k5dihwaYlQej0xz3vG+xlDOUSgxqoBgZKF1uEgn5O/RYzd48IymD5EQDg6uLjQYp1iBE4MWDnRX9ii5SFHjyaIvnrJtGLNRPpMrWNhbeqU5sl+X84NFe5bpJOyMgmQQEUJaLgh7yhEVs/ZKM8i2KnNH3zrP7Ft091Oz7uKdpqN1T2BkoVWfuTeFjhrbXGiMII5cXWK11WILCRQBoGj5305fD6H8A2FG1kFobVh7VzpbK+MVWv+rCmyYc0cWTi7cOi4M4PaL18Gs0U6VrjL/IQESKCKBAymCc0JRH4/q3kMi+c+vawbxm7BX/Qjw132FfplVfECJbjpsoQW3IL34bVApw/xeuBQziNFolq1WEigDAI9mDbcd84XFTaFyrSOFvkE4l19YPUcSaXKus2lrTUtN9+wUG66dr40FYifpf14/1xO3u+O8AVeqPPcTwIkUFkCgfP7MfFOHhPBS3+EchArmJ9Mm5FNGkOShQRKIVDWE2g7pg+NSb2DxRdOkXGD5bQ6L86UPKVcKx5zgYBasnacycquM8VFzdplM+Qrt1wVRHPX6cRSijq+f2jdXPnizcsDv69CBRl80CcILYgtFhIggRgRgPXKO3sKflmHIwUlxQh6ILKey6bkmW2bvhujAbEr9UagLKGlgzWSxfSh1azl4REiIbAMrFpmIDz8Vr2BZH9rS2APBM07J7LSN1J4mq4FYRg+et18+ebfrpEbV80uulpwot63Iyr8x65fIHd/Ya1cf/Us8Yp4we/vycnb6E/3cOH+THQO7iMBEqgiAV2I1X1WzNGDURdjDVtjX4ID/ON7nrpnbxV7yKYbgEDhdeqOgz91+419s0/NmI/qH8A2Newwo3PjU9qRkgdVizy4wtrh541NYFgNR7h/rpqWkoWdhd8XVGzpSsEF8K1So1Zv34j0D2aLxjNNY6px6YIu+fxNS+Xrn1klN8I3q1hIhyH4ZP1q34j8+54ROV9E+DX2FePoSaD2BExvt3iH9yHNjjq/F3Y1uKJnUGfyqrHmfxmv7aVT26+pfcd5xkQRKFtoyebNMnvNrcjI46/Fk291KB0fT8jmFpFOCK10U2h1ViCBQgR6YD3qbMFqwBkpmVIkv6CKpEVzOmXl4mkyH4JrBmJhtTanA+Gl05Apz5Mp8MOaM2OK6HSj+nZ96RMr5G8/tiw4Jh2SUmfrqZxs2jEs20/nigq4QuPgfhIggcoT0JXu3pEDYs4gWXQU53exSC/n/X92JPvUzme+WfmOscWGI1CR8Nl+duRN+Gq9hbeAT4Fge1GKmr8EbxmijvGtbUWr8kMSKEZArUcvHcjI1RBan1/RLK3pwn5YKYil5bBSqZ/VzZgO3H+sV46f6Q8sXFmorRYkUJwKB/r5s9plGerNRMDTYlOFo/061ufLL99HbkRMGxZbBVlsHPyMBEigsgTMEPyBj2OF4WmILM2z614O4wn1pCe5f9v13Hfcj2JNEihCoCJCS2/Itbc99pYv/m486m4ocr7gIzPYH/hq2ekzadUKg8XPixJQ5/Nnd43IvHZPPrigSUKMT7BOeZhGbA+2cksvLGov7h+RX+/LiFrXWEiABCafgBkZRhiHo+JhE/zuWvAXDAuAPOdZ+9T2n96H3DwsJFAZAoWdW6K2b723cMjr2MKXXcGMq3PnGjyOhQTKIaBpBd+ENenJ7cOy9WTtrEqaBmjzwYw8vXNEDvaG3/LljJHHkgAJOBLIZvI5DGHNkgjpddD6EIwEv0UO30d2/Oze3Y5nYzUScCJQMaE19+yCA8hq/hpmBvEaEV6C4KVIhRAha3p4o6zRkAQGIXr+ANHzyJahYAov6+zzWhoutV69CCvWYzjfjtNwrKcxqzSQPIoEKklAwzicORmsMJRoL/GB8zu+Nn7QOX3oVQYlreRFYVtKoHxn+Asc9+9/BE7xt1nxrDrEhzvFq3NiGjOXHV1553heDxIog4DGsToKf6mTSM/T0Wxk1hRPWsLmEUs43xFEftfVhWpB23aqdha0ErrKQ0igcQhoouhzSBStKwzV/zdKMfKuEfP/pkzbz9597J4oR7IuCTgRqJjQ0rPNueaOY75kVuKm3YB/tob1IAj10DYFoR4gthjqIQwXPw8hoGJLU+DoVJ7mHZyGFYldLV6wurDcMgCr2dsnc/LTncPy7HvDshe+YTRklUuVx5NABQhoomjkLvQOQWT1YJYkmol5D6YLv++nm76/86lvVKAzbIIExhOoqNA6tX2TzF57axtSVWvgkUXjT3fFHhVaTchF1wmhxVAPobhYIZyA+mydQGLnPWdzcgyJpzXG1RSsKGxH+IdSBJcKrJ2I+P6L9zOByNqMVY6nYTVjIQESiAEBFVlwQQlEVveZqK4oRyHKHsn56cd3b7qLueFicDmT2oWKCi2FNOeaL/db663ArzdiC23faBA5DWDa3plUxhzXJBDQiPEaPX7XWbVw+YH4GoDoSkFt6ZRisfSH6uiux7xxPBusKHxu94j8cm9G3oN4U6sZCwmQQDwIqK+vd2g/YmWdihgrC/l5rfxE0uYH7/30W/viMRr2IqkEKhLeYSyc7esPHF+zbcVfcBN/DvvDfbU0/6GmSJg6Q2xL6GxjUq8Dx1UFAuoUvw9Jng8gPc4fDnny/7f3pdFxXFd691X1im4sjR0kAZAEuIGLVq/jObbG49hOIuvIHsq2LFmWnRnnnCROJieZc/JjztH8zc+MY1uyJZJaLFGQRFnSyHKssShblqyFFMUFBCBwwUKCAIh9a3R3VeW7rwGKpkj2gu5Gd+M+qVjd1bW8+l6h6qu7fHdDBRTfy0yqDxpU6VdU6jHIh1cBtnTxuvMgYhzoPjJnE8di8bb9IFxMvKQJAoJAfiGgSdYAk6zhVOvnzuD59IpyjD0n99/TTSRxWfk1ssXXmwxEr3wclNZv7m1xWeof8cs9mBJatThGy96wmZya+o/vTJYIAhlGwIVc21IEzDPR8uJV43KixdpY7C4U8dEMgy67EwQyiABLA+nSOsODRNFIKnuOICbrVcQR/+9O8r1O7Xelsq2sKwikhUDGLVrci3VDzacu1PS+SY66DV+bEvWMi0yzVcspD0kGYiKw5PdlI8DWq/Gwg0n8gMsGU3YgCOQYAf284CLRI9AUTY1kIYTTeVvZxs9icxOv069/lOOey+FWKwIZ09G6HMCDB5lfOW/hH2iSJJGchfqHHMjIIqbSBAFBQBAQBASBqyGgq4qAZBnDqam+Y1/s/z+CGoY/c6LRF3uEZF0NXlmWJQSyQrS4r+EAHYMIHJMtRCkmbmpuRlu1KJKSGTjxjmUNQUAQEAQEgYJHQHE87/l+lNY5R7QQTu18FJ2Ah+VBt9v8pdQwTA06WXv5CCSMn0r3EBNHfgUB0zuQe2twQHxrwv2w9glPftSgQxaiNEFAEBAEBAFBgBHQJGswTZJF1KMc56GorX7R2X6vxAvIJZVzBLJm0eIzsWP2nxB4+AY+wlSVuKnZaVJQ902lEGjivcoagoAgIAgIAoWKwCWSlXr9Qj7lXmR8PRp1XO2nDnw3+QrThQqW9DsvEcgq0WITLYIPX4edigtOJ25cbJrLKLC6rzRBQBAQBASBVY3AMkkWfIzql7ZSj/c8dw+qTEsTBFYGgawSLT4l22PCouUcxMfkrFqI1dI1q1L1wa8MfnJUQUAQEAQEgSwgsDyS5QzhLX+/cqw9Xe0iSJqF4ZFdpoBA1olWzxP3IAZRHUzaqoXioGocGYgcGJ9azaoUTltWFQQEAUFAEMhXBHR24SCyC9NzFyL+hJ6xoPp+8tn7P8zXc5R+rR4Esk60GEq2aimlfg+ylZx+A/+RsVUrPL96RkLOVBAQBAQBQYCWdLKMQXj7Un8GjOLN/jnHUQ99uP/ekwKnIJAPCOSEaLFVC+11qPEeSeqktVULRIsD4/FZmiAgCAgCgkDxI6ATos6dhSUrdQmHxRf5FwzD+mnXzjNHEZ9V/IDJGRYEAlmTd7jy7Mu2f6XXILMRZOsG/FZy5e8f+27FUBsFPJCLTXu8H/tZFhQIAkyaWcl5apyM6Un9hqpYOtCFS0/lhOcXCFDSTUFgdSOgaxee64UYKcrqRFJLEGSShWfLC7Bk/d/OHWcP0wMPrG4w5ezzCoGcEa3xjpeodusdETxcNwGBxLpaWElFo5pkcS1ETbqkFQ4CiK9jgmWMDEJgcECXyzDGRnRGqX5rRYYpeTwgXO7COSfpqSAgCGQeAb5X4CVMF4hOvawOS75rkmXb1o+7zZL36Cf/KfN9lD0KAstAICu1Dq/VH3fA/FMk7PwWfxk3Yp3EFaTxVsOV2VVZBTkVVdfarSzPMwQ4tk6XVBoFscL8chVnbczHTVVNTUJnDUS6fh05YrHMsxGU7ggCOUKASRZbuwd69b2e+J6QQvtzkhV4V4pEpwCerJozBHJm0eIzGjp6gCq3fGNOGc5GfGXF+IROdMV/eCasHmzVMnPKC3M2CEVzIBR41bF1yBTiQFY1iczRGFzAV2sYV7UA94DfT05JEFdCwkvhanuRZYKAIFCoCHBYAbLLjYEz+qWMOFwkhSYkKwWwZNUVRSCnRIvPtPTTXxsyo1QFU+8ufC1PePb8x8h/gF48kAPyQE6I10qswKQJLkEOYOV0bHYRJhVjARLmeOEahsWSzJxfiiuBlBxTEBAEGAHc01kv0egHyYKcD9kpV8YZxzPkxbi7UCxZclHlNwI5f7pxDcSqbXfMwITRBCNGG+BJ3IcoiBZbPJhoiZspf64o3CzV1ARisM7DgoU6ZKNDuiZZ8vpneCf1+sC+wbdlXPNnXKUngkA2EUDsrXERISFsyeIqIKlnlo/iafA8smp+3GUE3hN3YTYHS/adCQRWJMJ8zej6TkXOr/FETk5MzmETM8f8sA8/NfNyJkCSfVyBAFuwMB78Nmqc6Y6/lbLAbDpjs1RMXEAWBASBokdAIe7WGD5Hqv90uiQLDwF6Rin7nzu3nz0kJKvoL5miOMHE1qQsnObZs/uocsedMP0atdj9TkxIP0vQ2H1oQVOrJIC4nsTqEAn2Jj+ngwDeRHXgKtKvtYsQGUIKJZPSeCP96OjlleRU4TKQ7MN0RkS2EQQKBgFdUofvG+f7deZxGg26D9SuLPXTkzvPHhUJhzQQlE1WBIEVIVp8pqMdB6Zrtn5gwSO4FV+bkjl7FYtA5gFdDsKFKA/mZCDLyDpcd1JbsIbhIuQb5UW4CJdLsLhnLN1RW09OqFqC4TMyUrITQSAfEUBm4QwkXXRJHQiRcnhB6o2LQj9pO/ZDXc/d10EHb0t9D7KFILBCCKyI6zB+rooWzPCrDjkv4zubgxM3aC8ZY/DtswuRdZikZQ8BdteyDhYHuPf2xF2EHFOhXYSppWBftZPIIHUqa0CyakQj7aoAyUJBoAgQ4GQmTpSBqzDNkjqIMKGzCHzfayrjwe5n7+9MIlm9CICTUygmBFbMosUgahHTbXfOOoo24OtmTImJHz/kOUOF3YfiQsz8tcjxV9NQaEawqjEEkoVJF/mGVSv5IPfrdUtRaVkJBdY1UKS+iawAZDtE2uF6gMlvgkBhIsDJMpxZOAAhUpZvSO8FrQtPhYfJZT928un7ThcmENLr1Y7AigtTReYm33cFK17AQ5wzEFlbK2HjTDfFZRp8JeQI2UqIV8IVWDRwAQW8QbA0tiwoinIYBF2szJCreA+8fi+1tVTT525cS1RVQ7+94KLjI2KZTDg+soIgUGgIcNA7i01zPNb0RDpxnFzk9jimXyjLeOZk+30cnyVNEChIBFbUosWIjfX8mup33T5q2aoG5uHtWJS4sCETA12exxPX1pLyPOldfKy8D4V2jrniAHfFMg3smuX4qwy6Zk2XizY2V9FX/mID3fXFTfTlT6yl7WtLaB75DT3jFs1FufihNEFAECgGBNQ8Qg7YEn6uL/7CxpnFqbUY5BsOIazkx47b82BX+z24IUkTBAoXgRUnWgzd8PHnp2q2H4NvirgO4npMiWXC2QzNmYhs0YJlS9xPSV6EnDk4C9cgl8fh7EGeUI9Q1yDkQq6p3xSveWAFEdI19RX0V59qpt1fbKXbP9tEW9eVkcdlkM+lqMKraGjOoTMTNlkp34uveVj5QRAQBFYCAX4BhiWcCZYmWiBcaTRk3tAfHcf556ix8ETP/vvT2IVsIgjkFwIr7jqMwwGhB3r6dVvNH0DgYwuWNScDk7bGIFjbhuilEyhNZpPVuQ6XxkFgu06pnp3BZ2QAYa5rEGaQWC2Bq2BhrKkupU9sr6PP7GygT2yroabqj0tybAyZ9G9bPHR2wqKjw6KPtjovTjnrokCA47G4nA6Eizkui9jjkHpjzYfXHLJ/GoxEXjn04g9T34NsIQjkIQKJLUc57PT23Y+1Wo79DzjkPZj8SR0aEgH22mY9ibr4ImKc6cPWKSZX/FYJVyATK02uItkhV3xkJlihUIBu2QaCtauBPrWtljbUBa5rbJxccGh/xwLtg0FzeJbDMqQJAoJAISHA9xrFki+QfuEYzzR19UbxzveyY9BDLvK/0dF+VyFBIH0VBK6LQJ5YtOJ9PLH9VM/WYxufJQOB8Q79xXV7vvQj/5Gz+8sfIBuaTFpna7U1tkpxtmAYAe0sCghyxRasS0Qrw0HtV8LLBKu6KgiCVatJ1icwb20Ikmkk5vHlcB9+cb2bTsOq9XJPBHFb4kO8El/5LgjkJwJwFc7iXsP6epj4fpOmhRwaWeo507D2dFDgiKi95+doS6/SRyDxkzD9fae15cbdD5KbfP9VOfT32EFSLkQ2mbDopb1+EzkVlWkdt6A2YmLF7kB2/YFc6fqCYRCsJaLFc45fy3LjGKxauAhvBbG6ta2Obt1aQxthwTKSIFiXd83G6fzpXJR+cihM7w5Gib9LEwQEgTxGAMkyXCVCsc4e6xqyBT31xn/p3XgIPUGO/dTJZ7+Hkmx590hK/axkC0HgCgTy8qpu/ebeFrdF/wPvS+xChAx8Eo0FMOsayG5siWciJrFJQazCpIrjH/hGxgrti+Tq8s+aYKWnUZMWBC6Pm9Y2lNMtW2roxs01mmCtr72+izDRgTjz8CVYtB4+EtbWLWmCgCCQpwho6QYk02hXIYpCp5ehjJuaeh+6yI+QO/pC11M/gElMmiBQnAjkJdFiKeCtf7P3C/AD/iNgxzwJIVMeHy7pUrcGLsSGuMYWZAW0K7EQBDE1ocJbIpcZimBiixWTq8Xpz4gWL0vv5rasq9hX4qXWpkq6GQRr56YaumlTJa2p9GfsHXQIMVqPH1+gpxGzNRaWeK1lDZZsLAhkGgHOKuR4T5aC4YllYNJLpuEaPG9AqPrn/qj9zJHnJbMw00Ml+8svBPIqRusjaBR5/I8ejITtzeSoRixn2YfEjeO1WAuKs+tYzJSJFtdEhLVLTy6TnMs+Ly13WIeLCVk29bgQoM6K9ooJElufYnDtcVwVu/g4Q0dPIFdXEi2Or1oBUrUEtjIR4F4RoB0tVbSztVpPuzaEKBQErhludQFDZyH2T1n06pkoLYjmQ4YRlt0JAmkiwFZ1LqUDV6Eag8p7eq5CPjhSEtVvQLIemSXf77qel6D3NEdENisgBPLUohVHcMe3HmmMxcwf4dv3MaUXfKVAohBLlBTR4vWYcOl5nHzFSRg+837YMnYlYhxlwG91ekK2HyaddcOBRlwqiD8zmWKydD2ipUsL5Y8Vx+PzUtOacrpxUxVt2wCSBaK1aW0p+dzAIYvNAgRvDETpZ4fn6fCFmMRrZRFr2bUgkAwCHJqgRpFViJdYltTR97V0GmoW4v75jG0Zj3e7vB9I0Hs6IMo2hYjAlbQh785h6+69t4D1/C8QmX+PziVWjV/OGTCRygrRwo2JCVieN9PtosrKIO3cWEnb1oeotbmSbtwYovqQL6c9n0W81sunIvQI4rVYOV6aICAIrAACLBPD5bg4q/viBZ3RnGaDKR/ldBz1GLmsZzufuv9smvuRzQSBgkQgT12HH2EZCC0cmh3170OU1lqEbn0Kv2SPHC4Gnl+esZe9g+XH9cKuQS7yvKUpRNtBqjasC9EOuAZb6oPkzbL16loIBNyKbmty0whitp48sUAXRF/rWlDJckEgKwhobayxi1q6gYVIl5Fsw5oPb5JNe2yP+8nuJ7+blf7KTgWBfEagIHgESz54yPef8UYEyQdnYz4DWgh9M+AaZXK1cV05tTVXUDNchFuaQ7S1sYzK/PnDvc9O2rT3aJhe/HCBpiBsKk0QEASyjACHP8ygcsTIBZTmghUr/YB37ugFeCJeQTzFvhkVODggIqRZHjzZfb4iUBBEi8Fr272vyXYcxGup+/E1vXitfB2FHPSL3YLlCGpvWVtGW5sqqLG+nFpAtJhcVWYhsD0Tp8TU6hhK8zz0fpgO9kpwfCYwlX0IAtdEgJNxxkdRp5CtWKM6OSfNxnES3SBZT5uGa/+J7T0d9MADae5KNhMECh+BgiFaDPW2rz92s63sf0Ao1dfwNbkSPYU/RmmdgQJIXr+X6mpKNZna0FBGtfjMRGszgtorApnPGkyrowk2iuGW/SaC45lsvXchShwsL00QEAQyiMCSFYvL6MCKpUt1pR9Tish5eleRepQs9fLJ5+4dzGBPZVeCQEEikD9+oiTgqxtbd3iosu8XtqJqMMTPY5OC6n8Sp5j+KiBWHp+HKlFrcD3iq1oaSqm+OniJaDXVlKxYzFX6J4UBRpLjrQ0umlzwEgfJn7gYS1O6Zzm9kG0FgeJEQMdioQi0GgbBWp4VCwA5QyBYv3Uc5zGl/P+v4zmRbijOq0bOKlUECsqixSd3y+0P0qzH+21ILfxPfL0p1RMulvW5/A0LiFZVlFATVNm5eHMt6g1WVi4RrSCFCsRqlcyYcPFproXIxadPSSZiMpDJOoLAtRHgjMKZqXgsFixZy4zF4tTgTrwBPatso/2ky3dcpBuuDb38svoQKDiixUO09c59JY6L/taw6b9A+K6l2IeNg9fZDVhW5qO6kJ+aa0toTVUJvpfAgrVItEC22B1YCCL46Y7XyJxNz3VFkIkYpnPT4kNMF0fZbnUjoHWx2IrFbsJJZBSyWHL6jf2MbyFR6QnDsH/T0X4/IuilCQKCwOUIFCTR4hNYFDP9j/jIYqb1BT+sYEgGlOu9cP8FYamqKPNSbbmP1lX5YLXyU0nAR+WlHxEt1rbysF9tlbUBECyWfDjQtUBMvKQJAoJAkgigGoWamiAFTSyD1d1ZFyu9EjpLB+xT5LzsKOOpQHj+9UMv/jDJjshqgsDqQqBgiRYP06ZvPrrNZdk/QgUuDgZIORPRQIkeAzpSNlTbHURZI7YgK6OvoDLPVinTbZIb2X9er4sCfjeVBxBTFfRQTRnmpR7y+z06zioY8FKoFESrIk60QljHNAp6qDKKK7sOHzu2QP9yaoEmwtkZs4x2WHYmCKwkAks1CkeHQbIQ8A4R0mWW9UJgF72vbOfpqIte6Nl/36lsyhuuJHRybEEgEwgU+NPbQSbi4zc7hvPf8Wp2BwAJpgKKy+uhtk11dPPmKgogrD4WsyiCNLfwQoxmFyw98XfOdIui7l4MH/gzZCb0YYxFP51pKnKDsLkw5xI1Po9BJR6TAl6T/JhcTOhgrXJhcntAtDAtEa0QCJYmWiBTKyUQmgpm+bAuo9950dLxWr89ExGNrXwYFOlDXiKgFsI6yF0TLBYexfflNWcIbsJ/BdF60hezX5KC0MtDU7ZeHQgUeNaeopPm04c30/zPTIeCeAB/GcOWdL0YG6Z0njatr6LbbqinUq+iSNSm+QiIVjhOtKJMtLDjaMwB2bJ17T2L/0FbsjLx3AU3nhtEi8mSnycmWj4QLcxdIGHSMocAvx1sqTLp7u1eimBwXoPG1kxELFuZQ1j2VPAIsJtwmt2EQ3E34RwLtC/rb4RFtU4gq/CAY9jP14+sP3bw4G0FD5OcgCCQCwQK3KIVh6ht99MgQHP/RmciOlr2IWmRKANuvS0tNbT7K9voSzevoepggXPPXFw1eXIMJsBHIWi654Mwvd4XpTnIP0gTBFY1ApxNCB0sNQY3IbsKp6fiRe2XB8oIHhQHEVqx3/Z4nu1+8u7l7U22FgRWGQJmMZzvSEc7+bbffcrtxKbgzWvEOa3FlJQZieOyRifmaGB4hgy3mxqqAxSEJUpa/iPAYWu1AYPqMI0hVmtwxiYYJKUJAqsPAY7DCs+h+DMsWIN9ZKAQ9DKFRxlDfnU5hj+zxw1l/7ykMvLa8X33rz5s5YwFgWUiUDSMYgpka+0tX++KRdUsbgxMttZgSopswQpG45psTVOUTKqrikslLBNb2TwHCCyRrfqgkK0cwC2HyEMEWHTUgAXLGBxA+ZxzOrOQrNgye4pYLKKXcQt9yFLWT7rav39h8NBLy9ynbC4IrE4EioZo8fANHT1AoZu+0WFahLxlWocpebKFlSenwtR3YZpmEY1QU1lCVcj8K2ZdqmK55JlssVVLyFaxjKicR1IIcG1CBLirCyBYF/ozoOyuj4qMQvU+5vtQDPrhYOXCayd9eCEiAAAdE0lEQVQe+9ukuiMrCQKCwNURKCqixac4duw5qrjpG8eVZYeVMpqxqAFT0rFos7ML1A+yNToTpVC5n6qhZeUSaYWrXz15tHSJbDXAsjUFFfnBWRuB8nnUQemKIJApBLQe1rgu/mwM9mtrls4mXF6wO0dRDEAX6wVkFT5oGtGHT7b/YFisWJkaNNnPakag6IgWDyaTrTU37u50LGseWTJs2WJB0+TciFgxHI5S/9A0DY7NQygUelZQX/euQnHQQvvD0GQLRGtNqYEsRNIxW1DokCYIFAcC0PvjsjnsHtQEiyUb5pedTcjYTGP6I+6Qe0mZe7uU782R9nuLAzM5C0EgDxAoSqLFuA4fe85et/mOYzFFiHJX7EJky1bS5xuLWnQeMVt9Q8jgcbmpBmSrVILk8+CSvX4XlmK21paaFIYkx+CsQ/OYSxMEChYBJliz0zrAXRMsLp2DzEJChuEyW0w51IV97Mc98iGI0ezvbL97lBDvKk0QEAQyh0DSxCNzh8zdni50/sqp2nT7cWWoSVIGEy2ektZvsKGXNTI2Q2fOT9Es8m/YlRgKenFPyt05yJFSR4Dj6moQs9VYZmrdswtwI4rOVuo4yhYrjIDNFqxFgsVxWJxJCIsWSllkomMX8GfyCqjaw45BT3a1f/fYSMeOTOxX9iEICAJXIFDURIvPdbTrBVpz69dPWlFC1CjVYRFbt5LW2eJ9TE2H6cy5KRqeCFNJiUfXHvS6hG3l818Tj06V36AmkC3oyNIQLFuTiN2SJgjkPQJLFixYrrQFiwnW8svmLJ02uwn/5Ch6lJT9iKlKXu1s/w6W/VPewyIdFAQKFYGiJ1o8MJyN6Nvx7W4PRYcRs8U1EVlny5vKoHHcVt/gJLISZyimDE22Sv2u5KPsUzmYrJsxBCp8iprL4RQBMR6CZYv1tqQJAnmJwFIMFhMsbcE6n0mCFcXN6iQi5p92bPVzy2c+0f3UfcOsQShNEBAEsovAqiBaDCHrbNVC1NS2o/3IRgxgEZOtklTgtVCCZ+jiNJ2GdWt8LkYlfi9Vlvl06R1p+YtA0BMnW+UosXRxHgK18/FSSvnbY+nZqkJgsVyOjsFigjWSUQuWDZ3AXpCsl+BSf8RxWfu72r93bOzYDasKYjlZQWAlEVg1RItB5re30R1391da1hkybIRa6YzEslQHYHomTKcHJql/ZJYspOpUQgIiKNatVGHM6fp+t6ImWLbqSiD/gLqII3OoXbnsWOKcnoIcrNgQYB2sybF4kPsSwUJMFsGylaE27CjnVXKMfQbZ++ouNv/+0EtfFzdhhsCV3QgCySKwqoiWBoXJVudzQ/Xbj5+CGT2Ct721eNtjd2JKZqloNEbnh6boFKxbY9Dc8nk9FCrzkkesW8leezlfz4uxWYeYrXXISGSNrWGQLclIzPkwrPoDKmheqfGLcZmGC5BqYJmGzGQRLmGLiHn1Fu5ojxuWuSdcZr3Y8+T9Y2fP7lv12AsAgsBKILD6iJZG+Z9g3TowVrXr9h7ckCZg2arBwlpMKeHB+oCTU/N0qn+CeiEDMY+Hd1nQR2V+t2QmrsTVnMQxWQ6NRU2bK0w9RsNzthY4lSYIZBUBLvYMzSsDhZ51mRwmWKMjuj5hBmQalroOUS1iVff9UHd/OOZBHNbT9w5OHPlVVk9Ndi4ICALXRyAlYnH9XRXer6PHX5hu3HzHYUuZuOM5pTgDln9IKUiezzrKmlsQOO3pn6QLEDlld2IFYrcC3lUNb95eECz/UI2MxPVwJQbgUhxDzNY4guRZCkKaIJBRBHT81WS82DMLjULNXY2PkoosW8n98m5yisdxaGI9Yyva47jdD3btv6eXhZulCQKCwMojsOqZAGtt1e74dqejYr0oPwF7h2KylXLcFg/lDMr3nO4f1+7E0ekoGS6TymHhEimIlb/Qr9aDMgTHr4dlqxaaW6yTNopAeSnbczWkZFlKCMDUzYWe4/FXKJPDBIsD3LnYcyyKXWWM0aP+gdOFox2AdXaPoez9nc/cd2T0+K6UuisrCwKCQHYRWPVEi+HlIPmLd904UD0a+hD3QDa/syuxClPSZXuWholFTkfHZ+nDvjE6PThNE7NR8iB+qzzgkezE7F7Lae2dZR9Y/oEnPLCQlSjipmkBKRvpIHY1h0IUcAlqaQauRXhxWC/LYIA7I60JFl4Kf6XIeNTlsp7saOt9e+Qnf48DiR6WXIqCQL4hkFIAeL51Phv9abnz0Rq3i76Ep+7duJl9DscoX85xKioCtHNzLX16ZwN9ansdtTQEySdip8uBNCvbso2hd9Km356O0L/0RKhrLEYxyUrMCtZFt1O2XkGxnS1W7CbU4qLLL/J8NZjYHHYa0+8RV/o7pZw3O7af6aMHHrjaurJMEBAE8gQBsWhdMRDjnQfmgp/82jFXVJ1BzAMCLBQHyVdgSouU6gLV5yaos2+c+oZnaWIubuEKImBe9Lfy5K9gcXBZ3LQlBAkIBMtzNiK7EqUodf6MUV71xMKtgesPIrhdsf6Vtl4he5BL5CAuK8MtgntRN9TcX8QL4GPKbT/R2Xb2jZGf/LdJOngww4eS3QkCgkCmEUiLPGS6E/m5P4e2fmvvehU1/52t7G/iDfIW9DMlgdMrz0shCru6upR2bqqlW7ZiaqulTbBwlXhS9lBeuWv5nkEEOE6r42KMXoF163dno7B0WRIon0F8C3ZXDjIHwwhiZ+sVW654zsQqO9YrhgkHA8EiekM5zhvkdt7qtAJnqf2ugoVQOi4IrEYEhGglGPXW7zxO7ojzJcexv4G3yS/DrtWMTZaFG28cqgzS9tYauhmE6yZMW9aVUYVfDIwJhiOnP3Mx6j/0RenlUxE6MhSTwtQ5RT9PDsYaLuwahPWKCzxrYsUEC1INGY67uvyEoflAJx1y/oAYrD/EbOOdnl09A+IizJNrQrohCKSIwLIIQ4rHKtzVEQPRenJ9iztmfMVWzp0A7ZM4GZaDWHYrKyuhzRur6cZNmDbXUNuGSqorEx2uZQOboR2E4UI8PmLRr0G2DvZGqH8aFU0yljSWoU7KbjKPAKu2I4idyZUmVjzNgVxhebYaLiukJTrH8B73Ju4xbyCL8L2O9u9dWOZ7XfLd3f00tSEXCHY7Mhav8RhroaCVhsJ06KEfJr8vWVMQEAQuISBEK4WLYde9jxLkbz6vbOdO3Ie+ivtRCzbPiBnK7/dQc2Ml7Wqppp2tVbRjUw01V/uJS8dIW1kE+JlzHgTr97Bu/QbuxKPDMZpGGR9pRYZAFHWX50GuWKWdrVezIFewZFGEk/yyNt684yHEXx1mgoXPb6mY87vOA/flDNxb/u5BCo8HoP+HuDPbIJTtgfHeQcq1IuhyQWKQJ3zGMmtuknp+/aOc9U0OJAgUAwLyFE95FB3a8a09jbGo+VeQFr+dHBuZiaou5d1cYwPTNKiutozaWti6FaJtsHZtaSynWli5pLrPNUDL0WIOkD8B69a/no3Q6yBdZybwaJLMxByhn6XDXE6u2D2oJxCt7MVdLZ0IIuZVn+M474LRvOVY9psuM/BuR47jr7Z87WFSHlc8FgKEilkfG7E0rQS5YpbFROvSchBOn+XQkefvz9KAyG4FgeJDQIhWmmPaBjN7LLZwg+Gyv4pdfBV3opswz4g7calLQYidNjdV0bbmCtq2vlKTrpb6AJX5JHg+zWHLyGZctuftczF69UyE3hmM0UV8l1YgCLBlSrsFZ+P6ViBVai5n5IpBAoujLliI3oE88juWQW87UxMnV8JKdMvtD9KMz6fdhJpYoUG0GUQLlitz8ZqOMgnDrwqWLmDHZavYssXKvl0v/GBxK5kJAoLA9RAQonU9dJL4bePuB8lt+W7DW+mXcYOC/pZqw2a+JDZNehXDMKiqKkibNlTTtqZy2oo4rk1NlbSuEmV+PDKESQOZwRXZknVq3KLXELf1Wm+UTo5aNA91eWl5iADXGeSSN39GrhaJFgLds+gWXAKDqcww2MoHyF5+B265t+GSe797+5lzKxngvnn3PpAsvn+wo3DRgIXrWtfHQOatMoCb7aIIW7FQJDTmwLXIti/8z+K+Xe33Yiu5/+ThFS9dyjME5K8kQwPCQqcu0/ksXgb/Gvee27DbTZg8Gdr9pd14vG5aU19Om5orqWVNKbWCcLU2VgjpyjTQSe6PC1JzzBa7Et8cYHeiTVEpmpgkellcDaVu1Pw8EbIDtfUKsVdxooWAdi6Dk72Yq8tPKoz7wRncDw6BWL2Hm+07EQq/dbp95YPKt965D0QKBGsx2J2tWhZbrECy4q8Llz0asNy2UYTdFUOkBCK3mGuxUQsnderAd7M4iLJrQaA4EBCilclx5OzEo63rTBX7LPJ2vgiT+1/ihZED5jNOuLjbXp+HGuorNNFqXQvS1RiiFkyNVV5YusS9mMmhvd6++ME0DCmI9+BG/EN/FG7FKJ2fsUV763qgZfo3bbWCdWqRWNH8XDxLkL+HQbggMJqjxpfDCP5B9qBzyFDqMFjKYWUEPsx1/NX1znfL1/eyNxB8kx8BioJV8zQ35l+0bfGWbITDb9qviDsZPpqE3535y4iYRZ3P3H+9w8hvgoAgoP/CpGUeARCubUc3NTsq+lm8/n0ed6q/BNStOFBWCBefQJx0lWuytRFxXM1rK+JTjZ9CJS4JpM/8KH9sj4gRpv4pi94aiBOu96G9NYr4LX7ySsswAkuxViBUFAapYmLFn5lY8Tw3LsHLTwqmMsXlcd5H1t5hjPkhN0XfONHOcUz5d5vdtvvRuFEPpimOxupuv4+2/Q2W8X/MrbDUghULVnrde76GvX6FrOvFq1mv41DXM9/L8MDK7gSB4kPAVXynlAdnBKJ1EqXzEH/R23Ziwx9xq/oMRKU/hzvWZ9C7rZgCme7lQjhCZ8+O6MmDLKLq6rI40aotoeb6UmpeF9LzhnKPSEZkGvzF/XFW6HoUp24ImnRDnQuEK0pvwbp1bNiisbAEzC8Ldk2s4A5cYHcgSBXIlZ4vES3OEkRR5xw3NpOdgx/tKCxDRzD8R2Km/YHHLjn1kfXqP+S4S0keTvMlzZbIuEKgRge8K5M8IGF6NXxn+3hlfyMN1PWSGUOkFpbBap/kwWQ1QWB1IyBEK5vjD8LVQcRFX/u2dDb+QUXdt+Cm/GlNuBy6ge9d2Th8JBKj8+fH9PQn3BFLIYrayBauulJqAvFqrC+jtYjzWlvlp5pSN3mlyHVGh8GLB1dbtQnSZdCtDS56+3wMU5SOC+FKHuclixW7/dhipefz8TkTLCZcma8pmEz/mHtcxN/wSfwNf4BuHjFs84gTixzuLKAsPNbKYhbF1qponE5dOnc+QZT8iZuxsIKDmEPOPDx48DaUJduzuB67EzUNkyYICAIJEBCilQCgjPwMwtUFzUvs6/zOu594JRaOfgZ50mzd+gxuVVxDcQ2mrLweckr21OQsneAJrI+tXVVVpXGiBUFUJltrQbzWMfGqLqHqoIu8ItiVkWEvgdgsW7Y2VZr0yTUuekcI17VxhTVKZwZyLUGQKF1TUM8XiRZbrFaGWOk+4+90ApyjC39Px/G3ewzqnkfdXnfH8S3dQyuZOXhtQK//yyLP0hTLjF1x62Fytbi55lJ4WYs7EGHpWoDcgwtjxURMmiAgCCSFAL/QSFsBBFjDZt7nuRFxEJ82lPMJOJZuxmBwHFcwl92JuxlBvBrKaV1VCa2BZER9TSnV8VRZQnVwNZZ6Da2fI215CMxB/qF7zKJ3ETR/GNOxkRiNIIZr1SUpInBda1kxeeI6gmydArFammuCxTFWuXcFXjnAKGxIp8ApjiOo/biF8jgw/p7wh8J9hV6OZsvuPSBLiwQLJ9j5LMdoPQZCtUigXDa58Dka5SxD9hMqCgcs8s2wn3FxHUTIdz4rWYdXXjTyXRC4EgF5fF6JSI6/f+ELr9FQ5flm24jdiLfEm3FDuxlduBFTA6aMlPdJ5ZSYeIVCQajTl1L9ItGqAwGrrymjuuoA1VX4qCro1nFecvGkguxH67LCPMtAvH8hSocRMP/BkEXnpotUZX6JVDFxArFaIleXf9YEC/FXOZJcSDRomlyBWcD+a5+AJafDMmHFmpo6tRKiook6m+7vbdDQWiL42qqFP2YLxIltV/zdgH5W3dgaGqrux3dO6EBEFsbS4VTFxT98y7bow+e+n24XZDtBYNUgIM/KPBpqLodBbvetEAq8GXc0tnDdhJveFnSxfKW6yW+zJQEv1TDRqgLRCvmottRDVSE/VcMFWR2Cu7HcB5ejm0qhWC9ex+RHKgrDzgCyFI+AbHGGIhOus5MWseWr8Br6HINLKQpCxaSKLVV6jjqBTLAuJ1qsY8UELE8aes5uwR5NrpRzElSjA3m6HbOBWM/ZvffnSS8z3A1UttjiYFywW3YDxvW0kEzgmFqodAH/sd7XVli+mGRxrUMmwpqKxT9CEkIKTWd4VGR3RYqAEK18HFjcBFutyDq3snc5hrMLd7YduNPtwB2PNbly6lq8GjwG/IiBgI8qF4lWDRMtBNVXl3mpqjKgp4oyH4WCHi0tEYTrUQjY1ZCML2PLwhB0uE5ctOg43InHIYDKSvNc2ifv3IocmwNNKsUECu4/Tah4vjjFydVlRCuKxDyk3OZZ4/TEEXCGbpxON6hDF94nTsYs+6QzP3O6mCxX18O9DSTK5tBQDA8/CHQBaXyPqDmQrL/DEkVcaswmZHgyu+KV+B0AoNm4B7AkhDRBQBBIjIAQrcQYrega67+3h/zTUJk3DCZaO9CZHXj/xFytx+eSFe3cFQf3QrU+FApQJabQEtEKuKiCCVc59Lwq4sv5e1mJGzUbIYEIF6TEf30E5EzEodMoVs2SEJp0YeqdsnNb3ofJFALPVYwJFKxPLKtw6TOWser6lUSLrVQrH1N1vT8HVmmHFAN14++o2zacLjjIuizL6C6vnh0o9Jir65349X7bAj0tdhfqtjjjOYdlMfG6ZMXSy3gFLERAQ+d+IVnXw1V+EwQuR0CIVgFdDxxAH/YF2mJ2bAcGbjvufG24723FjXE9TmPFLV3XgtKNuK/S0suIFlyP5YtEq5TnpT4qK/NTGYpolwUQfI9lpSBhQegk+EDEVqM1jGspspWr42IMEwr4wsLFgfSDUJyPsDLqchpn+LFSOmfx6TlIkiZWPF+cYIm6KtHibfLPQnU1NNiMNoa/kTMwC36ITvcow+hRNnXHPK63u7d0UyFmC17tRJe7bMe3f0kxEGe2Zl1NsoEfEgwmhxE4ZpS6nmIRVmmCgCCQLAJCtJJFKs/WY5M+2XPbcQPcijsg4rh4cjieizMXWZ+rIMbW7XZRgAnWZUSLrV2lfpMCIFp6KvFoV2UJ5kH+7HdTwIeAfPzmR6khv9vQhMwD0xi/iRdbm0XMVt8kGAKIVtdYjLpBuj7E52G4FpmQ6cYxTwhOVmxV0hOTqI/mf06sQKKuR7R4O7ZqFV6DOjv1w8t1GsYXZAs6PciX7XFcTk9gLtx96MWVrzGYt5DGwxXIZcQLR8flHOI+RYX6ho7bovoL67WWljRBQBBIDYEifCylBkAxrN361f9DZrBiA56sIFrGFsNWW2zlbMbgMumqx+Qt1PM0TJAo1HRkMqYJF5MtEK0SEK0SJlpMsphsIe/e54EFjAmY36O38XmhCQZrmscNlWtMbqzrceGzC3N8Zr0wN7ZzgaDxhENdmufqD4ONUzH8w4Qpijlbq2IIzIpaKE6N7MQoflhAkHkkgnnUopEZWBSGI3TsfJg+HJqjqRm48kCwNKlKimgxiVpiZ4V6VVzqN/QhaBDTGcB4GvYWTMYZSzmnUUDmnZ7tfWK1KvghlhMQBAofgVw9TwofqUI5A7yZttFsfYyMVijgtOKtfiPsPBvxdMVEIGNUjakohWpNMCWOE7tEtHwgWZcRrTjBWiRaTLZAsjwgWy5MpiZbi0QLfxW8LxMLXKap54rT2tE4EYB/43nCxkHDIE0WSJPNnzFHwLWeWyBG+jcmWJgvES0mW0y8mGhFmGjxHARrASmKCxEQLrj0eB4OR2lyOkxzc4tEqzAtUAkhvGIF6ECoQSSG9ALQXgxKL9zmZwxlnI4p+3RpKHxutcZapQqkrC8ICAK5QyCJp0XuOiNHyjwC8biuklbLdlocw94Ia9cGuFY4e5FJVxOmEKY4i8j84Qt2j5poYXLBAsZz5Lzrc2GC5dLEK4k/HZAfLl8Sg1uPSZWNuQVGxfMYrFS8TNo1EWBwZjChooLTB1dWL+a9GIU+aDmh4J7VG/ahtGexyi9cExb5QRAQBAoNgSSeFoV2StLfayPg0MbdD5GHPDsdx9iIOJxmEIZGXARNeKo1YjsmXjWYPNfeh/wiCGQFAUTh00Vci/24Fgfw+RxeCPqV7QyAr/ZZ5Or1mJ6Bj4o1Z6UPslNBQBAQBDKOgBCtjENaSDt0qPU7TyC7zN5mWjYIl2qCJ6sJAoaNMNkw6VqLiRXqSzHJtVJIQ5vffUWkPo3jijqPNLdBxFadx3V3DvIBAwi8HoD+OOZ0tNPlJ2q/K7/PRHonCAgCgkACBOThmQCg1fbzOsR4Bc3Z9UbM1Wg71jqIXDXA8rUGD8QGkK81cN8w8RLytdoujPTPF+qlNIppCFx9CL7UC7iOzkNp/DwZznll6/ngXMDuEzdg+iDLloKAIJC/CAjRyt+xyZOexa1erpi1GQqGDQgsWnOJfJGBjEa7Fg/OWgQl16LDLCtRsBmOeQJ4oXYD6YzEdQKHYakagrzCEFx+Q9BlGkI427DjqCHUygPZ8gyWRGd6RWqhUIdZ+i0ICAKpIiBEK1XEZH0gECdf7nB0k+2oWkOZNY5h1eLBWov0esR4OTWIs8FnEDB8xgYVmHwCXVEggMw/CIHGrVQcUwVrlYPJuGg79ggyAIcR5D9kKmc45vGcWDPYINpLRTHschKCgCCQLgJCtNJFTrb7GAJf+MJrNFJzyhsj73oTpAuuR7Z2sZxEFaYQLrZK6HtVgoBVwhWJbEdHL8fEJEyuxY8huiILOH6KhT8nMCITGKdxR9kTcPWNY9kolo3CsjmqDOciWc6oYbouKpcxGp64OLRaagSuyKjIQQUBQaBgEZCHW8EOXQF1/IEHqO1EGxnmTKNtqSrUlwsh8BluRqOS5wiEDkF7uhzupTIQs3IER5fDIlYGwxm+Y4oH47sL6Izztavs3kOFYJq+NCmahptvCniDTNEEMv0mQITjc5vnsQnbco27XDaIlr+vY3uHiIDm6+hKvwQBQSAvERCilZfDspo65dC63e1gU7P1tmGUOTFVZiq73CajnEmWY9uabOHhzwQsCFdlADE/ASwLgBgEQBACIGT6O3/GBc2FtleLPAVrTaEMNc3jvNkKNQcc5oDHHJbNxZc5IFYKxMpB/JSCLhU+K3saxeswV9OQT5iCxMe0ZagJf9Q6UzEhZVZW01+fnKsgIAhkHwEhWtnHWI6wXARgEdt1aiPZMVfdwkI4YJogWxbIFRlBlGED4XJArowgEzBIhJaAZPgMh3ywzvjg+vKCfPhA0ny8HF3hiQP2mYzxBEuZA6V8xRYzVszn75jU4me9zMS01PhvhpclI/LKtW7YFceEiBvPofdOMeyEl0cR1xZDv/kzV2uGlpTSyzEtoN8L6P8C+s6ZewvQN13AumHshX8LxwmWM+8oNYfsvTn0aJbnwGDeNpxZ0zLmbBMEzIxMg36d7/JCpUPkEngcpAkCgoAgkDMEhGjlDGo5UM4QgETFLeFxCvtMb8xUVXZEoQyix+fYlhfEzOdYIF5KeVDKxQ3i4oaVDMTJ9iAOybX0HS5NN8iMm5chc+4jUuWAziisD8XXhOejoAblOFyllwlXvOE7iFEUCv2Yw36nQKwcOwq18xisd/iOqr6ovKMMFUadHhArY4EMayFqmAsofLigTMxd7nOumItqR2ok0DzhIMgKgoAgIAisLAL/H/TFHrgtx4bYAAAAAElFTkSuQmCC;" vertex="1" parent="4">
                    <mxGeometry x="350" y="129.84" width="40" height="28.7" as="geometry"/>
                </mxCell>
                <mxCell id="6" value="" style="group" vertex="1" connectable="0" parent="4">
                    <mxGeometry x="20" y="50" width="70" height="89.68" as="geometry"/>
                </mxCell>
                <mxCell id="2" value="" style="shape=cylinder3;whiteSpace=wrap;html=1;boundedLbl=1;backgroundOutline=1;size=15;" parent="6" vertex="1">
                    <mxGeometry x="10" width="60" height="80" as="geometry"/>
                </mxCell>
                <mxCell id="3" value="" style="shape=image;verticalLabelPosition=bottom;labelBackgroundColor=default;verticalAlign=top;aspect=fixed;imageAspect=0;image=https://upload.wikimedia.org/wikipedia/commons/thumb/2/29/Postgresql_elephant.svg/1200px-Postgresql_elephant.svg.png;" parent="6" vertex="1">
                    <mxGeometry y="50" width="38.46" height="39.68" as="geometry"/>
                </mxCell>
                <mxCell id="11" value="" style="group" vertex="1" connectable="0" parent="4">
                    <mxGeometry x="200" y="59.839999999999975" width="140" height="70" as="geometry"/>
                </mxCell>
                <mxCell id="9" value="API - Server" style="rounded=0;whiteSpace=wrap;html=1;" vertex="1" parent="11">
                    <mxGeometry x="20" width="120" height="60" as="geometry"/>
                </mxCell>
                <mxCell id="10" value="" style="shape=image;verticalLabelPosition=bottom;labelBackgroundColor=default;verticalAlign=top;aspect=fixed;imageAspect=0;image=https://midu.dev/images/tags/node.png;" vertex="1" parent="11">
                    <mxGeometry y="30" width="43.16" height="40" as="geometry"/>
                </mxCell>
                <mxCell id="47" value="" style="shape=flexArrow;endArrow=classic;startArrow=classic;html=1;" edge="1" parent="4">
                    <mxGeometry width="100" height="100" relative="1" as="geometry">
                        <mxPoint x="110" y="85" as="sourcePoint"/>
                        <mxPoint x="200" y="85" as="targetPoint"/>
                    </mxGeometry>
                </mxCell>
                <mxCell id="17" value="Web UI &amp;lt;Docker/Server&amp;gt;" style="swimlane;whiteSpace=wrap;html=1;" vertex="1" parent="1">
                    <mxGeometry x="480" y="40" width="640" height="540" as="geometry">
                        <mxRectangle x="520" y="40" width="180" height="30" as="alternateBounds"/>
                    </mxGeometry>
                </mxCell>
                <mxCell id="26" value="Editor" style="swimlane;whiteSpace=wrap;html=1;" vertex="1" parent="17">
                    <mxGeometry x="40" y="320" width="560" height="160" as="geometry"/>
                </mxCell>
                <mxCell id="14" value="Mapas" style="swimlane;whiteSpace=wrap;html=1;" vertex="1" parent="26">
                    <mxGeometry x="20" y="30" width="300" height="120" as="geometry">
                        <mxRectangle x="20" y="30" width="80" height="30" as="alternateBounds"/>
                    </mxGeometry>
                </mxCell>
                <mxCell id="19" value="" style="shape=image;verticalLabelPosition=bottom;labelBackgroundColor=default;verticalAlign=top;aspect=fixed;imageAspect=0;image=https://leafletjs.com/docs/images/logo.png;" vertex="1" parent="14">
                    <mxGeometry x="115" y="47.44" width="170" height="45.12" as="geometry"/>
                </mxCell>
                <mxCell id="25" value="" style="shape=image;verticalLabelPosition=bottom;labelBackgroundColor=default;verticalAlign=top;aspect=fixed;imageAspect=0;image=https://upload.wikimedia.org/wikipedia/commons/thumb/b/b0/Openstreetmap_logo.svg/1200px-Openstreetmap_logo.svg.png;" vertex="1" parent="14">
                    <mxGeometry x="15" y="30" width="80" height="80" as="geometry"/>
                </mxCell>
                <mxCell id="30" value="" style="shape=image;verticalLabelPosition=bottom;labelBackgroundColor=default;verticalAlign=top;aspect=fixed;imageAspect=0;image=data:image/png,iVBORw0KGgoAAAANSUhEUgAAAZAAAADICAYAAADGFbfiAAAABHNCSVQICAgIfAhkiAAAG2NJREFUeF7t3QeYVNXZwPGXZZEibeldRVAR42ciiYkoIIgiihTF3olSggUVBTGIGhMTKzYUBTUWRAWiib3EgqioaDRqEqRKR3rbBRa+cwZnuHPmzJ47Z8oO6/88zzywZ067v7nPfW89t1KtosY7hYQAAggggECKAgUplqc4AggggAACEQECCCsCAggggICXAAHEi41KCCCAAAIEENYBBBBAAAEvAQKIFxuVEEAAAQQIIKwDCCCAAAJeAgQQLzYqIYAAAggQQFgHEEAAAQS8BAggXmxUQgABBBAggLAOIIAAAgh4CRBAvNiohAACCCBAAGEdQAABBBDwEiCAeLFRCQEEEECAAMI6gAACCCDgJUAA8WKjEgIIIIAAAYR1AAEEEEDAS4AA4sVGJQQQQAABAgjrAAIIIICAlwABxIuNSggggAACBBDWAQQQQAABLwECiBcblRBAAAEECCCsAwgggAACXgIEEC82KiGAAAIIEEBYBxBAAAEEvAQIIF5sVEIAAQQQIICwDiCAAAIIeAkQQLzYqIQAAgggQABhHUAAAQQQ8BIggHixUQkBBBBAgADCOoAAAggg4CVAAPFioxICCCCAAAGEdQABBBBAwEuAAOLFRiUEEEAAAQII6wACCCCAgJcAAcSLjUoIIIAAAgQQ1gEEEEAAAS8BAogXG5UQQAABBAggrAMIIIAAAl4CBBAvNiohgAACCBBAWAcQQAABBLwECCBebFRCAAEEECCAsA4ggAACCHgJEEC82KiEAAIIIEAAYR1AAAEEEPASIIB4sVEJAQQQQIAAwjqAAAIIIOAlQADxYqMSAggggAABhHUAAQQQQMBLgADixUYlBBBAAAECCOsAAggggICXAAHEi41KCCCAAAIEENYBBBBAAAEvAQKIFxuVEEAAAQQIIKwDCCCAAAJeAgQQLzYqIYAAAggQQFgHEEAAAQS8BAggXmxUQgABBBAggLAOIIAAAgh4CRBAvNiohAACCCBAAGEdQAABBBDwEiCAeLFRCQEEEECAAMI6gAACCCDgJUAA8WKjEgIIIIAAAYR1AAEEEEDAS4AA4sVGJQQQQAABAgjrAAIIIICAlwABxIuNSggggAACBBDWAQQQQAABLwECiBcblRBAAAEECCCsAwgggAACXgKFXrWohAACCIQUaNSwoRx4YNtY6XnzF8iiRYtD1qZYPgtwBJLPvw5jQ6ACCHQ9prO89OLU2Kf/qf0qwFKxCFqAAMJ6gAACCCDgJUAA8WKjEgIIIIAAAYR1AAEEEEDAS4AA4sVGJQQQQAABAgjrAAIIIICAlwABxIuNSggggAACBBDWAQQQQAABLwECiBcblRBAAAEECCCsAwgggAACXgIEEC82KiGAAAIIMBfWHr4OVNu5U5rvKJWGO3ZI8507pLb6rK5UICsrVZJ5lQtlaUHlrCxhkx/7/KGgIGt9lDXwAw9oK7Vq1ZLFi5fI0mXLyioa+a527drSvFlTqV69uvznv/+TzZs3O+v8VAu0atVSWjRvLvpfbbZx40ZZvnyFzF+4UL744suUWXYaNSql3AIV8lWAAFIOv8xR20rknK3FoXp+aa+q8vcq1RLKti7dLoNLNkuX7VsTvgtmfFtQKOfVrFtmmTBf/t/2bdJbjfnQHdtlHxU8zPS9ClrfqID14l7VZGbhXubXKf193YjhclTHIyN1vpszRy674urI/xs0qC83/P46Of/cs+PaW7BgoYwYNVpeevnVhH46dzpKdHu/+fURcd8tUoHnby+8KNddPyahTjoZx3TuJN27d5XDf/FzadqkiTRs2EAqFxbK8mXLRff55ZdfyUcfz5TX33xbNm3alE5XcXVf/vu0UG0tU8H2oosHJ5TVwXjokIFy+aVDpEaNGgnfRzN04O3Zq5/M+vyLpGWy+cUtN98gPz/ssFgXxcVb5PIrr5Hvv1+UzW5pO4kAASQJTDazG6ijhsNLt4XqYlap+omq7C6q9/yHFm+S4x2BI1qj0c7EjX2ojn8s1F0Fu4Elm1TQ2FFmtZbqyKelGpMe1zIVTCZWrSHTVDDxSe3aHagCyG8iVWvV3Dvyb4vmzeTtN1+RJo0bJzS5zz6tZNKTj8mYm26RO+++N/b9jTdcL8MuH5pQPtre0CGDIhujc86/SFatWm0tFzbzvHPOigQ3HTBsSY9Rfzoe+WsZPOhi2VJcLM9PmSajx9ycdt/VqlaNedn6DubNVzPhmkkbXTXssshRmivp4FInRDlXOz7f33P37XLBeefEqmrD0888l+Dhg5mhOlwDyRBkKs2Yh/Rl1Q0e7tdRG/Fxm9aFDh6RdlPpLDAQvWdxzZaN8sctG5zBwxx/ExVMriveKNepugUqWKaTotWnTZlsDR7BtseMHiVdOh8dyRp57dVJg0ewjt6g33PX7d5DbNmyhbz/zhty3z13Jg0etsarV6sm5559psx4/+3I0Uqu0k7j97jz9ltFB9owwSNXY7T1o33jgseWLXJK/zPlnXfftxUnL0cCHIHkCDrYzQfqFM+gGva9vf3VEcZwdYQRTdH9fn2tY+yW9dJCbZzN9EnlKrJCXfNYoa531FDlGqio0VC101ad5hKPE871VaD6i+rrUF0/kOar9v+pxv5pYRX5Xv1fX19ppvppVVoqR5RulW7btkrTwPj6qqOX5qqta9WyblTj8016+m99zWPDhg3ynNpr/+TTz2THjp3S6aiO0q9fb9Eb42gaePEA+erfX8sVgSOPKdNekBkzPpQ1a9ZKJ3VK69R+faRmzZqxOr1O6hk5OtCnwlJJv/j5YTLl2aelfv16cdX0uy6efubZyPWZFStXSqnyaX9wO2nbpo0c8asOsv/+rWPl9WmuF6ZOlm7HnSj//d/sVLqPlS0uKZETT04+RfqjEx4S/U4OM115xaXy24suMLPl319/o04dzpWlS5bKZrWh1tdBGjduJAcccEDk/7lOOnjoI7xo0qfR+vU/S2Z8+FGuh0J/hgABpBxWCX3h+YcC+3WCHepaQzBFN7v6SKB9YIOuA8aD1faWtwqryuYyNs77GkEgzOLetXm9tFPXOqJJX24eU72W/LNK1YTqS1QQ0Z+PquwlY9V2vJ+6TjJSHX1E06/UqbpR6u+Rqr5PatK0sVw7/EpZufIHOblvf/n6m29jzUxSG+nb7rxbnn7iUTm43UGR/BN79pDKlStHgoresJ51zoXy5ltvx+o8P/VvMv7hiTJtyjPSuFGjWP7QwQNl+IhRoYeo23/isUfigse6detk2NUjIqemzPTqa2/EsvSRx6jrrpFmTXdtjPXe/+Sn/yqHddh12s6sG+bv96fPSFqspLgk4bvTTztV9BFbMN019j558qlJMvu7OQnloxlFRXXFPIpJWjgDX5jBQ1/Q73PKGTLzk08z0DpNpCvAKax0BXNQX190PzpwzWOq2pCfWrNe5OJ6WcFDD22+urCdSuq/dUtc8NB1r1RHELbgYWt3qrrucVP13Xv3usyxavyHGIHRVteWp695HNC2jfQ77ay44BEtO3fuPLnhxj/EVe1xfPfI31epjXkweEQL6T3sq4aPjKvTpUsnW/dJ84ZfPUz06atoWqz21rt272kNHmYjT6iNdMdO3WTt2nWxr1q33k8GXHi+WTQjf1cK7GBE/3+XOnUVTToo/7pjl4hjWcFDl9dHccFxZ2SASRoZd9/YuCOP9evXS68+/QkeSbzKI5sAUh7qKfZ5ZGDje5s66viT2pvfUsZRR4rNxxUfWBx/e+vEvarLZyneVaUD27tGnaHqjrHQybhs8t770+Vf/0p+++jrb7wly9RdTsG0es2ayGmkZOnlV15TF69Xxb7Wp2hSSRecF38n2LkXDHBufIPt64v21468Pq7LARdlJ4CYy6VPo0VP4b33/gfq9FlP+ebb/5jFMva3efIyzFWxiY88KGefdXpsDOvXb5ATTuorn836PGPjoqH0BQgg6RtmvYVOPx593KPubHpWbdCzlbqqI4U6gavua9UFlMdVnz5pnFFP33XWwHEnV6wfY4vzwIMPlzkEfUplxkcfx5V5aPyEyLWHZGn79u3ywYzd59Dr1qkj+m6mMElfj2nQYPfdVu++N10+/XRWmKpxZSZNfi5yXSeaDml/cOTW32ynY7t1jXTx+ef/kpN6n6KeidmS1S7NgGEGFLPz8ePujVyniiZ9arBnr76Ra1uk/BIggOTX75EwmpPVRr2xujCtn+d4wnNjntBokoyeqq9gmlithvMUWZKmZI46dfaacRQSPA2XrJ4tv6zz+9Hyq1fH34b7oRFQbO1+vyj+2YGGjRIvNNvq6Yvdtes1iX169TnVVixUnrlRbK+CSDZTk6ZN5OIBF0a6GHLpFdnsyqvtRx66X844vX+s7urVa6THiX3ky6/+7dUelbIrQADJrm/qrRu3WergodMDVbN35KHbr6n66Wg8W/KqukCfTnrdCCCdjQAVtu3gXnqyOuZzHGvVXqsrLVq0JK5IvXrxd1O56mfi+6++it+rNu/oykQfwTb0UVa9ekUy+dnnrdeUMt1fKu3p4HFa/1NiVXYFj955N85UlqmilyWA7AG/8GL1YN5HKV6HSHWx2qvrLMHL7evU6as16m6xdNJc4wJ+O487wvTpizBJ350TTBs3uJ/yNusUFLhOroQZSWpl5s6fH1ehbh377d2pteouPe6hR9yFcljCDB7LV6yQ407oFZl2hpS/AqndopO/y1GhR/aMvu6RpYvmUbg6huBsdStsummRCiB6opXoDctF+vqKPsJKYVn08x4+aZvnXV8+faVTZ4d5XSgFG99+9bWP8pqKxDbmiQ+Pk1NP6Rv7atny5ZHTVvoOO1J+C6S3i5nfy1ZhRvdelo8+NFRtY0M2J0OTMAbb0fv39S0PQib8UMGYEfKgIHirqm6vIMSG2AxNlXyeukwYfGoZBeroMphyMYaXXkmcMyy1UadW2vwJo+4F6gj3qb9OjAseS9Tt0Mf16EXwSI243EpzBFJu9Ek6NjZ8+ubXJRk4GkjSWyy7pjHnyU61MT085HxbZbW9MbKB3H03lJ4HbPfNs0lqBrY4O0MegZhHKqXmnr2lq8QNmxlSLJVCZum7qVq33leKiooiswbXrlUz8u+uT031967/t227f1yLO8ME2JBjiBYzH/zTz8HkMpmqUfdHxj8gehaAYGqmnnQfq+a86t33tFwOkb48BQggnnDZqlbJ2JAvztCRgGu85sb0jG3Foj+ZTkV6w57+2bFMDyvt9vRtp12P6aKm+2gj7Q46MBIo8jXNmze/XIemZwp4bOJ46dfnZOs49IzGgwb+Vh7Ms+s01sH+xDMJIHm2Ahg3Ycka4xRH1oZrdpyljgrD9BPYZa0U8sK2eQG8cogbABL3jM0wWjaCPm2mN4Ij1MSN+tmQTKRKWfi9zdN7q4xbnjMx7rLaMFV/P2pEWcUj392kJnh86+13ZPbs75xlKVB+AgSQ8rMP1fPaUKUqWKE94BSWvhV26nOTRE+oaEv61uP/qY3fevWvnouqZGuJbC3ZKiX6o/6/K2+r6IcHux+768E+3U4uTmGtWLHSNuSs5ZmBOtiRfgK+T7/TRV84f+6ZJ+X4446NfF1NzTX28IP3SZduPbI2LhpOX4AAkr5hRlswr/1uCLEnnZEBGB2PVtOlvGKZPDEjfaXQiLn3nKyq6Ra2XrL2XPn/eGFKZOMfTPqhwFv+9BeZNeuLyAYxTBp4yYC4AJLKHWph2tdlghbmrcth28hGOX03WO9TTovNrfW7S4fJZzOnSx01K4BOOjiPGnlNxJSUnwLchZVnv0vCGZ6ydt8yOHbzvYbmXVkZ7CqlpsIGArOc+XdKnToKj7jmqoTgcenlV0UmSNRzbIUNHrobc5zm346hhPvajK7hamW1lJ5d4AQ1PUlwYkY99f0QFUSCSc/EnMv3pWR1oStg4wSQCvij+izSOuPce8vAdO4+7WWqjnkHUbJ2zXLm38nq+eT/bvAlcdX0LLaPP/GUT1MJU6NnZdyBvZKstJ/ikv/znXcj7y+xvZf+7/94OWFG40fVxIr6Xfak/BMggOTfb1IuI1pv9NoqxG2w5TLQcu5Uv1s9eopFD0W/Ila/R4MUXkBPPllW0u9U0U+iR9O+++4j+l3opPwTIIDk329SLiNaaEw70lK9abDcUvC0nXkLT5JBmad+svUgYZs28c9tpPtMRX1j/q1sP0iYjbu8kvwksWzzJ3SdldXT11w4YFBcs/rNid26dnF1xfc5FiCA5Bg8X7vTL57aGHgSu7l6oG0/j7mr8nX5MjWuBg3qxzWV7lxNbQKvt83UGCtCO9M/mCETJj4etyj6riw97T4pfwQIIPnzW5T7SL4IHIXovcYhqbwEqtxHn5sB6LfiBVNhof+NjFWqVJFu3Y7JzcD3wF5GjR4jwSn39TtYxt0/dg9ckoo7ZAJIxf1tU16yt4zbdjurqUzSOQrZS128fWnDavlk/Q+Rz7vqo/P25PS1MQ3IoT87xHtxzj/3bCmqW9e7fkWvqF90pU9lBS/863fenx6Y8r2iG+T78hFA8v0XyuH49HMfqwK3fKZ7FHKGer96o8DcTm+pSSG35uEtpakQmy82OuywQ1OpHivbvFkzuX7UtV51f0qVZn7yqYy95/64Rb7jtlsl1VcQ/5TMcrmsBJBcaud5X6Vq435ntZpxo+yijkIuLna/W8NctBO2FsugwCmw7arAY2HfqBi86hrygMW8PXVHiCOdxIu77s70XvGCBQtji1tPTZZ4842jzcUv8++iorry3OQnRddduPD7uLI7jbnQymzI48tsPOnuGoaparq76o9Wt0l/+5//xorVrl1LJowf56rG9zkQIIDkADmlLow99B053mN/XR2FmG8SvEQdSfx58/pQ7zRvru7eumHzBrmpeKNUCSz40+qdJuadXim55FHhu4094ssvHSKTnnxMWrVqWeYo9QSLlw0dIl/O+jjyIOLs7+bIZcOGl1mHL3cJXHBR/LM3nY7uKIMHXQxPOQv4XwEs54Hv6d0fqO5w0q+RNdP+xu2zDVWZMNOq/6AeBFxg3Iprth3271vVNCZtN62V/QJj6aqORI7YuFp0gJmpTkXNU7ME65mCa6o9/dbqocM2paWi33neoXRbQjdzVbmHwx59JNTOv4wJjz4uXbocLb17nRQbnD43rz8PjZ8gH8/8RPR707+bM1cObneQdOjwC+mmZurtcXz3uIUZMvQKqVo1+rqt9JazSePGYk4NH22xqnqNbTTpi/5HH3WkszP9oqsPZnzkLJerAvoI5KY//ElGXz8y1uWf/3izvK0mXNTWpPIRIICUj7sMU3voh4e4TVafQtIfV3pBbdT/UCMzr0PdoI56Ltq7jty3ab20DzyRvrcaRF/1XnP9CZu+KSiUIXvXluIcH0mFHZ9vucG/u0JN236QHNC2TVwTem4r/XGlgUMuiwQavSediaQnIbx37B3OpvQT3S+9ONVZTheoXa9JqHK5KnT7nWPlhB7HyS87HB7rcoJ6m+FRnXdNwJircdDPbgFOYZXb2pDqmWDHQDO8gdYvghqkgsg4deQQvLDuGEXs65VqPLruQNXGplSnKM/jBwmjC6gnJezYqavcdsfdsm1b4lFXMic9fcfJffvLpGeejRQxH4D0fZDQvM6QrP+w+SUl4XcSXG2aa3o6Y/3tJUOkuHj3e2r0XXDBoxLXWPg+swIcgWTWM3RrszP8oqgFGW5PL4g+apiogoD+dFZHHUeqI6Ej1bvGm1hOvenyegwzK1eRGYVVZHoaM/nq0xX16+96YE9Pix4mLVq0WKZ/8GGs6JYt7pdhLVcz5gbrhO0r2omemv3mW26Vyc8+H7mQ/rND2kuLFs2tw9V3Ez0z+XmZMu1vsmbN7kn69WSCwTEsWbrUWt+VaS6Lq7zr+23b3Ee9rjai3y9X08cHl1H/Vr5pnpo6ZtjV18rZZ54Ra+JXv+wgzZo2FV8737FQT+0A1SpqnM4OAYY/QYEa6rpHkQoi+u2C+irOGjXl/NIsBLA9lbZlyxaRDZo+2li1ajUbtj31h2TcTgECiJOIAggggAACNgGugdhUyEMAAQQQcAoQQJxEFEAAAQQQsAkQQGwq5CGAAAIIOAUIIE4iCiCAAAII2AQIIDYV8hBAAAEEnAIEECcRBRBAAAEEbAIEEJsKeQgggAACTgECiJOIAggggAACNgECiE2FPAQQQAABpwABxElEAQQQQAABmwABxKZCHgIIIICAU4AA4iSiAAIIIICATYAAYlMhDwEEEEDAKUAAcRJRAAEEEEDAJkAAsamQhwACCCDgFCCAOIkogAACCCBgEyCA2FTIQwABBBBwChBAnEQUQAABBBCwCRBAbCrkIYAAAgg4BQggTiIKIIAAAgjYBAggNhXyEEAAAQScAgQQJxEFEEAAAQRsAgQQmwp5CCCAAAJOAQKIk4gCCCCAAAI2AQKITYU8BBBAAAGnAAHESUQBBBBAAAGbAAHEpkIeAggggIBTgADiJKIAAggggIBNgABiUyEPAQQQQMApQABxElEAAQQQQMAmQACxqZCHAAIIIOAUIIA4iSiAAAIIIGATIIDYVMhDAAEEEHAKEECcRBRAAAEEELAJEEBsKuQhgAACCDgFCCBOIgoggAACCNgECCA2FfIQQAABBJwCBBAnEQUQQAABBGwCBBCbCnkIIIAAAk4BAoiTiAIIIIAAAjYBAohNhTwEEEAAAacAAcRJRAEEEEAAAZsAAcSmQh4CCCCAgFOAAOIkogACCCCAgE2AAGJTIQ8BBBBAwClAAHESUQABBBBAwCZAALGpkIcAAggg4BQggDiJKIAAAgggYBMggNhUyEMAAQQQcAoQQJxEFEAAAQQQsAkQQGwq5CGAAAIIOAUIIE4iCiCAAAII2AQIIDYV8hBAAAEEnAIEECcRBRBAAAEEbAIEEJsKeQgggAACTgECiJOIAggggAACNgECiE2FPAQQQAABpwABxElEAQQQQAABmwABxKZCHgIIIICAU4AA4iSiAAIIIICATYAAYlMhDwEEEEDAKUAAcRJRAAEEEEDAJkAAsamQhwACCCDgFCCAOIkogAACCCBgEyCA2FTIQwABBBBwChBAnEQUQAABBBCwCRBAbCrkIYAAAgg4BQggTiIKIIAAAgjYBAggNhXyEEAAAQScAgQQJxEFEEAAAQRsAgQQmwp5CCCAAAJOAQKIk4gCCCCAAAI2AQKITYU8BBBAAAGnAAHESUQBBBBAAAGbAAHEpkIeAggggIBTgADiJKIAAggggIBNgABiUyEPAQQQQMApQABxElEAAQQQQMAmQACxqZCHAAIIIOAUIIA4iSiAAAIIIGATIIDYVMhDAAEEEHAKEECcRBRAAAEEELAJ/D/g5TspAJ26twAAAABJRU5ErkJggg==;" vertex="1" parent="26">
                    <mxGeometry x="340" y="40" width="200" height="100" as="geometry"/>
                </mxCell>
                <mxCell id="50" value="" style="shape=flexArrow;endArrow=classic;html=1;" edge="1" parent="17">
                    <mxGeometry width="50" height="50" relative="1" as="geometry">
                        <mxPoint x="30" y="404.44000000000005" as="sourcePoint"/>
                        <mxPoint x="-70" y="404.44000000000005" as="targetPoint"/>
                    </mxGeometry>
                </mxCell>
                <mxCell id="33" value="" style="group" vertex="1" connectable="0" parent="17">
                    <mxGeometry x="550" y="500" width="80" height="30" as="geometry"/>
                </mxCell>
                <mxCell id="18" value="" style="shape=image;verticalLabelPosition=bottom;labelBackgroundColor=default;verticalAlign=top;aspect=fixed;imageAspect=0;image=https://upload.wikimedia.org/wikipedia/commons/thumb/4/47/React.svg/1200px-React.svg.png;" vertex="1" parent="33">
                    <mxGeometry width="33.12" height="30" as="geometry"/>
                </mxCell>
                <mxCell id="16" value="" style="shape=image;verticalLabelPosition=bottom;labelBackgroundColor=default;verticalAlign=top;aspect=fixed;imageAspect=0;image=data:image/png,iVBORw0KGgoAAAANSUhEUgAAAloAAAGwCAYAAABxbMuTAAAABHNCSVQICAgIfAhkiAAAIABJREFUeF7svYmTJFeV5nuuR+RWudS+76VSrVqpBgQIWkCzdQMNEiXQApKAQT02Mz325j3rsRl79kx/Q489eyaGRjtCFEhqoW6xCFSAxKJdql1Vpdr3LTMr94jw+77jUVmVVZkRfj229PD4rsmVWR7Xr9/7c8/wz8899xwjLCRAAiTgSGDD9x6U/t7mZZJJrTbGLsZhM61IK34axyaSUM1isENizGkM+6ARf9ecU0sObt78ySSMjWMgARKoMIFG+nKsMDo2RwKNQ2Ddxp+IzQ5dIyn7CWvtB8Uza8RKILSwqdBqpAJtKUPWymnjyUH83AHR+Zrv298vOLNsJwVXI90KHCsJhBOg0ApnxBok0NAEVm784fQmSX3W9+WrxsjNgLEAG787Lt0VPn49DMH1O0+8pz1v+IVtm7473NA3DQdPAiRwkUCKLEiABEigEIF1Gx9ZYmzqbnz+nyGy/ho/p2GjyLocmPKYCj7rxNhVYtPezOu/eOTM1ufOF+LK/SRAAo1DgEKrca41R0oCkQisvPXxRcb4EFnmfhy4BpsXqYHGq6zfp2rtW+nZ1OC86zfuO7n1Z/2Nh4EjJgESGEuAQov3AwmQwDgCKzY+KGnPu8uI+Y/4cOW4CtxRmIAJ/NYW+zn/5IK/uvWdE+8+U7guPyEBEkg8Ab6hJv4Sc4AkEJWAlRaZ8hk4u9+BIymyouLL11+LCdY7h4as+rSxkAAJNDABCq0GvvgcOglMRGDdxofnWd//PKxZH8Dn9MeaCFL4Pv1u/XDKms+t3/iDlvDqrEECJJBUAhRaSb2yHBcJlEgga70bIa8+hsPbS2yCh+UJTLXGfiwnzTcRCAmQQOMSoNBq3GvPkZPAOAIaLwuOm9fhg7XjPuSO6ASsXAvr4PUCriwkQAKNSYBCqzGvO0dNAhMSyMrgQkTjvAofdk1YgTujEphpjHfVeunl9GFUcqxPAgkhkE7IODgMEiCBChDwxM6DW9b8kppqahY7BbONzdAUXoLe4RCpVYaRcWcQkRoymahoEF7LzhvxmlfgwB1RD2Z9EiCB+idAoVX/15AjIIGKEbA502VSsGZpkhnX4qXEdk0VO3Ou2E4YwpIqtM73iDl9Qkxfr4iKL8dixXQ1ZWkhdMTFaiSQOAIUWom7pBwQCZROwBjTLGKxORZYruy0GeIvXh78lFRCv1I6oD2nzhCvvUPk0H4xPWeByVWN2mbkh+TUoeMtxWokkDQCCf1WTNpl4nhIoDYErJdDfmTPPaQDpgrt/EVip89K1nThRLjTafFnzhEP04dmZEhkwDnoe8p6NkFzqRPB4T4SIIFCBPjHX4gM95MACRQnoN5HXTNgyUIg9CT5ZBUbtU6TTp+JcU8vVoufkQAJkMBFAhRavBlIgARKI6CiY8oUTDQ21qyYbW0T2zalccRlaXcHjyIBErhAgEKLtwIJkEBpBDCVJukmLFJ0n2ks7UQxO8rga7MJ404xVWzMrgy7QwKxJEChFcvLwk6RQB0Q0OnCRpkyvPJyqNjSjYUESIAEQgjwmyIEED8mARIgARIgARIggVIJUGiVSo7HkQAJkAAJkAAJkEAIAQqtEED8mARIgARIgARIgARKJcA4WqWS43EkQALRCWRGxARpbDTYJ8JDIG1P4FgepcSljSh9Zl0SIIGGJUCh1bCXngMngdoS0NQ15tRxMUGgzwtCq6NT7Ox5CBOBiOsOJS5tOHSVVUiABEggIEChxRuBBEigJgRMb7d4Rw8GCZpHi+ltF78FcalchVaV2hD0w6If4tiPmgDjSUiABBJBgD5aibiMHAQJ1AGBXE5Et7Ell8U+bK6lSm0Y9EE3FhIgARKoNAEKrUoTZXskQAIkQAIkQAIkcIEAhRZvBRIgARIgARIgARKoEgEKrSqBZbMkQAIkQAIkQAIkQKHFe4AESIAESIAESIAEqkSAQqtKYNksCZAACZAACZAACVBo8R4gARIgARIgARIggSoRoNCqElg2SwIkQAIkQAIkQAIUWrwHSIAESIAESIAESKBKBCi0qgSWzZIACZAACZAACZAAhRbvARIgARIgARIgARKoEgEKrSqBZbMkQAIkQAIkQAIkQKHFe4AESIAESIAESIAEqkSAQqtKYNksCZAACZAACZAACVBo8R4gARIgARIgARIggSoRoNCqElg2SwIkQAIkQAIkQAIUWrwHSIAESIAESIAESKBKBCi0qgSWzZIACZAACZAACZAAhRbvARIgARIgARIgARKoEgEKrSqBZbMkQAIkQAIkQAIkQKHFe4AESIAESIAESIAEqkSAQqtKYNksCZAACZAACZAACVBo8R4gARIgARIgARIggSoRoNCqElg2SwIkQAIkQAIkQAIUWrwHSIAESIAESIAESKBKBCi0qgSWzZIACZAACZAACZAAhRbvARIgARIgARIgARKoEgEKrSqBZbMkQAIkQAIkQAIkQKHFe4AESIAESIAESIAEqkSAQqtKYNksCZAACZAACZAACVBo8R4gARKoDQHPiOg2tnj4CtLNtcSlDdf+sh4JkEDDE0g3PAECIAESqAkB2zFV7Ox5IgP9F85nxLZ3iO3odD5/XNpw7jArkgAJNDwBCq2GvwUIgARqQ8B2ThW/qUlkZPjCCWHdamkR29Lm3IG4tOHcYVYkARJoeAIUWg1/CxAACdSIAKYI7ZQOEd1KLXFpo9T+8zgSIIGGIxDBOaLh2HDAJEACJEACJEACJFAWAQqtsvDxYBIgARIgARIgARIoTIBCqzAbfkICJEACJEACJEACZRGg0CoLHw8mgQYm4PsiujVisVZENxYSIAESCCFAoRUCiB+TAAkUIJDLimSxNVpRgZXNiOj4WUiABEgghACFVgggfkwCJFCAQC4nMjQwJlxDgXoJ222Gh8QMYtyNas1L2PXkcEig2gQotKpNmO2TQFIJwLJjes5hO9s402gQV6b7jJje7qReVY6LBEigwgQotCoMlM2RQCMRMP3nxTt2GOIDYivpFh5Y8My502KOHxkT3b6RrjbHSgIkUAoBBiwthVodH3PLLS/JydmnpDnTT5Fdx9exWl0fFE+jiaac21cLz7kz4uGnnTVXNHK7NLegBfcmnM81WRV1ilSnC893izl1Im/Nsg26CGCyrgHPSwJ1TIBCq44vnlPXN/5EVsngwlRO1lpPrjpuDuFpaDuHUx5yobCQwJUE7FIRs+jKvUX/DafwwNID65ZtR97CpAqtgfMQXKPpg4oS4YckQAIkcJEAhVZSb4YHHpA1O5cuM7mhj0NYfdSmzLViZQV+n4UhN1mkmWMhgSsJmFJvDF2Jp1YfbCwkQAIkQAKXCFBoJfBu2PClB6V/a/MtVryN8FL+DCwUyyGyeK0TeK05JBIgARIggXgT4MM33tcncu9W3vW49A9lb8OB98No9VH8bI/cCA8gARIgARIgARKoCAEKrYpgjEcjgSVLRZYx/w09+hA2Xt94XBr2ggRIgARIoEEJcOVZUi48fLL6W5pvESP3Y0gUWUm5rhwHCZAACZBAXROg0Krry3ep8+r4Dl+sr2HT6UJashJyXTkMEiABEiCB+iZAoVXf1y/fe4RwsBnvZrEGju/0yUrCJeUYSIAESIAEkkGAQisB11HjZHlqyTKyPAHD4RBIgARIgARIIDEEKLQScCk1GKkYey2GwiCkCbieHAIJkAAJkEByCFBoJeBaWmOWI1zkigQMhUMgARIgARIggUQRoNN0vV9O9c+yA3ONGI34Hq2km8ROQZittilwn9dbISHh4jVKeTYTJP41g/0imquunOKlxCqjdqQBBDOEzyintXgdm82KDA6IGejLMyu1d8qkpfVSCh4vQe9wmixbo94jxZCMIAWP3l8sJEACJOBIgELLEVRcq20YOid9LS1IMCfNzn3UhyIElq9JgKfNTK7Q6u8LcvB5Z06KDA0647msIsSDP3OO2Bmzky20us+IOY2EySq4ogqJVBr30XQklZ53Kal0EoXWxaTS58oX76XdjTyKBEigDglQaNXhRRvb5XOtmrgwgsjSg1VkLVgqdu4CsZoAOIkFAkk0wXHnVPFhhfKOHw6sEpEK2PhzF4pduAQWrYQG2Nfrj/vBdnaJp8yOHMhbblxBqbVvxizxFyPLU9d0kSQJrLEMWtsCRmZKh3iH9gUCXtTSxUICJEACIQQSZN8PGWlCP+7KNHsenLSch4cpQn8mLFlJFlljYOiUn52/SOx0zKyaCLc7kNrpM/PHJlVkjb1pVFTOmQ+r1Nz89KjjDWUxnerPA9+pM5IrskZZqKiEBdjOWwgrcEKFt+N1ZzUSIAF3ArRoubNKRE21zNhpM5JryZrgKo2O2WB6zHkKEcIjeKjCgtEwJRgz7g1Ya0xvd/iwVYxOxZQhtkT5rRUbOSx2Kirt1GnRLH/F2uRniSGwDj6z2ezw9V46l24fGn7jjZ9rog6WRicQ4RW/0VElZPzq1K1bIxUVBGrZwvSPa9G6gQN8BGOha9uxrhfl/oBvlrSCUVKnnwtcKKtO/zrupE6TFhg3d4cT8GVgg/Fy/wXBo/+fgea2/7R642Orb7nlpfADWSPRBCi0En15JxicrprTrdFKCmPWzbWoiNCt0YquPg1WoDqUVMq9rkNzdVNFxbf+DTXi/VE3F6n2HV39jX9ZIL75mjHmKzj7l6yx/2Ss/Z8nZh36RvCZcLVq7a9KPM5IoRWP61C7XuhDotGsNErXw7h1cy2NyikI8eHISS06jWrVadj7w/UPqLHqLcKUock1fRZ/OX+PkWMpd/BHtATi6g4r9v822ab/a+3Gxz9zw1ce4jO3sW6NYLSOr64NSIZDJgESIAESIIFQAlamyKM3o9o3rJFVV1RXM/p6CK6lEFwfGmxKfWjNxod/MdRu39j/8H2hLbNCMghQXSfjOnIUJEACJEACk0BgzTceXuZZuR0zgx/B6TGfPmHpwOcfw1Tif1X/rdZ+873VGx9dLg88MGFl7kwWAQqtZF1PjoYESIAESKBGBFZ/+V/EZFJ/h9N9EVuXw2kR+Rh1rfffPev/05otKz63YuODDoexSj0T4NRhPV+9WvQ9kxEzjKjqo8EZNQp4KwJbRnEEjksb1eSVy4ITAqJqShstGgZAA4A2uQfsl7i0US1OiDgfMNI0NqNFV/DpqkVXv8G4tFEtRmy3fgjAGuVta/6MFV+tWcsidBwGDrsCfw33iGevbfFb1q297aHnd1x7YDctXBEo1lFVCq06ulg172pmRLxTx8VoCptRoYUVaXb2/CB9j5MjdFzaqCY8sDFnkern5LFL+QJVaCFtjz97nlv4g2q3gWCkkURfFXiZvh4xx4/m0/xcaN92wAigwXP1p0OpSBvn0Y8T5fXDoausknACa3YsX+X7ua9jleFfYaiOK0gug4IYMvIxfHssQRur12xb8WT7lx78HWNvJe/GodBK3jWt2IjU+qAiy0BsXVawtN04Bj2NSxsVgzJRQ0hgrSlZzMmjl+cJVPGEFEBOaY5q0UYU69pE4yxzn+ntEe/EkcssWgb5KH0EhXUWWpVoA0Kr3H6UiYKH1zmBlXc9LmYo+3ewxH4OQykrMCGMuYvRxl1i/RUDLS1L12186FfbN913xZdunQNr8O7TR6vBb4Ciw1cr1kT53Artn6ixQnUL7a9WGxO1W6F9RgVVLjc+GbOPfbo5lLi04dDV0qtMdM0jMApOHJc2SqfAI+uegJWmwdzfWC+Il7WoQsNBCgrzKUwn/pO13n/QQKecRqwQ2Rg0Q6EVg4vALpAACZAACdQHgbW3/mip9exXMO23ocI91hWL6xHW9B+M9f+PNVuv+qim9GGpfwIUWvV/DTkCEiABEiCBGhBQ4eN7mU/B+vRZnK5amcURRV7ugPn2v/t28IsUWzW4sFU+BYVWlQGzeRIgARIggWQQ0ITRRszfYjQrqjwiXR3yeQQ5/aecP3j3mq8+UpYfWJX7yuZDCFBohQDixyRAAiRAAiQQxMxK+7Bk2Y+DRqHApJeDakJgeF2E4hq+5PKjmyHqPor1jP8npiq/u/LWxyvlD8aLWWMCFFo1Bs7TkQAJkAAJ1B+BVHPzx+GXhVWGBrFtHIqGwkEYHH/pVWKnz8onInc47IoqKcSNuAHhH/5zysveu+YbDy2L3gSPmGwCFFqTfQV4fhIgARIggVgTuPbOJ5p88T+NTjo7wNvOaeLPXyL+wmXiL78avyOKQxvcukqzbl0N69Z3Jev9BwQ3vTrWsNi5cQQotMYh4Q4SIAESIAESuEQgO5T9a1iWPo1tmhOXVsQiRbBiizh6kkqJnTpD7OLl4i9Zgd+nI9iz28zjFedain/fY8X7h6u//uhaTGE6dYWVJp8AhdbkXwP2gARIgARIIKYEVm784XRr5NOQNdc7dVGzQkybGWSGUJE1WizElz9vofjLrg5EmDRHSM916cQLxdi7Ujn7H9fd9sh6ii2nKzLplSi0Jv0SsAMkQAIkQAJxJeDZ1E1wSP8k+tfp1Mcp7fDNmiO2bYKFgporFv5a6reVn0qcoE7oSQIfsa8jTPI/UGyFwopFBQqtWFwGdoIESIAESCBuBNZv/EGLJ0ZXGcJ65FBgwfIhpHSqsKAvFny0NOWUVd+tRcvz04vR/bbmQPzd7hvve6tue3iNQ89YZRIJUGhNInyemgRIgARIIL4ErE3fbMW/GT1EipzwYts7gylD29IaWjk/lbhI7BKsSsRUo2DKMWKZg6nD2z3jfWf9xsdWRjyW1WtIIPKVrWHfeCoSIAESIAESmBQCKzY+KJieuxmr/a5z6oCGc1BrVpebv3zQJuJs+RoCQp3kA5+utNOpxlSCs5d8I+fnvrlu4yNLoh7M+rUhQKFVG848CwmQAAmQQB0RSEsrrFmi04ZYOhhegunAGYiXpQFKoxRdlah+W2rZguhS8RWxLBLj3Y309V+/5o4fucX4ingCVi+PAIVWefx4NAmQAAmQQMIIbPjSg5Ky8jGEc7jRaWhqzdKVhhrOoZSiKxUR9iGwbM2eH12siV1hrL03O5L9slriWOJFgEIrXteDvSEBEiABEphkAoOtzTf4xt6EbsCrPbwEvlnTUDUd2Rp1qXF1kodQ8xctEzsHYqu5JfzEl9Uwa42x3232W25bhOTXLPEhQKEVn2vBnpAACZAACUwygVtueUl9sz4kvnGLAq9TfxBZJVuzrhivTkGWKLYMpjpvxGrH77XnBj8pFFuTfCddOj2FVmwuBTtCAiRAAiQw2QROzDi61FrzQRiYFrj0xU7pyIdziOqbVaRxtZD5C5fmLVvR2lWT2scwE/nt1f6gmxN/kX7wo8oQoNCqDEe2QgIkQAIkkAACvpe9Ab5Zas0Kz5MTRIGHNSvKSkNHRoHYWgCxpVHkoznIt8Oy9TnE2brzmm/8EAkWWSabAIXWZF8Bnp8ESIAESCAWBFbe9Tgy3NgPoDNuiZtbEdldRVZkfyq34dqOC5atmVhMCIf7CGU2xOJtuWzqSzomlsklQKE1ufx5dhIgARIggZgQSI9kN8DHSYWWW4DSrqnwzYoQN6uEcdpO+GzpNCJCQERMRn0VLFt3NQ35f6t+ZyyTR4BCa/LY88wkQAIkQAJxIfDAA5ht825Ad9x8m2DFUpFl29qqPAKsRoTVzEfKHjtteuHUPuN7AaOWfMCKvev47P3Xjv+Ye2pFgEKrVqR5HhIgARIggdgSuGbXqrnW2uvRQTcneA1QqtOGpgaPUQ39AJFl1WcrWqyuVqjHvxHr3XrVVx9F6HmWySBQgztkMobFc5IACZAACZCAO4FsZngtaqs1K9wZSkM6QPDYdqcZRvdOFKvpIWE1Is/b+fBvn9JerOaVnyEnotzanLafWseQD1eyqcm/KbRqgpknIQESIAESiC0BFSDGuwb9U7EVWiyc4APLUjkBSkPPMkEFnE/T9PhzYHSL5oC/zorZKP6gW6T7CU7NXaUToNAqnR2PJAESIAESSACBtbnh+VhtuB5Dgce5Q4GDuug2CcW2tIqdu0DsTE1CHR6B4kIXkSPIfsI38uWVG38IRy+WWhKg0KolbZ6LBEiABEggdgR88ddYY9ahY+HPRMS0ChJIt1TbCb4wJg2S6s9bBB+xSM7xsxG74stNftNfM2p8YbbV+CT8pqrGWdkmCZAACZAACcSBAFYbIoP0GrGyyqU7tq0dvlmdkGST+PhU53iILDtvoQj641ysWW+N/+U13qDTWJ3bZcWiBCbxTinaL35IAiRAAiRAAlUnsH7bIsRpCESW26o8FVm6TXZRh/wZs8UPIsc3u/ZGM1V/GskcP7vhSw+6HsN6ZRKg0CoTIA8nARIgARKoXwKZXOo6xM/SSPDhDk86bQiRpX5ScSiBv9ac+UEaIARade3SYgQy/cJgc9uHXQ9gvfIIUGiVxy/ZR6tpfCLzeKH9E9EoVLfQ/mq1MVG7FdpnNd+ZOqVe+UWH5diukZzj0kaFkEzczETXXLm5O/Tm78cr78nJaGPiEXJvHRLwUqmr4SjulHInP22IkA5X/q1P4riDnIgqtuC35ViMsfLhnPE/c8NXHqIGcIRWTrXweCHltM5j65pA8LY0U0Ow4E3Jz+XHosuLkQrCOi5rLtiGxoOpYRtVvRCjTLIZkQw2LSq+YNa3bciF5lLi0oZLX0usY5GuxIdPienvy7egfibI5aaOxa4lLm249pf14k1g5Rf+GRrLX2GMWeTUU41fFS2GlVOzZVXS7xr9Tu47L2Z4SES/h8LLTFT57Eja/Ak/fxNenTXKIUChVQ69pB+LeX99UzK6suWi0MIqYTWbX2lVKMQiLm0U6l8l9l8QVb76bYx+yek+XZWEqQanEpc2nDpbWiXbgbhDTXCHGRnON6BWAU1jEiEeUFzaKI0Aj4obgeaOqUusleWYSgt/I1KfqLaOSV1tWJCf/h0hvpbt6xFz9rRAPRasOvqBEXODb+VvVt3xo1ffe/LO86EHsELJBCi0SkbXIAeqpaXDUSwUQhKXNgr1rxL79Uu43DfduLRRCR4TtaEWrFaIT91KLXFpo9T+87hYEbA5u8ymzHI4w4eWwDo/BXrM9SUztMXKVghCTsyaB4txv8jQgEvjnQhmcYvJDv8OlX/hcgDrlEaA87OlceNRJEACJEAC9U7AE2RqNkudhqFuAK6uAE4NVrhSsAoRU4jTMSvoKgatXGN8769h1YrBMsoK84hRcxRaMboY7AoJkAAJkEBtCGz43oPiGw+JA+18lzMGaXewxbkEfdSI8e6xtTpg1fp4Kpu7Kc7jqve+UWjV+xVk/0mABEiABCITGD7fOdfzBRE/JXwuOw0vG7VmucerityfihygU+tTZwTJp51X88KqhQUBH1151+MV6QIbGU+AQms8k2TvUSdJB0fJxEHwfTj0Y3MtjcopyrijMnVlXw/1LO4l3VjqlkBuOLfQGqtCK7TYZvhn6eKWGIV1KNTpwJdMVyFOcZ4NxCoV+Wh6JPeRQm1yf3kEKLTK41d/R2dGEIIAW6MVXQ3otuw5TyZq/aTwzGbBCZtLCeqCa6MJdxVYGsYjdyHkiQsr1okdgUBkGesW1qEVK611q5MSpOdRXy33GHU3Gt/epOEuWCpPgEKr8kzj3eIgVqMMYlVKIxU8GM1Av5ihQedRa109JpIVzLn1GFfUe8P1/kDIj4DraLiGGA+rkl0L7g1lFMVCWskOsK3KEPB8RPk0yF/jUNSaNYlJpB16eHmV5uZAaAU5Gd3KLCTV/mCqY/pqt+qsFYUAhVYUWgmoqw8Ic+5MJNFR78M2GsjvHGLLRBEEsPrpMaavt96H79z/QEAgBk8gMF0KLFmm51yebaOIDlixgr+fnm4XQqwTUwK33PKSGmI1GrMG7ixe1O9Jp+MixHsr3mBtPrWdU+GvhRiIbisQMUjZgP9tgIm6Nh1soLNQaDXQxQ6GigeFd+akmGOH8FbuFGulfgmpEIBQ8o4eFNN9NtoU1wURERx7vifasXVIzCDujjl+GPfGCdwjjlOHOk61aOlxZ09FO64OGek0afC3c/yIa5yiehxlQ/T51Oy9LchvqEmkNcly8aIZLFRkuQmW4m3V8lPtMxzjnVcgGoS68O2GVXc86WwGq+Vw6vlcyQlYuvEnsrJ5RLyR3EIv5ZcZYbN+LulgxuvCC5d7DhMdGgSWB6Flka4hMC/rkmVdVVMHjp5OV0Z9huBDYwb6YKE5BZF1pjS/NLVqnTouHtoK4tO0I5eYrjpKEicVVbgfVIh6ZyCW3AIdXroMOi2rIlYFPCyHthO3YpTMAU4XdJIrqS/WyJCYXkTdVqGlVs5ofmmtRlLz1nzjoWWTPJKanh45JHI2559snZ4bfuP799f03GEny0rLMiO+Cq3QopaserNmjQ7Kdk0LrFr6XehwzzZbI9fjheJ6HP9yKBhWcCZQ10JrEcTVVBlZ50vuWiuDy2XYqCm4QzKmCQ9D51TmzrRiWBGjxJPf4g8j4nB1mgiWCBUhiRVa6kejub+iPRQvv8oqtk4fh1WrO5+3MJFCC/eC+q+NplmKep9j2jCYQoR1K8jtmFShNQALcJQFFZc4LoXj9b2S9T4fFW09189YmzUm3d9/Ts6s2fjoQYRS2DHkDf7l/U0xEF253CxJGSQjdSAMfyfRrQ5LMOUJsWX0JWo43EcVT5H1npXrZONPXpZNt9fhiOPZ5boUWusgsLLZ4etT/sCnfGM+gj+Wa6AzluCJioyfKI2hscbcURFF1uiR6lejUz+uPjnxvIer3ysVaipMIzjTV79TMTyDitJGXNEafinm4TvKzek6vK26qZF/19VwMqLJLY/DWrK92W95DaLrt3Y487tdz31n0sZijIc5NR+bw3envlzFPX5WIZLqX6a+WrA0GwehhWbm4Ipdtzp1fsEukaOFmuX+aATqTmit3/iDlqwMfgmrVm/HDfEJDHeuy99KNCysTQIkQAIkUCEC6ge1FN/XS/ES/DEor497TU0HjwE+AAAgAElEQVQ/W3vrE8/vePquAxU6R6RmjCfTEBZ+KsRfeKlnoYXRaQ5WFVu6iMPB/xIGLbsulU2txaEUWuF3h1ONunKGv+aOH83N+s33QaP/D/zRfhVvI3OdRslKJEACJEACcSCAzMfySQic/2a97PdWb3xsUsIJQEyoyJrmAsTCGd6qD2u9lhS85TThtGOeRmjPVVhGtFoeeKBeRxy7fteN0FJLVmYk+1Vj/P+C2CcfAMk6vvNjdx+wQyRAAiRQQwJ2BU52H6Lr33f1rT/U32tXICCstSqywlfXacBPXXXo4Wc9lw4MVTenYmbBkLFm5bYliA3BUgkCdSG01Ccr56e/aIz9LqxY6yoxcLZBAiRAAiQwqQTmw3pyRyqV+sq1dz5Rs5Xiy/YvxaANlhDrQqKQAmtQsCK7zoumDwqCl6poDC8puOOsasrBqsVSEQJ1IbR86ceqQrMRI76uIqNmIyRAAiRAAnEgsARTibcPj2T/Rr3ma1Ha+3OIoWXCE0lrZ9Si5Z7GphbdL+0ciAGmQst1+hCX4irfeCtLOxmPupJA7IXWsnsfwjX3PoXFE+r47iTHrxwk/00CJEACJBBbAtenrHxu7a2Pz69FDzPShKkxizgk4cVCZOmWiDIFRjzd3MpCz8hy5j50gxVWK/ZCq2kwtdZYexMG0nDLo8MuHj8nARIggQQQaIVj+k1+KquBMqteUr4/xdmi5WHaULcEFIuk2LoC0dHfrA32xeVNbTN1npWlTAKxF1qprL8OS4KvwThdFuKWiYOHkwAJkAAJ1JoAHuqrjTXXbPjeg1U/tfWkFU+TVqcTadqdeku9U2hgcOi3bQj1oAGFXYqRZUipQaHlwiqkTryFFlaH4A9iOeYOebFDLiQ/JgESIIF6JYC36Gnww13efarNKS1OOeP0fC+NWRI3M1WShJZC0xAPjmEe8NxdZFPeonJY89g8AbebbZJoXbd3hSCNwxyYlV3XpV7qqaYewHLWi+llkmIQ09xyGn27H3n8sDkEoCt89TSHlzLCW47o6pqkRNTXhNDKSHMdKqPS0qZc4qZxdDTPIfwbbAJT8Ghy8SB/34gG8C6x6AMJOTODeD0tmoA3IX4tigOpiQxSOQWMNBF7OSmdlBMedAGnIFFxAjmdByfNmRmRE8TWnBbP1zRqyBdTvZK1ftoz+oXn4Hyv34lJ+V4EUtuK1YfYHKeH5huILaTjEabjKe9+jLXQwjNydjol7Y43RZ4EQv7aLqQcmD1f7LTpyRZaSHDrnT4ZPRGwpmXQL/rZyAyiSaWTLLTOngaj40GqoZIK2Piz5oqdiRftJAst5LzUBNrmfE/kB6Q0QYhOR9LtWbifNN1HUoVWb3eekSYpzyIZd9QCkR78venfnXJKqtAqmZPpsNaP/lId8TroOkLknkQUT4cDEya0gpyNEFrBSkpNll68tAPRwvXS27INmRKLV+WnxQjEWmi1pHMp30Z75Qu+wBYvF38mXoz0pSVxBUJSxwXrgWC5ro8YL96xw/nkyY5jDaxYi5Yhdz3WF7jFVXFsOT7VbApfJvqFEjBqEu/oweiCFMf78xaKXYAV6K5+DfFB4NYTXVWllk1Y7Dwd46F9ebHldnTwhW1nzBF/yYpAvCfp7f8iAl0ar1ZNCG2DzcPLnMFLTqQk3BqdG2LdX9wInNoRPKEdnOByHnBCTlWnYqECTHhsK6e2KlQpaUIL927wvagiX62zxYu+ks8b8ZpXoNqO4lX5aTECyVIi+sCYMw+pQpMqsi6/lGoClrmLxA4i4fFJpKVyMdWr9QEWGrXSJFVkjaUUCKS5C8RiKsMchyB1/dJXy6haaVRoJVVkjQUFIeHPnCueTiNq8mzH5NAqrgIxiqS1iV+voo+dLqTIw3g9vZ/U+udY9OXGn4e/1YbghL+dqZhNGFkoOi0tOuXqVlLWg6s6S1UJ2Ga41WALrk1IgRPGnJQvOp0bIrSsrPzC/xJv2qxOOzw0O5Uy7b54bamcxYpSrw0WxFaEi8CJbYtvTdp4Nm19TyfSUz5+92x+fhb1MLNrsghOjj0mi8wBGcyvj/h4ymGxxJCx/mAOv9umVJ/xbW9a2o5sX79d4p4uKFFCK7DU4A88CZF8Q+7/ix8HCUMxZnPutJOPjb6V26lIWl+v2ehdwYypp0H6dMwBI4cvl+BQTH8FDwtXx9ES+hW7Q1SEg5PFdKvpORvevUB4gBHER+JF1iiNMWMOfLZcXm70GL2XGo3ThTEHnOq16PV1ucb1ND6d2tfNqfhzrPVUaEFI/bO0Tps1d9jPzvAy/gxJyUxPvKniS5c1j+BNa1qnjGQ6EQ5D37rg8mPbbAqBYa3VZY5twIifHiyWFl80EFsGEkuMBz+wNOKa4XfstQKRBadIgdKyFvPzBkLL6rQlnCQhsDwzBC0+YHK2H3bSXl8GetZuXd7jb3ykF3bmszlrT+Nl+jTOcsrLte/fvknjnEdyPnKiErVSooRWMJ2mWyMV/RJXB0dYXYyLM7NawXRrsJJnBCdQR6EVpKwI7qXJ/yOt6aVqw72hm4uxJpjCRt0GEu3BtRj1c9H38XA/l7zlWO+lhE7TF7o/gylp3B9GOblakgs1VsH9vkll9YGOB3h4qwkUWsF1web2zWbgUGi/tPa2hxfhQs7IjWQhruwMkzIzwW8G8EyDAFKfAfjWYeoXs8UBV/w3tv1Lv0NaXfzH5T249K/xPbu4J7hkkGX4f34fnn/wmMT/+vDzLDzPTsPb6JRk7WlrB0+u2fjocWMfPYpuHcn4mSNdmcz7b/z8/vDrXuEaiRJaiYriG+VC6wPP1R8tSt0ofYh7Xc1XFiVnWVJSb0S9LlHuj6hMo/YlrvX1SaGc1H3URWg16r00llOMhFbKy2Vhpck6yCw801U0ONWM6906vl8q+Jt0xauTAJ6Gy/j3kEdfBgg4KUoqEDgBEv0tFmzS6AnM6hYhQgT+ZPk+IVqBKrJe/O8Yph6PpLz0kYFm79Darz2yHx/tyxnv/eH23L79D983nlGF9yRKaOUv/Hg1XGFm8WtOh+w6bP3yu/RKEb+xVKtHUccdtX61+h3ndhuZUZSxR6kb5+udkL7ZbCprUxZTUg5FBWKMRKJDj8Or6P0IN4HgZcFHGJziRX3mdCqwHos+Fafqhl/WBJYwY3TAJ3FV98Gqua+tz9uzduMj7xnxdw3JyNvvb6qOtSthQqse7wX2mQRIgARIoFYEsiY74NnUoNP7proL6Za0okJLN8dFLwkavq5qXYSpRARitR+H7WvA+HIg55ldzX7rztVfe3gr1NiWlNf27vZNt1ds2BRaFUPJhkiABEiABOJOIC1Ng7BtYGlt+LSXwdSwbuE14z7qy/sXhCvB5joRUl+ji9TbKZhiRD5lsxYwhiHADuLnVt8Ovrt648NvNqX8t7bmOg6VG7CVQivSNWFlEiABEiCBeibQ4mdPDKbNQOC3HVZy8JnXLWlF/bQabHGGwyXUpZhXX9g+g7vjvWw29cYaO/SabHzoz0PtsqVUf66GFlpBvCBNFTE6B6+Rm3U5f4QbMC5tONxEJVXR1CNBSIRR87m+CSmjCCvN4tJGSQBcD8pksKIR0edH0/2oo7SGlYgSgysubbiOOWo9TWWj95LeU0HBV1krQuvoijx1zHUpcWnDpa+l1rlyjDrHpatgdTWoBpx0KXFpw6WvNa4z0tTue/5Af+AsHebdqhkASskCUOMxRT5doy7QcAeFOEjmA6h+PVZVfg4Oba+1nfdfWXXrQy+3tqdee/exb7m3hJoNK7RUIJkTRxB5A2m1xgitIKjgbATzdPhCi0sbka54lMoIF6GBUI2m+RkrtBAA1EeKoyCNQ1gp1sYctOES+L8SbYT1s5zPcf94Z08iIOqRy4SW1ewEGsxTozCHlbi0EdbPMj7XAJ/esUNBns58wZNOA3jO10CeGosrvMSljfCell7D9F7ghFydQYHQsh3w6Q04qW9veIlLG+E9rX0Nja209muPaRA0vGlL8XhAas3Slyddeejk1FX78ZR0Rv3edfnuLanxRB2kDzmkBrGL4Uj/cWSFeG1kUF5ad9sjvx3o9N9ytXA1rNBSS5aKLHMOecvGFKNWiBmzIEEd3hzj0kaV7usgkS74BIE+xxaN2aVR0x2EVmgbLeFirRJtVAlR0KzBF7HpPptPNzL2RAiFrPk2g3QXISUubYR0s6yPNXClOX0CgXUvrXQyw4Pia9osV6EVkzbKAhFysIpJzTs5Nhm6vtT5EKXOQismbYQMdZI+xt+lebgb/9NoccWFlgosFVoquCLMdEzSwNxPGweL1sXVuFdO4YJ5/MJqaCfx5mz/Dttf5Ty5ubXP+8XKrz/84p61+/eGRaZvXKFVYNmuwX7dnJwf49KG+59XtJqFbvZC+ydqvVDdQvur1cZE7VZqX4H7ILCU6uZSCtUttH+iNgvVLbR/ojaquc/HX5VuY0vUvsWljapymmClW2ROMWmjmpzKaNv60o1X6W5MH8KsXrwYndLHps7jSSmaQli3KyVOSeNTwaTWMY2rpzk9g5/492isOf1d84Wqe4DOFAU/cUyY0NJ7HhdKv0P1mRzErNOZlcDKqD/z1yUvhGu5MtTMRWiIL0Mk3JDOmQ1rt6x4Nn3nE7/e8qO7CoYMaVyhVdIdxYNIgARIgATqnYDnpc5Z8c86vVFrCATdkpSOC9Z2ZP12v4wqilQwqR+z+ufqpv66GiJi1LE+qtAKO3vwMu4gtCCCJTsCMazXCb+rq4lmSdHNJaBwWD8m/hwZf2QZProbyYOuzYxk1q297aF/3XHtgd0TWbcotCaGyL0kQAIkQAIJJWAkewomltNOMxe6eOPiAo6EALloTZpgPGqdUkGl+RDV7UFT9oyKK6SfGi+0ICMcfJonOFPxXUEf875kha7Txf0ahgNi6zKhdeG6BYux1CdbF7+N+tsVP3OUT7FKRW5CRxGXy1uxZtvyx7yNP/nTlTG4KLSiIGVdEiABEiCBuieQS/knTSZ1AivKQsei1hHdwmuGNhWjCmrNUqsWpvECUYV8z9iCn4G40t/HCi1YruLsPA9rm01hVS5W52oJrtUF/7qLQktXPGNleLDyeQA/VYBVLhjtImTEvgsnXujboR+svOvxn+954u6L15tCK0a3PrtCAiRAAiRQfQK5nv6jTe3TTuKBrEGyij8HdToqeChjGss1DEn1h1DeGWAtstNmiK9WIyT+vkxo6VSg7q/3omMYnerswEKSUeE1KrSwqtf0nw82tXg5+9MW5qKpij4P8T4rPeTPW3vrY8/vePqbx7R68RuscIP8hARIgARIgATqksCeF/5R1t726HEYdboxACwzL1LUT0iFlvr8QJQkoqjQ0pXj2BIjHsMuzFjh1TVNLJzq1boVCK0+CC5dqYtVzYE/noqy0oqm+PkIxNYM68n81Rsfe2rX+r27KLRKg8mjSIAESIAE6pqAQSBFewTTPcWFFsZoNJQPNpsUoaXXLSnWuVLvQV0hqZYubDITKxgR3y8QW73d2M5hmlGzNDmuGr+8D2oOXAOxdr8n/vy17171vym0Sr1IPI4ESIAESKBuCVgvdwidPwgZdX3YIALLBzY7bWZYVX5ejwR0BeXU6WJh6TIzZ4vpgdjS2Ig9ZwO/rhKnFRdYMX+L++xVCq16vCnYZxIgARIggbIIZLLewXTKHnLyRtJpw9FUZHF2Ci+LCA8OsjC0tQdpwQx82EzPuSBgdxC0W/24ok8pnkROzVMO4c8JnwRIgARIgASSRWDxucX6AIRFS0ZzQhUeoAbNVKvW0GiezsJV+UkCCKjgwjSxjzRx/tKVwWZnzIZzfcSgtdZulbS/lUIrAfcEh0ACJEACJBCNwObNn0SiArsPZgoVW+FFc0+O5p8Mr80aSSAQWLimiOZA9pevEjsTeZA14r1bgTlMtnm59v0UWm7AWIsESIAESCBhBJCEZjemdna7DMtoDCZdoaZhHlgai4CmEFLH+SntUcb9HmJrbdXgpRRaUbCxLgmQAAmQQGIINOf8d7CQX4WWxtMqXrIIB6Bxl5AInaXxCARCW8M/aK7F8IKwXXZrU8pu06oUWuHAWIMESIAESCCBBN5+9l44X1kVWiedhocQAKIbS2MRgBN8sBKxt8d13Gchrra1dGV0ZSuFlis11iMBEiABEkgaAUwc5mQnRqVbaAmsGoi15GjVCG2PFeqDQBBHrecMAtc6WjMN7idrtrzx/fuDAdKiVR/Xmb0kARIgARKoAoER6+1AszrFkwttXqcPNaglcuWxNAgBtWZpTK1uBDF1C++QEV/egrwKpg21UGg1yL3CYZIACZAACYwnsPf6909h+nArPgny0oWVQGidR+Yet4duWHP8POYEAitmEEcLyaiditHpwtd3XLf34v1EoeUEjpVIgARIgAQSSeCBBzAss0WX4juND8FL1VfHaP5DlmQT0PhpGrAUFi1HYY21Ff6rubR5VYL7Kl8otJJ9m3B0JEACJEACIQRSknkTq8TeQbVw9aRTSciFpznxWJJNwGiy6TOn8knF3YZ6DNHlX7G93TodfbFQaLnBYy0SIAESIIGEEti26TvIseO9juHtdRoifLQ0D57R1DwsySSQGYHIOhGk4XG1ZiFu1qtIJP3ynhf+8TImFFrJvEU4KhIgARIgAWcCRnIp/01MIb6BQzD9E1I0aKlOJ+lDmCV5BEYd4E+fEIHgcizwyTKbe6X97SvrU2hdSYT/JgESIAESaDgCzf4UWLOsWrXwdA0vBvG0At8dWrXCYdVZDV1V6p06ns8E4NZ3TRfwRyP+bw8jEvyVhULrSiL8NwmQAAmQQMMR0FQpvu//+YJVK3z8fg5C60zgr8WSIALZjBhYsoKVhq7pliySkxv762zf+S0TkaDQmogK95EACZAACTQcgXSq/TU8XV/BwGGqCi+BVessVqVxBWI4rHqoMTpleAqzgO7XFHOLdrN4ZvOVvlmjQ6bQqoeLzz6SAAmQAAlUnUA+AXDqZZxonJ/NhCeHVcvT5f/nEDWccbUmRFRPOzWXoXf8cD6noXvHt4nxfj7vxJL3Ch1CoVWIDPeTAAmQAAk0HIHmbFYtWn/A5pbYTlcg6uq0AeZArOebxQwNijlxNC+aXacMRc4hidO/ZU32pc2bP1lw+BRaBdHwAxIgARIggUYj8Paz9yFKpXkJvlpIo+JQRqebNN5SLutwAKvEjkAGfllwfvd0ytB9laFvjfzJWHl+z6ZvF3XUo9CK3RVnh0iABEiABCaTwIgM/g4P0RfRB8wJOhT485jTWKXWwyCmDrTiVUWnf88iCxOmDGXQNc1OMIS9npVner3Wv4QNiEIrjBA/JwESIAESaCgC72+6X7xc7jewasE53q0EORBhETHRHtZujbNWdQiMWiOPYtEg/LMiFEwrm+dT6dwvJwrncGU7FFpXEuG/SYAESIAEGp5AU3vqz8b6vwKIo04wchcsI2dOcgrRCdgkVwpSKXWLd+RAlOjv2uksrJ2vIJzDpq0/vk8TSIeWxhVaqbSIbmOL54lNN4n1UqHgggpxacOtt9FrpcBBt7HFGLHYZ8HKqRRtw5VzsX44tuHU2dIqBTzSuJfA5rIy0f1R4BRxaaNA9yqze4J7wYKRbs6lWm3g+gXXMA4F30Gi25iifYvUv7i0EQeeJfbh3ce+hTzTokLrd9jcnK9gzTIn4VDtnralxN7xsHIJBCsMj+wPwnMIpg8jlO1wgH9iqN3/E770nQ6LyTeLU18rWslOaRc7d4FIS8vFoGS2qVnsjFnjxUWBM1ekjbby+1Gge2Xvti2tYmfPywvKCzdiIERnzhn3ICh0sqJtNLndfpVoo1D/KrL/AhMEOxSDYHdBgVi302eJbZ3idopqt9Hm2A+33pZUy3ZNF3/BEqzO6sfxmuUEor2jU6RrqnN7VW2j070fzh0uoaKdCk4Ll17ipC837eAUoX8Tt9GFNqY596gSbTifLKYV22YOb+s/1/a8WP963K/rXLoZTCGeOIJnSxuuW4fLIaxTYwJ5kQVLVnTr41FrzE+yWfn1/ofvc+6125POubk6qghR5c+ZL2b6zEtCS98Cm7BdaZkoNKxKtNFcgX4U6l+5+8HDnzVPzNQZFxV/YH3AuMXVolWsDeNoFatEG+WyKHa8PginzQwehmZ01ZEKLeV0pUWwUDtxaaNQ/yqwX0WVxYuNwQqfi0JLGenfnGOJSxuO3S2pmu3oAqfWS5z03lBO+v3kWOLShmN3Y1vtje/fL9d844d/yGZTGu7hamzhF0GnELEC0cdLloVglma8zLPEhkAgsg7DkoVVhhJ8FzmX82LN89AHP937zDexxNS9NK7QUkZRpy0m4hqXNibqWyX26bRYqq28luLSRnmjKH60Ck+1ABavVfzTuLRRvJflfapWYxUN5ZS4tFHOGMKOjcsYK9GPsLHG9fMHHpB125YvyWXNR9FFKKYIf93If2hOHhOvtQ0v9Jg5cX3hiiuLRPQLPlmByIIlKxBZzsmidfRa+XfW+o/uWr9/l2yKBqSxhVY0VqxNAiRAAiSQcAK33PKSHJ574KrUVrnJir0Z2ycwzbESww63Zo1hEwQwPYYo4/oCBjcC55mShPOdlOGp4zumdAOfLOQxjGjJ0oTRr1tj/3dusPcVgQCPWii0ohJjfRIgARIggcQRWHnX4+INZj54LHXgr9I582EMEEJLluNnaSZYfbhrtHFsEWxhieM66QNS31ksTghWFyJeloz60bp2zMh2a+0Pcs3p5wrlMgxrikIrjBA/JwESmJiAPj34BJmYDffWBYGVX/hnaemYvjJn7XV2OHeD8VIfQM7CG9D5+dgcnUgLDDWYNpwP/034uLr6/RZoirtLJACf2SAXpYqsbuQJh/9cxLLH+PaHWc9/ds8Td0c89FL1ZAktCwufbo1WNJmpa0LTRmWkuavc81fl7yPeS8X/khr1XlIqUcYe9d4rTr2+Po3y3VSjkV33zUdlcETWpn27BpaKNRBZ63Hq67BQfwUubHvZ3VBRhVXt/tyFWNmOLQYrfsseUx02YNRPDtOE5tihYNow0vd/fryIYmoey/ipTXs23V00xU4YnkQJLV1ar1vZzrZh1OL2ua6ccF09MVoXS48bqqjjYxTnxyhMkwQyyrjVBK9M9WHaSG/sKpyUk+vbsa5EVVYNxwnWAx13tBhFlf9r2vgTWZXOdpqR7GosdF41MuCv9sSstp6swY2LqUGLuBcVKrraGOFK7LxFYmfNFcsVhxUCG60Z098XxDPzsImGk3E1RFw6zVF8qz3p57KP73n624ejnX187UQJLQHcYENsqoYp+BJXp0szPOg05KAuGOny74YpOkev44avhGsJfCtwjPXhxOoawNa18TjXUwde3VwKhMYo10Z6a9cUK/o35PyGrJz0ix/58CymkxqlBJz0Xor+kCsP0QVhlRrOXW09uwwJ7JZJRpYhbNty8WUVXgoWw+aEIFflnWbc0RBV/ozZeSvWtOnjA2KPO4A7Kk5A/9Z6zyFv4RGE2ECEfli1SihQZ/ZJkzI/3P3Tb79fwvHjDkmU0NJAiIGzm8ahaYQvNHW2RAqBILItIqg5Ff3y0wSaCH6oAVcboQQBBJVRJIvWSHCMQZDNwMeiAYoZzP/9RMnVpk6mBj4QtnlhYyxhx99Z8PeDL3Pnon+nygnH6VRSQyz119kFxJLS76fqFisr73pC0tncKpuRheLZBZ4dWmgzdpFNQWRZbxnwq7DSaLQI6F2F3mhGEX3mILhzYMWagiCljWThrQLSUppUY4MGIDUnEJlf7ztXi/PlJwtElqTM93c+dc97pfRjomMSJbREHd9OnxRfA/up6VbnxpN6w19Q7sFKCp1/di1q3dEHhTJasDjZXwo61mBJb+RcVgFNfZjqser1p9MBibVsqRDQlxT4MmigxUhTPSrcsYTdg9XPnzk7H8zW9V6st3p4O/bU50OjfsM6FamoiD0OToinpFaPIOhvQstF3xjlFMGKXBTHAw/IdXtXSHbILvEhaXxr5nhW5oh5ZLYMC9JXmAWYFkTAKrMA4RjUkR0pN/TLH/d20YbL+FCbxwu9hm7wVWBpYOcIwXfLODMPHUtAn4WIj6UJvfXvUzSpdwlWVBwCZ67AkvUvlRRZ2tVkCS0d0dCAeHhgWF1SC0tEkAJFg8UlRXCpEy78Q0z/+bzFJVDujtas0ZsTDwkPX4J2BFMZGtFcBalGfE8MI8wJ6Bu1TtfoihPNOxZ1Sa+yUuvFmRPiwRKmqZmCN1V9QCaJk049q1jCihzTfSa6gAisquCrLzn9vWI1TUxzq3vmgLFfmLH8HfeS+mQNw7H2PKzHaqUpZTrsglUr4NSHANOdmLpPEid9sCknfKeYXrzc6MyC6xT0pevebCQ1b91tD6+Hk3qn9UyXMWa675vpZqs/PWPtdKimmdhmYzkgRBY2MVCtEFX4paa3DzIc2C48X/ByEaTaatMp4dp2oabjjenJgu8uNRwgAGlgxSrlez4/tn24fI/nUvLInqfu2Vvp4VbmzrgwJy5DuRVeKjdX/zhw03XAFNDqezbtBW8W0QsyZMMeaz+HIzUyb7Si6V30j0GdvpMotPRNMcpU2ET09LLAryCYZk2i0ILoDpyWS3i7GYdLI2QrpyQKLb2X1JehXE6aAUAZJUlAqCPPqNBSP8jSpiMuv500m0QrxGiSOI0VWmrtK43TMTzs3jVWevPf/dKF36fhdzxPRJM0AtokF32mIF+kReq2QGDpy5drOrJJ7nqiTo9nXzAdDwuWhm8ILKelfX/pkv0dRrxHxE89tePpuw5Ug1NJAijoiIorGVzoYWksOrkO5toViJy62MCki0/VqUWzabZiFGmcpNTz6HH6x5VcO3sAk4UESIAESCCWBPSFVKO7d0Fg6SwJpggDgcW0OrW/XGqBD3xuYcXSrU8XpUSOjTXabzRm3kIDP0inm/9165N3Yt6xOgvPissAACAASURBVCWyANrwvQelv6d1lfjmo8aXD0FcaXC31dj0rSNye9UZFlslARIgARIggTIIqOVRFwypwNLFQ1OxMKYN/6YFqwyoJR6qAgtT7ureEAis873lTBNqJ+A0KS9ba/6luTn17JYf3YWpj+qVCMLIIov5Q4tzufQtvm8/g+nBj8HktgRdS56fV/V4s2USIAESIIG4Ehi1Xqmw0pWE6nOov2s8rNI8YOI60vrol/rJwvfTnIPAUj9SXfhVrsuMCBwIzQuY336oz7RvPrzp9qqzcBJaizBN2GWHP56T3K1YH/t59OpqbPAwZyEBEiABEiCBOiagFir1VW3vwNYJ1/rOvAVLrVecHpyUC6sx50RXEmpMLPXFCgRW2UYnXUD+nrH2Z4iv9tROad8iNRBZCjBUaK2640ed3sjIF8Uz98AvVJ3ScSeykAAJkAAJkECdEtCFG7pQClODgb9VILKwtenKYoS+Yak9AQ3ToKsI1QcLK3xFY0RqYOCoq+on7jkalr/AUPSEn8q8sOvH30G8rNqVokJr7a2Pzbcp/zY4838HFa9Ft2jFqt214ZlIgARIgAQqQUCtVrpyWEPZYFNfq8DfSoWW7tO4giy1J6CxDnU1r/pfqQUr+Anr1RAsWhXKNQv9cgizvr9A8IMfY03Db9997Fs1H2dBoXVBZN0BK9b30Ct1dmchARIgARIggfgTUIuVhs/QMBoaVFStV/pzVGglKbRG/K/G5T1Uy5WG3tEgyYi1FlitVGRpoNHKWK9GzzcAgfMmJu5+Jjb3bzuuPbBbEPh2MsqEQiuYLsxk7kWH/hM2iqzJuDI8JwmQAAmQQHEC6qCuflRqrVKHdQ3DgC3wuQrE1QWhpZ81Us7S4tRq+6larTROn+aPVTGlWRI0mK0KLRVcrunj3HsNXyyz34j/K4SXeibbkv7Vnifudj+6CjXHrRjc8KUHpS8z8mWssPgOrFkUWVWAziZJgARIgAQiENCpP0zvWfWfSiOsov4cFVcaRLh5jNBSa1U6QZkuImCa9KqjmUtUWGELnNpVYGlA0VGhhewBzgnZow8IqUDsnzDv+Hw257+4+7qD70+WFWts1y8XWjCr9W9tvgWhG+6FyLom+hjHHKFvGsFy2AmNZmU1zYNJgARIgATqnEDweMD/VESptUmn+zRDhVqogg2/QzDZlIorFVYTCC0VWVwZePmNMBohvVrhKLR9jWul6W50JaBapDRSu4ZdGBVYY4WW/q7ZFapbMAcp7yCTwC9933thuDP3+v6Hvy3ydHVP6tr6ZUJr9bYVy0HkaxBZN6GBaI7vGtxN57+xgiMw3eobRRDYjULL9WKwHgmQAAk0DIEoQotiyu220Gk6ze+qef9GBWwgYj2x+lP3jRpBxhlDNBsNThMINf0dm7ankdc1pVLwE4LJh7DS+FYTCS3dV31RNZYFTGWyHZlpfuNJ6sV0s7e52sFH3S7E5bUuCq2VX/hnwSX4FDKefx65pTR9jltRgYUEqUFyYg3udlFoqU6jyHKDyFokQAIkQAIkUB4B9Xnyjh8Wc/LYBWuhiqsKCy2dHiwtr2B5g7v86EHIwF0I1/B7a/zfZLPen/Y+800EIo1nuSi0mlqnXQN4n4XIglXLsWAVhz9zrtg58/Iii0tkHcGxGgmQAAmQAAlUlkA+BhXCI6gQumCRwrxecJKEmD3OYyjbMbiXPZt62W8aeXXXj7+NmFjxHl0gtDR/Yd8ZuRnWwo/AmqjzfeEF8Uf8eYvEzl2YnzIMP4I1SIAESIAESIAEqkFAfaQ0gro6nierqGo8iSG9C3nyF9/kXslmU2/sfeZuTaWD3d+J/WgDodV3rm05lkJ+GHO3C516rJaseYvFzofQUn8sFhIgARIgARIggUkjYPoR7FOFVm19pKo53iE4t++DlnrDt/KaManXW7LZP7/97H0XPOtrH3i01MHmpw6tvQ4i63o0Em7NgpO7PwvThXMXUGSVSp3HkQAJkAAJkEClCKjTuqauQWT1Oi8ZzKwdgR7ZhqnPLVAkb3vivWFMy57tNcpLWA1+6XVIGO3L4FoMbqXLCdTh3c6ez+lCF1isQwIkQAIkQAJVJqBxqvKJlzF9WH9lGPrjGETVLizG2w7n9i34uSXjDb3+/qb76280E/Q4PZIbWYSVn1dhpjM8WbQGjJuO1YVdWF3IQgIkQAIkQAIkMOkEND9gILTqo2j8COTckf2YGnwP/9gtntkNP6xdkrPv7HrmHoSLj7dze1TM6XQqB2crWeJyoNUEnJ3T8oHkXA5gHRIgARIgARIggeoR0NhVKrI0vU08CwJwCQJ7yUHIp4MQVgchpA4Y3+w1ktttvCnbLp8WvCeeoyijV2nje3Ot58PpyqEVxMjSOFksJEACJEACJEACk09A/bJMb2yc4HXu8iwMUifw8zimAE9Y8Y8j3tVhFViehdDyZdfOdOuA/PT2yYdXox6kffFnwElrRmi0flTQFYZB4k4WEiABEiABEiCBySUA1RI4wWPFYQ2KrvZDokJR01k/rFKY/rPnYKSBtcp0G4vfjZyBoDoJA84JGHBO5PzsiaZUx/vbN23EIcmaDozCG6sObQdyG4abqVSJaVodpkKIwpd1SYAESIAESKAqBMzQUN43S/MJupWdeJK/CzGUQzxTz4OpCb+nrbGesSaLfTl8nsOqv6xYXcpoNNrpEOoMYP8gqg+i7oC1th+/91gIrBQEVs6T7qbm9OGZRxdkNm/+pFtPGqhWGk5oLVCkyMwZUoK8SeHRH0Ja4cckQAIkQAIkQAKVIKC+We5O8H045fOeST2U83JZm/UhtJq8rJ9L21zKpLAP6gqaCRkNTSrr+U1+zstmmyRzuke6hg+vR0D2Bx6oRK8bro00VKomJbyYiqfhCHDAJEACJEACJFBvBOAEH0wbujvBa/iE32/76d1QTCWUTSUcw0MCAu4mqtHcSQRHAiRAAiRAAiQwqQTykeDhHuXror7QopVez1rvrdCarFBxAlgEgPlYkWxoy7oq0WVlYmhDrEACJEACJEACJFAyAXWf6u1GJPhe1yaOYPbq9T2p5sOuB7Be5Qh4nm9VZIULrUBlUWlVDj1bIgESIAESIIHoBIJI8BrSYcQtEjwc2N80xn9d6jiNTXRK8TkiLcbDpKC1oQsvOXUYn6vGnpAACZAACTQsAXMe1ix3J3goMu/1dKu83bDAJnngHpRuFiIr3KJFoTXJl4qnJwESIAESaHgCGVix1Jo15BgJ3sgO48vr7z72rYZHN1kAPOsjXgaWdDp1gGLLCRMrkQAJkAAJkEA1CKhfllq0BH5aDiUDj5/XPC/3jkNdVqkSAcQrU2d4FVsOhULLARKrkAAJkAAJkEAVCOQQSzRwgneLBI9opMgvaF/fvv7A8Sr0hk06EkB4BzsCxavRX8MLhVY4I9YgARIgARIggSoQMIP9gdASTSTtUoy8CbH1BgONusCqXp3ARwspiNyuGvIqISx/9XrDlkmABEiABEiABMYTgKHD9CKdoLsT/FnMVr3e603ZNr4x7qklAQ+5jDRJktMaUSSNRGIkhnio5QXiuUiABEiABEjADCOkQw+sWcOa19mhGNnqG3n9MEM6OMCqbpX81KGj0Aqc79wc8Krba7ZOAiRAAiRAAo1EQFca6rShm7FjWLDSMCfZ3zYSoriOFQFLPQ3v4DZ1SKEV1+vIfpEACZAACSSVAEI6BE7wjnkN4Zf1vvHk1T2b7ksqkboalwd1rNOGTlOHgX8WfbTq6gKzsyRAAiRAAvVNIAjpAP8sx7yGPiKQv5rx7Ovw0arvgSek914uJUOQT+qnFV5o0QpnxBokQAIkQAIkUCkCGtIBvlmuIR1w2mOQV69OnTq8t1JdYDvlEfCMb4aMGDfvOs0S7pYpvLxe8WgSIAESIAESIAExA315a5ZzSAf7pvjen9/4/v2kFxMC8NESiCw76NQfWrScMLESCZAACZAACZRNAK46psc9pANiAnRb8f7S1A6xxRIbAl6m2R+EmdHRosVVh7G5cuwICZAACZBAogmYQYR0UN+sETfvHmNkm5ezf2Few3jdFrBoGfXRchNamCsW3VhIgARIgARIgASqSOBCgFKNneUW0mEIIR3+kknlXqxip9h0CQQ8LyvnYNFymjo08M/SjYUESIAESIAESKB6BAwCk+q0oQw5PZ51geEea8yfGdKhetek1Ja99uzQgHX10aJFq1TOPI4ESIAESIAE3AlogFIVWm4hlbIwev3Z81OvMqSDO+Ja1fTe2HAMQtgM4IThSQwptGp1XXgeEiABEiCBRiWgAUrVCR5JpB3LIbHypx2ppgOO9VmthgQ8zeqN4GYqtMLtkwzvUMNLw1ORAAmQAAk0IgFNHG16kBPazScaj3B5Le2l/izMaxjL2wW5DrXYPvwvXDpreAe98G6OebEcMDtFAiRAAiRAArElgHhZpvusmP7zjl20J5E8+o/DfWe3Ox7AajUmEAgtBC1Vi1a40NLKnD6s8SXi6UiABEiABBqFgEaAD5zgs1mnIcP1503Ez/rTnhf+0ak+K9WeQCC0rAeRZdyElsllRTcWEiABEiABEiCBChLQ56tas/rgCO9QNECpL/aPZjgLJ3iWuBJI5zvm90FtOVq0ILIotOJ6PdkvEiABEiCBOiVg+pFuR32zMhmnESBA6buIBP/HXc/d61SflSaHQN6iJR6urrhNCKs509GkOTlD4llJgARIgARIoM4IwAdaRZY6wjsWGEjMK2kZ+a1jfVabJAKBRcv40usstOijNUmXiqclARIgARJIKoEgeTSmDV3T7YgxO4z4r2zb9N2kIknMuPKrDj2j1qxep1HptCGnDp1QsRIJkAAJkAAJhBJQa5b6ZvUi3Y5bGbLWfyWVbn7drTprTSaB/KrDrD2BYGdOU4dGl55iYyEBEiABEiABEiifgBnAerTuM+7WLDG7jZWXtz55x4nyz84Wqk0gEFpeum0AU4dq0cIihpBCH60QQPyYBEiABEiABBwJBL5ZZ/IhHdxiVGZ0yjDd5DPdjiPiya4WCK3tiCaLyLIqtIZDO6TThrRohWJiBRIgARIgARIII6BpdiL5Zom8j9DhL29dc/BQWNv8PB4ELkSGR6JDYyG0bPhyB40Or1Ytt9QA8Rgle0ECJEACJEACcSOAhNGBb1aQPDp8Qgndz8Io8ooY74+aPo+lPghcFFpYediNpaLhQgvjop9WfVxc9pIESIAESCC+BMwAvHbUN2t4yLWT+6HHfr9LWve5HsB6k09gjEXLdGP+ELLaoejUIacPHUCxCgmQAAmQAAlMQECtWdF8szQlyyspz3uFyaMn4BnjXReFVsr3IbKMo9Bi0NIYX1N2jQRIgARIIOYEAmvWuSjWLHNQrVmzTy3aE/OhsXtXELhk0UqlIbJ8tyAemRGkCMDGQgIkQAIkQAIkEI1AEDcr0krDnEFOQ4E1a/PmT0Y7F2tPOoGLQqspneo21nOyaBnkYdKNhQRIgARIgARIIBqBIG7WudPuvllWdIXh7zqmD+yKdibWjgOBi0Krr2X4hDVwiHeKpQVrVpYWrThcQPaBBEiABEigjgiUYM3C6P6Ys/7Lb3z//joaKLs6SuCi0Nr/8L3Y5yPRkvSH4tHQDmrR0lAPLCRAAiRAAiRAAk4ETD9yGka2ZpnNaa99p9MJWCl2BC4KLTjCa1h4eOYFW/Gi8T5UaGk8LRYSIAESIAESIIFwAjBSmO7T+bhZ4bW1Rs4Yedl65vcaWJylPgmMEVqQWtbDHWDDhRbGauAMrxsLCZAACZAACZBAOAHTfz6/0nAkPAmLtoZ8hvt9Ky/RNyucbZxrpC/rnDFnELQUHnoOhSsPHSCxCgmQAAmQAAmAANLX6ZSh6XVac6bIsvCbfjltvN/TN6u+76DLLFq4qG5ThzpmCq36vvLsPQmQAAmQQM0ImPO9Ys7CjjHiPBO0D/48LzFuVs0uUdVOdPnUYdY/hAvrNnUI06dxNH9WrfdsmARIgARIgATiTkBdbc6eEnPeKcudjiaDnIZ/yNncHxg3K+4XN7x/lwmt9tlDA+KZUzgsXHJrCh61arklwgzvCWuQAAmQAAmQQAIJmF5kuIPQipC6bq8v9re7Ux3vJxBHww3pMqGl88BWfNwNNnwSWUM7qAmUKw8b7qbhgEmABEiABNwIGCSMDqxZcIR3LMOIAbDZ85teZk5DR2Ixr3aZ0NK+Gl9OinjYwovJYPoQGwsJkAAJkAAJkMAVBDDjY3rOiadxszT+pEsxstOK9+sd1+0+4FKddeJPYJzQ8j1zwop1ElqiPlr004r/VWYPSYAESIAEak7ADA3mpwyRcsex9Isvv/FM7o/ywAOOh7Ba3AmME1qeJycRu+OEU8eHIbR0YyEBEiABEiABErhEYDTVzjmsL3PNomJki/X8X2/fdO9xokwOgXFCq3XY32ONm0VLVx1y5WFybgaOhARIgARIoDIEzABS7ZzB5BDWmDmWHmPNiybr/UIztbAkh8A4ofV2U7uPS6xTh4Ohw0QAtmDq0HXuObRBViABEiABEiCBOiegwUnVAb4b6YNdV+YbeROxLF/c+cw9dT54dv9KAuOElq5yQCZDNVuG+2mpo59atZiK50qu/DcJkAAJkECDEtB4WYE1y92H+RQE2a+zzd7vGhRZooc9XmhhuMh5eBSWy2NOI8fSVdGNhQRIgARIgAQanYAaH06fjBKcFLGS5E945v5qzxN3Nzq9RI5/QqGFVYfHYNY66jTiEYgs3VhIgARIgARIoJEJ6CwPpgvzwUnhWuNWDllrXhhqt2+4VWeteiMwodDKeblDmFh2smgFwdho0aq3687+kgAJkAAJVJiA0eQqmDJUR3jHghQrstmk7W/3P3yf4yGsVm8EJhRai04tP3fBTyvcVKWR4VVoqWM8CwmQAAmQAAk0IgE/FySNNtHCOewyRl6Yd2LJe42IrFHGPKHQCpJYWqNTh24O8WrVcnf6axS2HCcJkAAJkECDEDB95+GbhRCUw+EL9i8g6bfWvuinskwcnfB7ZEKhpWM2Yo7gh27hhQ7x4YxYgwRIgARIIJkEkPdXRZbpRZpg13AOIu8glNILu378bTd/6GSSa4hRFRRanviHcRMcdqIwhKlD3VhIgARIgARIoJEIBPkMz+StWRl1uXIqp7Ho7IWm5qZfMTipE6+6rlRQaDXn7A7cPiq04K5VvBisOjRqLnVX8sUb5KckQAIkQAIkUAcEzGC/eKdgzXJ3gNdwDn9U36wtP7qrDkbILpZLoKDQevuGAz4CaqnQ6g09iUaGR/JMYeDSUFSsQAIkQAIkkBACGgH+DCLAnzvtnM8QuYT3Ybbo5wznkJB7wGEYBYWWZg63vgot6+SnFWQpV7HFQgIkQAIkQAINQCCIAB84wDu7zuBBaX/tG/MbhnNogBvkwhALCy1UMJ45JAabS1GRRaHlQop1SIAESIAE6pxAEENSHeDPd0cZybtYafb8rvXv74tyEOvWN4GiQgsTyQfhduUktPKBS9WiFerSVd/E2HsSIAESIIHGJuDDswbThRqcVDSWpFuBx7z5d0+y/6YzRiyNQyBdbKhpaTuSk4EDsG0NoN6UYnWDgKWBnxZWXTQ1F63KD0lgMgnACVVaU0bam420pEQ87Mj6VgZxC/ePWMngdxYSIAESKETA9PWKOYnkKQP9hapcuV99nv/o5/wXdj793Ss/478TTqCo0Nq+6XZZfdsj+/FcOmaNXFWUhS5xHRwI/LQshVZRVPyw9gQ6IaqWTE3J0qmezG/3ZEabJ7qvBX8BiBknuQtCq2fYl1ODSPR5Pif7un051ufLSI7Cq/ZXjGckgZgSCJJGY8qwxz1mljrAW+v9fKQr91pMR8VuVZFAUaGl500Z70BOfBVbxYWWVobQCrbOqVXsMpsmATcCHm7aeR2eXDc7Lddgu3pGXmjNhdBSaxY+HldUU3UPWTlyQWjtOpuVd07kZOeZrPQOU3CNA8YdJNBIBKxOGY7GzBpxHXm/NfYXkvZ/TQd4V2TJqhcqtMT4BzwrB1weMRpLS5NqIq0AzAQTPcaSBY+jiS+BmbBY/dX8tHxscZNsmJeGJSsVTBOGFcwoysw2gy0t180R6Rlukh2nc/Lq0Yy8fDgjO/H7YNblryHsTPycBEig3giY/j7EzDom+tO1IDDpm55vnt3x43v2i9znehjrJYhAqNAa6es5mO6YdgDqST3d24qOXZ0C1aKl8bSaW4pW5YckUA0CaSzvWDUjLZ9d0SSfWtYsK6enpKnoko/ivZjaYuSmhWlZNyslN0Cw/XLviPz+YEaO92vMQRYSIIGGIYDnmjl1XEz3Gaz5cv77P2KMeTbTlnqREeAb5k4ZN9DQd/yze16Q2eu/ugRzzBsw1zJjXAtX7miGI3xnl0hLcU125WH8NwmUS6A1beRDC5rkW9e1yt9d1SKLuzxMfZfbav74FrStPl5XTccSkSYjpwd9OYcpRhYSIIEGIKA+yGdPiXcUEY/UmOBWhiGufu5b/6HdT92DiKYsjUrA6V3fWrMXc8zvO0EawE2oGwsJ1JDAFIifj2Oa8Hs3tsnfwJI1rbVCCmvMGLTFZXCmv31ti3zr2lZZOzPFGfIaXmOeigQmi0AwZYhVhqb/fJQubDXWPLPgzLKdUQ5i3eQRcBJaxpd9UOZOQiuIp4XcT+IjLQ8LCdSAgFqbPoLpvXthyfog/LKaQ+205XVKfbi+cFWz3Lm+VVZharLykq68/vFoEiCBChIY0SlDiCw4wQviZzkWtWD9PNecenbz5k86HsJqSSXgJLTmnl2k4R32AkJ43kMILIPYImbIOSVBUtlyXDUgoCsLr5+Tljsgem6ED5X6aNWiqO/WZ5Y3y1dWt8iCzhqdtBYD4zlIgAQuEbgQmFR9swRhHRyLRjD9vfG9n7/35J2Oh7BakgmEOsPr4FWRr/naoyq0DsAL8NpQIGrR0m1Ke2hVViCBcgjoasK/X9UcWLJcnd7PD2Tk6Kk+OXluQPoRpVRXyTanUzJ35hRZOr9TOqe4BdydAcvW51Y0y1HE2npm17D0IdgpCwmQQHIIaGBS78SRiFOGZgfe/zaZVMubySHBkZRDwElo6Qn8nNlr0rm9mHMOFVpB4FJYtewMhnko5+Lw2OIE2uGX9ddLmuQT2NRHK6yosHp392nZsueM7DvaIyfP5oWWr0KrKSWf/uBi+dqnr3YWWno+dbjXacS953LypyMZiLawXvBzEiCBeiAQuMGoX1b3WdgXnP+wT+Ob6F9TTemXtj55ez0Mk32sAQFnoTXFZrcMWW8P+qRm0eLHZZGGRy1amo5HVyGykEAVCKyBM/otS5tkHgKQFisjmZxs33dWfvWXg/LHd47K/mO9MjxyuQ/h1I4WacK8Y1d79Pt1PUI/qODbDbF1imEfil0KfkYC9UEgBxcY5DH0TmPKUJ9nbiWYMhTfPLP1yTtPuB3CWo1AoPgTagyBt5+91xdr3sOu8BtIl8Kqn5aKLRYSqAKBDkR2v2lhk1yLiO/FyhAE1Z+3HpfvP7NVNr34nuw6cG6cyNLjF8/tkNVLp8uU1uLtTXQutaZpX9RXLNyuNlEL3EcCJBAnAuZ8N6xZR/NxId07th35Jjhl6M6rYWo6C60g2Jon7+GHiq3QYgb6IkXPDW2QFUhgDIEV0/IBRLvglF6oZHO+vLHjhDzy/HZ5BZasPvhmFSrTO1tleldroY9D96+Y5skNc9NSrD+hjbACCZDApBMIXF9OHEUuw+4oU4anML34LN7rntEcwSwkMJZABKGFey6V2Q2z6G40ED5hPYwVGhBbEcyuvDIk4ERAVxquxXSdTh0WK3sO98jTL+2F2DopOn1YrKgo063UosFStU/LIQBZSIAE6pQA3F10haGHaUPJ6UygU9E3uN95nn1m7zPfcl6a6NQyKyWCQCShNf/4Csh8eQ8qqyd09Jp8E0HeDIOXhqJihWgEupo9uQqCZvaUwrdv32BG/vDWEUwbHpPhEJGlZz92pl+OncYCjvBXiIKd1T5dhbhaLCRAAnVIQJ9ZSK+j1iwZ0oxzbgVfGdsQ/uiptukjb7sdwVqNRqDwk2oCEkHgNSvvwaCgoR5CSzB9qFYtFhKoIIH5HZ4s6koVTa+z51C3vLrtuJztcYvndhwi662dJ+U4BFepRYXfIsTU0gCqLCRAAvVFwJxHKIfjh2EgCA8XOWZkWJZofmrTTT994/v319eA2duaEYgktLRXKc/sgL+WW0qBYbwVDCBlgbsJtmYD54nql8CcdiNzsRUqGq5hB1YZ7tx/rlCVcfvVaf5l+HH9+yv75dS5id9mu/uGpQdboaIR6edgBeT0KqT/KXRO7icBEiifgBlSvyzEy4oW/X0QJvBf+p48zcCk5V+DJLcQeYlVf3t2T0t/ageSTKupqqMoHI2qq9OHcC60HUg0zUICFSAwvc1DLsPC7wjq9H7w+Hlna9Zolw7hmJ/9do90nx+WD187T5bN75L21iYZGMog7lavvPXeKVm3fEYQb6tQUZGleRaP05BbCBH3k0C8CCB8gzl1AqEcsKDePZQDltbLaxjIk7v9VhgfWEigMIHIQmv/w/fJ2o2PbMe8tOY+vK5w0/lPTN950Y1CK4wUP3cloIFKO4oEKD3XOySnewZFLVtRitbWQKZPvTgor2O1ogqtKW15obUfQkvF1h2fWy0fv3EhIslPLPS0b7qxkAAJ1AEB9cuCFUutWQKDgGuBoeF939gfy0juV/IcVxm6cmvUepGFloLK+T5SDHg7jAkXWqLTh5rxPIsVHOmSTteo14bjLkBAU+0gkHvBMjCUhRXKecXQuHbO94/I27Be6XZl6YeT/dBwFkJr4sCmLSkjurGQAAnEn8BFvyyk2nEteCFDkC3znJdL//uO5+51PYz1GpjAxK/lIUA6R0Z2QmSpuTTcc1inD3ET0yk+BCo/diYQJmMCO1Y0Y5bzBuF8tgAAIABJREFUuYOmq9h2pI6wMgmQQMkE8vGy4JeFlYaC55RjyRpj/+BZeWrH03cecDyG1RqcQElC642f348g8bINc9T7XPgZWLR0YyGBShDI4DuxWMSGtpa06FbpgpcLaYXHu26FyohvMZtAJVaID/eTQCwIZEby8bIQMytIFedY8Je9FdHfnxgZ6P5LEMSbhQQcCJQktLRd6/tb8Wq/1eEcIhq8FH5agpubhQTKJdCfsTKArVCZ0dUiM6a2wrpf2S9CdYzX6PGagLpQ6cd3dpEA9IUO434SIIFaEYD1yjt7Ou+XFSVelpVDeGD+OJduemrPC/9Yq97yPAkgULLQGvDad1rjqdAKn9xWh8O+Hlq1EnDDxGEIPUO+dA8XNvV3TmkOchdO65jYj6rUMSyY0yGLsBXTb93aN2wsJEACMSSgeXh7z4k5dihwaYlQej0xz3vG+xlDOUSgxqoBgZKF1uEgn5O/RYzd48IymD5EQDg6uLjQYp1iBE4MWDnRX9ii5SFHjyaIvnrJtGLNRPpMrWNhbeqU5sl+X84NFe5bpJOyMgmQQEUJaLgh7yhEVs/ZKM8i2KnNH3zrP7Ft091Oz7uKdpqN1T2BkoVWfuTeFjhrbXGiMII5cXWK11WILCRQBoGj5305fD6H8A2FG1kFobVh7VzpbK+MVWv+rCmyYc0cWTi7cOi4M4PaL18Gs0U6VrjL/IQESKCKBAymCc0JRH4/q3kMi+c+vawbxm7BX/Qjw132FfplVfECJbjpsoQW3IL34bVApw/xeuBQziNFolq1WEigDAI9mDbcd84XFTaFyrSOFvkE4l19YPUcSaXKus2lrTUtN9+wUG66dr40FYifpf14/1xO3u+O8AVeqPPcTwIkUFkCgfP7MfFOHhPBS3+EchArmJ9Mm5FNGkOShQRKIVDWE2g7pg+NSb2DxRdOkXGD5bQ6L86UPKVcKx5zgYBasnacycquM8VFzdplM+Qrt1wVRHPX6cRSijq+f2jdXPnizcsDv69CBRl80CcILYgtFhIggRgRgPXKO3sKflmHIwUlxQh6ILKey6bkmW2bvhujAbEr9UagLKGlgzWSxfSh1azl4REiIbAMrFpmIDz8Vr2BZH9rS2APBM07J7LSN1J4mq4FYRg+et18+ebfrpEbV80uulpwot63Iyr8x65fIHd/Ya1cf/Us8Yp4we/vycnb6E/3cOH+THQO7iMBEqgiAV2I1X1WzNGDURdjDVtjX4ID/ON7nrpnbxV7yKYbgEDhdeqOgz91+419s0/NmI/qH8A2Newwo3PjU9qRkgdVizy4wtrh541NYFgNR7h/rpqWkoWdhd8XVGzpSsEF8K1So1Zv34j0D2aLxjNNY6px6YIu+fxNS+Xrn1klN8I3q1hIhyH4ZP1q34j8+54ROV9E+DX2FePoSaD2BExvt3iH9yHNjjq/F3Y1uKJnUGfyqrHmfxmv7aVT26+pfcd5xkQRKFtoyebNMnvNrcjI46/Fk291KB0fT8jmFpFOCK10U2h1ViCBQgR6YD3qbMFqwBkpmVIkv6CKpEVzOmXl4mkyH4JrBmJhtTanA+Gl05Apz5Mp8MOaM2OK6HSj+nZ96RMr5G8/tiw4Jh2SUmfrqZxs2jEs20/nigq4QuPgfhIggcoT0JXu3pEDYs4gWXQU53exSC/n/X92JPvUzme+WfmOscWGI1CR8Nl+duRN+Gq9hbeAT4Fge1GKmr8EbxmijvGtbUWr8kMSKEZArUcvHcjI1RBan1/RLK3pwn5YKYil5bBSqZ/VzZgO3H+sV46f6Q8sXFmorRYkUJwKB/r5s9plGerNRMDTYlOFo/061ufLL99HbkRMGxZbBVlsHPyMBEigsgTMEPyBj2OF4WmILM2z614O4wn1pCe5f9v13Hfcj2JNEihCoCJCS2/Itbc99pYv/m486m4ocr7gIzPYH/hq2ekzadUKg8XPixJQ5/Nnd43IvHZPPrigSUKMT7BOeZhGbA+2cksvLGov7h+RX+/LiFrXWEiABCafgBkZRhiHo+JhE/zuWvAXDAuAPOdZ+9T2n96H3DwsJFAZAoWdW6K2b723cMjr2MKXXcGMq3PnGjyOhQTKIaBpBd+ENenJ7cOy9WTtrEqaBmjzwYw8vXNEDvaG3/LljJHHkgAJOBLIZvI5DGHNkgjpddD6EIwEv0UO30d2/Oze3Y5nYzUScCJQMaE19+yCA8hq/hpmBvEaEV6C4KVIhRAha3p4o6zRkAQGIXr+ANHzyJahYAov6+zzWhoutV69CCvWYzjfjtNwrKcxqzSQPIoEKklAwzicORmsMJRoL/GB8zu+Nn7QOX3oVQYlreRFYVtKoHxn+Asc9+9/BE7xt1nxrDrEhzvFq3NiGjOXHV1553heDxIog4DGsToKf6mTSM/T0Wxk1hRPWsLmEUs43xFEftfVhWpB23aqdha0ErrKQ0igcQhoouhzSBStKwzV/zdKMfKuEfP/pkzbz9597J4oR7IuCTgRqJjQ0rPNueaOY75kVuKm3YB/tob1IAj10DYFoR4gthjqIQwXPw8hoGJLU+DoVJ7mHZyGFYldLV6wurDcMgCr2dsnc/LTncPy7HvDshe+YTRklUuVx5NABQhoomjkLvQOQWT1YJYkmol5D6YLv++nm76/86lvVKAzbIIExhOoqNA6tX2TzF57axtSVWvgkUXjT3fFHhVaTchF1wmhxVAPobhYIZyA+mydQGLnPWdzcgyJpzXG1RSsKGxH+IdSBJcKrJ2I+P6L9zOByNqMVY6nYTVjIQESiAEBFVlwQQlEVveZqK4oRyHKHsn56cd3b7qLueFicDmT2oWKCi2FNOeaL/db663ArzdiC23faBA5DWDa3plUxhzXJBDQiPEaPX7XWbVw+YH4GoDoSkFt6ZRisfSH6uiux7xxPBusKHxu94j8cm9G3oN4U6sZCwmQQDwIqK+vd2g/YmWdihgrC/l5rfxE0uYH7/30W/viMRr2IqkEKhLeYSyc7esPHF+zbcVfcBN/DvvDfbU0/6GmSJg6Q2xL6GxjUq8Dx1UFAuoUvw9Jng8gPc4fDnny/7f3pdFxXFd691X1im4sjR0kAZAEuIGLVq/jObbG49hOIuvIHsq2LFmWnRnnnCROJieZc/JjztH8zc+MY1uyJZJaLFGQRFnSyHKssShblqyFFMUFBCBwwUKCAIh9a3R3VeW7rwGKpkj2gu5Gd+M+qVjd1bW8+l6h6qu7fHdDBRTfy0yqDxpU6VdU6jHIh1cBtnTxuvMgYhzoPjJnE8di8bb9IFxMvKQJAoJAfiGgSdYAk6zhVOvnzuD59IpyjD0n99/TTSRxWfk1ssXXmwxEr3wclNZv7m1xWeof8cs9mBJatThGy96wmZya+o/vTJYIAhlGwIVc21IEzDPR8uJV43KixdpY7C4U8dEMgy67EwQyiABLA+nSOsODRNFIKnuOICbrVcQR/+9O8r1O7Xelsq2sKwikhUDGLVrci3VDzacu1PS+SY66DV+bEvWMi0yzVcspD0kGYiKw5PdlI8DWq/Gwg0n8gMsGU3YgCOQYAf284CLRI9AUTY1kIYTTeVvZxs9icxOv069/lOOey+FWKwIZ09G6HMCDB5lfOW/hH2iSJJGchfqHHMjIIqbSBAFBQBAQBASBqyGgq4qAZBnDqam+Y1/s/z+CGoY/c6LRF3uEZF0NXlmWJQSyQrS4r+EAHYMIHJMtRCkmbmpuRlu1KJKSGTjxjmUNQUAQEAQEgYJHQHE87/l+lNY5R7QQTu18FJ2Ah+VBt9v8pdQwTA06WXv5CCSMn0r3EBNHfgUB0zuQe2twQHxrwv2w9glPftSgQxaiNEFAEBAEBAFBgBHQJGswTZJF1KMc56GorX7R2X6vxAvIJZVzBLJm0eIzsWP2nxB4+AY+wlSVuKnZaVJQ902lEGjivcoagoAgIAgIAoWKwCWSlXr9Qj7lXmR8PRp1XO2nDnw3+QrThQqW9DsvEcgq0WITLYIPX4edigtOJ25cbJrLKLC6rzRBQBAQBASBVY3AMkkWfIzql7ZSj/c8dw+qTEsTBFYGgawSLT4l22PCouUcxMfkrFqI1dI1q1L1wa8MfnJUQUAQEAQEgSwgsDyS5QzhLX+/cqw9Xe0iSJqF4ZFdpoBA1olWzxP3IAZRHUzaqoXioGocGYgcGJ9azaoUTltWFQQEAUFAEMhXBHR24SCyC9NzFyL+hJ6xoPp+8tn7P8zXc5R+rR4Esk60GEq2aimlfg+ylZx+A/+RsVUrPL96RkLOVBAQBAQBQYCWdLKMQXj7Un8GjOLN/jnHUQ99uP/ekwKnIJAPCOSEaLFVC+11qPEeSeqktVULRIsD4/FZmiAgCAgCgkDxI6ATos6dhSUrdQmHxRf5FwzD+mnXzjNHEZ9V/IDJGRYEAlmTd7jy7Mu2f6XXILMRZOsG/FZy5e8f+27FUBsFPJCLTXu8H/tZFhQIAkyaWcl5apyM6Un9hqpYOtCFS0/lhOcXCFDSTUFgdSOgaxee64UYKcrqRFJLEGSShWfLC7Bk/d/OHWcP0wMPrG4w5ezzCoGcEa3xjpeodusdETxcNwGBxLpaWElFo5pkcS1ETbqkFQ4CiK9jgmWMDEJgcECXyzDGRnRGqX5rRYYpeTwgXO7COSfpqSAgCGQeAb5X4CVMF4hOvawOS75rkmXb1o+7zZL36Cf/KfN9lD0KAstAICu1Dq/VH3fA/FMk7PwWfxk3Yp3EFaTxVsOV2VVZBTkVVdfarSzPMwQ4tk6XVBoFscL8chVnbczHTVVNTUJnDUS6fh05YrHMsxGU7ggCOUKASRZbuwd69b2e+J6QQvtzkhV4V4pEpwCerJozBHJm0eIzGjp6gCq3fGNOGc5GfGXF+IROdMV/eCasHmzVMnPKC3M2CEVzIBR41bF1yBTiQFY1iczRGFzAV2sYV7UA94DfT05JEFdCwkvhanuRZYKAIFCoCHBYAbLLjYEz+qWMOFwkhSYkKwWwZNUVRSCnRIvPtPTTXxsyo1QFU+8ufC1PePb8x8h/gF48kAPyQE6I10qswKQJLkEOYOV0bHYRJhVjARLmeOEahsWSzJxfiiuBlBxTEBAEGAHc01kv0egHyYKcD9kpV8YZxzPkxbi7UCxZclHlNwI5f7pxDcSqbXfMwITRBCNGG+BJ3IcoiBZbPJhoiZspf64o3CzV1ARisM7DgoU6ZKNDuiZZ8vpneCf1+sC+wbdlXPNnXKUngkA2EUDsrXERISFsyeIqIKlnlo/iafA8smp+3GUE3hN3YTYHS/adCQRWJMJ8zej6TkXOr/FETk5MzmETM8f8sA8/NfNyJkCSfVyBAFuwMB78Nmqc6Y6/lbLAbDpjs1RMXEAWBASBokdAIe7WGD5Hqv90uiQLDwF6Rin7nzu3nz0kJKvoL5miOMHE1qQsnObZs/uocsedMP0atdj9TkxIP0vQ2H1oQVOrJIC4nsTqEAn2Jj+ngwDeRHXgKtKvtYsQGUIKJZPSeCP96OjlleRU4TKQ7MN0RkS2EQQKBgFdUofvG+f7deZxGg26D9SuLPXTkzvPHhUJhzQQlE1WBIEVIVp8pqMdB6Zrtn5gwSO4FV+bkjl7FYtA5gFdDsKFKA/mZCDLyDpcd1JbsIbhIuQb5UW4CJdLsLhnLN1RW09OqFqC4TMyUrITQSAfEUBm4QwkXXRJHQiRcnhB6o2LQj9pO/ZDXc/d10EHb0t9D7KFILBCCKyI6zB+rooWzPCrDjkv4zubgxM3aC8ZY/DtswuRdZikZQ8BdteyDhYHuPf2xF2EHFOhXYSppWBftZPIIHUqa0CyakQj7aoAyUJBoAgQ4GQmTpSBqzDNkjqIMKGzCHzfayrjwe5n7+9MIlm9CICTUygmBFbMosUgahHTbXfOOoo24OtmTImJHz/kOUOF3YfiQsz8tcjxV9NQaEawqjEEkoVJF/mGVSv5IPfrdUtRaVkJBdY1UKS+iawAZDtE2uF6gMlvgkBhIsDJMpxZOAAhUpZvSO8FrQtPhYfJZT928un7ThcmENLr1Y7AigtTReYm33cFK17AQ5wzEFlbK2HjTDfFZRp8JeQI2UqIV8IVWDRwAQW8QbA0tiwoinIYBF2szJCreA+8fi+1tVTT525cS1RVQ7+94KLjI2KZTDg+soIgUGgIcNA7i01zPNb0RDpxnFzk9jimXyjLeOZk+30cnyVNEChIBFbUosWIjfX8mup33T5q2aoG5uHtWJS4sCETA12exxPX1pLyPOldfKy8D4V2jrniAHfFMg3smuX4qwy6Zk2XizY2V9FX/mID3fXFTfTlT6yl7WtLaB75DT3jFs1FufihNEFAECgGBNQ8Qg7YEn6uL/7CxpnFqbUY5BsOIazkx47b82BX+z24IUkTBAoXgRUnWgzd8PHnp2q2H4NvirgO4npMiWXC2QzNmYhs0YJlS9xPSV6EnDk4C9cgl8fh7EGeUI9Q1yDkQq6p3xSveWAFEdI19RX0V59qpt1fbKXbP9tEW9eVkcdlkM+lqMKraGjOoTMTNlkp34uveVj5QRAQBFYCAX4BhiWcCZYmWiBcaTRk3tAfHcf556ix8ETP/vvT2IVsIgjkFwIr7jqMwwGhB3r6dVvNH0DgYwuWNScDk7bGIFjbhuilEyhNZpPVuQ6XxkFgu06pnp3BZ2QAYa5rEGaQWC2Bq2BhrKkupU9sr6PP7GygT2yroabqj0tybAyZ9G9bPHR2wqKjw6KPtjovTjnrokCA47G4nA6Eizkui9jjkHpjzYfXHLJ/GoxEXjn04g9T34NsIQjkIQKJLUc57PT23Y+1Wo79DzjkPZj8SR0aEgH22mY9ibr4ImKc6cPWKSZX/FYJVyATK02uItkhV3xkJlihUIBu2QaCtauBPrWtljbUBa5rbJxccGh/xwLtg0FzeJbDMqQJAoJAISHA9xrFki+QfuEYzzR19UbxzveyY9BDLvK/0dF+VyFBIH0VBK6LQJ5YtOJ9PLH9VM/WYxufJQOB8Q79xXV7vvQj/5Gz+8sfIBuaTFpna7U1tkpxtmAYAe0sCghyxRasS0Qrw0HtV8LLBKu6KgiCVatJ1icwb20Ikmkk5vHlcB9+cb2bTsOq9XJPBHFb4kO8El/5LgjkJwJwFc7iXsP6epj4fpOmhRwaWeo507D2dFDgiKi95+doS6/SRyDxkzD9fae15cbdD5KbfP9VOfT32EFSLkQ2mbDopb1+EzkVlWkdt6A2YmLF7kB2/YFc6fqCYRCsJaLFc45fy3LjGKxauAhvBbG6ta2Obt1aQxthwTKSIFiXd83G6fzpXJR+cihM7w5Gib9LEwQEgTxGAMkyXCVCsc4e6xqyBT31xn/p3XgIPUGO/dTJZ7+Hkmx590hK/axkC0HgCgTy8qpu/ebeFrdF/wPvS+xChAx8Eo0FMOsayG5siWciJrFJQazCpIrjH/hGxgrti+Tq8s+aYKWnUZMWBC6Pm9Y2lNMtW2roxs01mmCtr72+izDRgTjz8CVYtB4+EtbWLWmCgCCQpwho6QYk02hXIYpCp5ehjJuaeh+6yI+QO/pC11M/gElMmiBQnAjkJdFiKeCtf7P3C/AD/iNgxzwJIVMeHy7pUrcGLsSGuMYWZAW0K7EQBDE1ocJbIpcZimBiixWTq8Xpz4gWL0vv5rasq9hX4qXWpkq6GQRr56YaumlTJa2p9GfsHXQIMVqPH1+gpxGzNRaWeK1lDZZsLAhkGgHOKuR4T5aC4YllYNJLpuEaPG9AqPrn/qj9zJHnJbMw00Ml+8svBPIqRusjaBR5/I8ejITtzeSoRixn2YfEjeO1WAuKs+tYzJSJFtdEhLVLTy6TnMs+Ly13WIeLCVk29bgQoM6K9ooJElufYnDtcVwVu/g4Q0dPIFdXEi2Or1oBUrUEtjIR4F4RoB0tVbSztVpPuzaEKBQErhludQFDZyH2T1n06pkoLYjmQ4YRlt0JAmkiwFZ1LqUDV6Eag8p7eq5CPjhSEtVvQLIemSXf77qel6D3NEdENisgBPLUohVHcMe3HmmMxcwf4dv3MaUXfKVAohBLlBTR4vWYcOl5nHzFSRg+837YMnYlYhxlwG91ekK2HyaddcOBRlwqiD8zmWKydD2ipUsL5Y8Vx+PzUtOacrpxUxVt2wCSBaK1aW0p+dzAIYvNAgRvDETpZ4fn6fCFmMRrZRFr2bUgkAwCHJqgRpFViJdYltTR97V0GmoW4v75jG0Zj3e7vB9I0Hs6IMo2hYjAlbQh785h6+69t4D1/C8QmX+PziVWjV/OGTCRygrRwo2JCVieN9PtosrKIO3cWEnb1oeotbmSbtwYovqQL6c9n0W81sunIvQI4rVYOV6aICAIrAACLBPD5bg4q/viBZ3RnGaDKR/ldBz1GLmsZzufuv9smvuRzQSBgkQgT12HH2EZCC0cmh3170OU1lqEbn0Kv2SPHC4Gnl+esZe9g+XH9cKuQS7yvKUpRNtBqjasC9EOuAZb6oPkzbL16loIBNyKbmty0whitp48sUAXRF/rWlDJckEgKwhobayxi1q6gYVIl5Fsw5oPb5JNe2yP+8nuJ7+blf7KTgWBfEagIHgESz54yPef8UYEyQdnYz4DWgh9M+AaZXK1cV05tTVXUDNchFuaQ7S1sYzK/PnDvc9O2rT3aJhe/HCBpiBsKk0QEASyjACHP8ygcsTIBZTmghUr/YB37ugFeCJeQTzFvhkVODggIqRZHjzZfb4iUBBEi8Fr272vyXYcxGup+/E1vXitfB2FHPSL3YLlCGpvWVtGW5sqqLG+nFpAtJhcVWYhsD0Tp8TU6hhK8zz0fpgO9kpwfCYwlX0IAtdEgJNxxkdRp5CtWKM6OSfNxnES3SBZT5uGa/+J7T0d9MADae5KNhMECh+BgiFaDPW2rz92s63sf0Ao1dfwNbkSPYU/RmmdgQJIXr+X6mpKNZna0FBGtfjMRGszgtorApnPGkyrowk2iuGW/SaC45lsvXchShwsL00QEAQyiMCSFYvL6MCKpUt1pR9Tish5eleRepQs9fLJ5+4dzGBPZVeCQEEikD9+oiTgqxtbd3iosu8XtqJqMMTPY5OC6n8Sp5j+KiBWHp+HKlFrcD3iq1oaSqm+OniJaDXVlKxYzFX6J4UBRpLjrQ0umlzwEgfJn7gYS1O6Zzm9kG0FgeJEQMdioQi0GgbBWp4VCwA5QyBYv3Uc5zGl/P+v4zmRbijOq0bOKlUECsqixSd3y+0P0qzH+21ILfxPfL0p1RMulvW5/A0LiFZVlFATVNm5eHMt6g1WVi4RrSCFCsRqlcyYcPFproXIxadPSSZiMpDJOoLAtRHgjMKZqXgsFixZy4zF4tTgTrwBPatso/2ky3dcpBuuDb38svoQKDiixUO09c59JY6L/taw6b9A+K6l2IeNg9fZDVhW5qO6kJ+aa0toTVUJvpfAgrVItEC22B1YCCL46Y7XyJxNz3VFkIkYpnPT4kNMF0fZbnUjoHWx2IrFbsJJZBSyWHL6jf2MbyFR6QnDsH/T0X4/IuilCQKCwOUIFCTR4hNYFDP9j/jIYqb1BT+sYEgGlOu9cP8FYamqKPNSbbmP1lX5YLXyU0nAR+WlHxEt1rbysF9tlbUBECyWfDjQtUBMvKQJAoJAkgigGoWamiAFTSyD1d1ZFyu9EjpLB+xT5LzsKOOpQHj+9UMv/jDJjshqgsDqQqBgiRYP06ZvPrrNZdk/QgUuDgZIORPRQIkeAzpSNlTbHURZI7YgK6OvoDLPVinTbZIb2X9er4sCfjeVBxBTFfRQTRnmpR7y+z06zioY8FKoFESrIk60QljHNAp6qDKKK7sOHzu2QP9yaoEmwtkZs4x2WHYmCKwkAks1CkeHQbIQ8A4R0mWW9UJgF72vbOfpqIte6Nl/36lsyhuuJHRybEEgEwgU+NPbQSbi4zc7hvPf8Wp2BwAJpgKKy+uhtk11dPPmKgogrD4WsyiCNLfwQoxmFyw98XfOdIui7l4MH/gzZCb0YYxFP51pKnKDsLkw5xI1Po9BJR6TAl6T/JhcTOhgrXJhcntAtDAtEa0QCJYmWiBTKyUQmgpm+bAuo9950dLxWr89ExGNrXwYFOlDXiKgFsI6yF0TLBYexfflNWcIbsJ/BdF60hezX5KC0MtDU7ZeHQgUeNaeopPm04c30/zPTIeCeAB/GcOWdL0YG6Z0njatr6LbbqinUq+iSNSm+QiIVjhOtKJMtLDjaMwB2bJ17T2L/0FbsjLx3AU3nhtEi8mSnycmWj4QLcxdIGHSMocAvx1sqTLp7u1eimBwXoPG1kxELFuZQ1j2VPAIsJtwmt2EQ3E34RwLtC/rb4RFtU4gq/CAY9jP14+sP3bw4G0FD5OcgCCQCwQK3KIVh6ht99MgQHP/RmciOlr2IWmRKANuvS0tNbT7K9voSzevoepggXPPXFw1eXIMJsBHIWi654Mwvd4XpTnIP0gTBFY1ApxNCB0sNQY3IbsKp6fiRe2XB8oIHhQHEVqx3/Z4nu1+8u7l7U22FgRWGQJmMZzvSEc7+bbffcrtxKbgzWvEOa3FlJQZieOyRifmaGB4hgy3mxqqAxSEJUpa/iPAYWu1AYPqMI0hVmtwxiYYJKUJAqsPAY7DCs+h+DMsWIN9ZKAQ9DKFRxlDfnU5hj+zxw1l/7ykMvLa8X33rz5s5YwFgWUiUDSMYgpka+0tX++KRdUsbgxMttZgSopswQpG45psTVOUTKqrikslLBNb2TwHCCyRrfqgkK0cwC2HyEMEWHTUgAXLGBxA+ZxzOrOQrNgye4pYLKKXcQt9yFLWT7rav39h8NBLy9ynbC4IrE4EioZo8fANHT1AoZu+0WFahLxlWocpebKFlSenwtR3YZpmEY1QU1lCVcj8K2ZdqmK55JlssVVLyFaxjKicR1IIcG1CBLirCyBYF/ozoOyuj4qMQvU+5vtQDPrhYOXCayd9eCEiAAAdE0lEQVQe+9ukuiMrCQKCwNURKCqixac4duw5qrjpG8eVZYeVMpqxqAFT0rFos7ML1A+yNToTpVC5n6qhZeUSaYWrXz15tHSJbDXAsjUFFfnBWRuB8nnUQemKIJApBLQe1rgu/mwM9mtrls4mXF6wO0dRDEAX6wVkFT5oGtGHT7b/YFisWJkaNNnPakag6IgWDyaTrTU37u50LGseWTJs2WJB0+TciFgxHI5S/9A0DY7NQygUelZQX/euQnHQQvvD0GQLRGtNqYEsRNIxW1DokCYIFAcC0PvjsjnsHtQEiyUb5pedTcjYTGP6I+6Qe0mZe7uU782R9nuLAzM5C0EgDxAoSqLFuA4fe85et/mOYzFFiHJX7EJky1bS5xuLWnQeMVt9Q8jgcbmpBmSrVILk8+CSvX4XlmK21paaFIYkx+CsQ/OYSxMEChYBJliz0zrAXRMsLp2DzEJChuEyW0w51IV97Mc98iGI0ezvbL97lBDvKk0QEAQyh0DSxCNzh8zdni50/sqp2nT7cWWoSVIGEy2ektZvsKGXNTI2Q2fOT9Es8m/YlRgKenFPyt05yJFSR4Dj6moQs9VYZmrdswtwI4rOVuo4yhYrjIDNFqxFgsVxWJxJCIsWSllkomMX8GfyCqjaw45BT3a1f/fYSMeOTOxX9iEICAJXIFDURIvPdbTrBVpz69dPWlFC1CjVYRFbt5LW2eJ9TE2H6cy5KRqeCFNJiUfXHvS6hG3l818Tj06V36AmkC3oyNIQLFuTiN2SJgjkPQJLFixYrrQFiwnW8svmLJ02uwn/5Ch6lJT9iKlKXu1s/w6W/VPewyIdFAQKFYGiJ1o8MJyN6Nvx7W4PRYcRs8U1EVlny5vKoHHcVt/gJLISZyimDE22Sv2u5KPsUzmYrJsxBCp8iprL4RQBMR6CZYv1tqQJAnmJwFIMFhMsbcE6n0mCFcXN6iQi5p92bPVzy2c+0f3UfcOsQShNEBAEsovAqiBaDCHrbNVC1NS2o/3IRgxgEZOtklTgtVCCZ+jiNJ2GdWt8LkYlfi9Vlvl06R1p+YtA0BMnW+UosXRxHgK18/FSSvnbY+nZqkJgsVyOjsFigjWSUQuWDZ3AXpCsl+BSf8RxWfu72r93bOzYDasKYjlZQWAlEVg1RItB5re30R1391da1hkybIRa6YzEslQHYHomTKcHJql/ZJYspOpUQgIiKNatVGHM6fp+t6ImWLbqSiD/gLqII3OoXbnsWOKcnoIcrNgQYB2sybF4kPsSwUJMFsGylaE27CjnVXKMfQbZ++ouNv/+0EtfFzdhhsCV3QgCySKwqoiWBoXJVudzQ/Xbj5+CGT2Ct721eNtjd2JKZqloNEbnh6boFKxbY9Dc8nk9FCrzkkesW8leezlfz4uxWYeYrXXISGSNrWGQLclIzPkwrPoDKmheqfGLcZmGC5BqYJmGzGQRLmGLiHn1Fu5ojxuWuSdcZr3Y8+T9Y2fP7lv12AsAgsBKILD6iJZG+Z9g3TowVrXr9h7ckCZg2arBwlpMKeHB+oCTU/N0qn+CeiEDMY+Hd1nQR2V+t2QmrsTVnMQxWQ6NRU2bK0w9RsNzthY4lSYIZBUBLvYMzSsDhZ51mRwmWKMjuj5hBmQalroOUS1iVff9UHd/OOZBHNbT9w5OHPlVVk9Ndi4ICALXRyAlYnH9XRXer6PHX5hu3HzHYUuZuOM5pTgDln9IKUiezzrKmlsQOO3pn6QLEDlld2IFYrcC3lUNb95eECz/UI2MxPVwJQbgUhxDzNY4guRZCkKaIJBRBHT81WS82DMLjULNXY2PkoosW8n98m5yisdxaGI9Yyva47jdD3btv6eXhZulCQKCwMojsOqZAGtt1e74dqejYr0oPwF7h2KylXLcFg/lDMr3nO4f1+7E0ekoGS6TymHhEimIlb/Qr9aDMgTHr4dlqxaaW6yTNopAeSnbczWkZFlKCMDUzYWe4/FXKJPDBIsD3LnYcyyKXWWM0aP+gdOFox2AdXaPoez9nc/cd2T0+K6UuisrCwKCQHYRWPVEi+HlIPmLd904UD0a+hD3QDa/syuxClPSZXuWholFTkfHZ+nDvjE6PThNE7NR8iB+qzzgkezE7F7Lae2dZR9Y/oEnPLCQlSjipmkBKRvpIHY1h0IUcAlqaQauRXhxWC/LYIA7I60JFl4Kf6XIeNTlsp7saOt9e+Qnf48DiR6WXIqCQL4hkFIAeL51Phv9abnz0Rq3i76Ep+7duJl9DscoX85xKioCtHNzLX16ZwN9ansdtTQEySdip8uBNCvbso2hd9Km356O0L/0RKhrLEYxyUrMCtZFt1O2XkGxnS1W7CbU4qLLL/J8NZjYHHYa0+8RV/o7pZw3O7af6aMHHrjaurJMEBAE8gQBsWhdMRDjnQfmgp/82jFXVJ1BzAMCLBQHyVdgSouU6gLV5yaos2+c+oZnaWIubuEKImBe9Lfy5K9gcXBZ3LQlBAkIBMtzNiK7EqUodf6MUV71xMKtgesPIrhdsf6Vtl4he5BL5CAuK8MtgntRN9TcX8QL4GPKbT/R2Xb2jZGf/LdJOngww4eS3QkCgkCmEUiLPGS6E/m5P4e2fmvvehU1/52t7G/iDfIW9DMlgdMrz0shCru6upR2bqqlW7ZiaqulTbBwlXhS9lBeuWv5nkEEOE6r42KMXoF163dno7B0WRIon0F8C3ZXDjIHwwhiZ+sVW654zsQqO9YrhgkHA8EiekM5zhvkdt7qtAJnqf2ugoVQOi4IrEYEhGglGPXW7zxO7ojzJcexv4G3yS/DrtWMTZaFG28cqgzS9tYauhmE6yZMW9aVUYVfDIwJhiOnP3Mx6j/0RenlUxE6MhSTwtQ5RT9PDsYaLuwahPWKCzxrYsUEC1INGY67uvyEoflAJx1y/oAYrD/EbOOdnl09A+IizJNrQrohCKSIwLIIQ4rHKtzVEQPRenJ9iztmfMVWzp0A7ZM4GZaDWHYrKyuhzRur6cZNmDbXUNuGSqorEx2uZQOboR2E4UI8PmLRr0G2DvZGqH8aFU0yljSWoU7KbjKPAKu2I4idyZUmVjzNgVxhebYaLiukJTrH8B73Ju4xbyCL8L2O9u9dWOZ7XfLd3f00tSEXCHY7Mhav8RhroaCVhsJ06KEfJr8vWVMQEAQuISBEK4WLYde9jxLkbz6vbOdO3Ie+ivtRCzbPiBnK7/dQc2Ml7Wqppp2tVbRjUw01V/uJS8dIW1kE+JlzHgTr97Bu/QbuxKPDMZpGGR9pRYZAFHWX50GuWKWdrVezIFewZFGEk/yyNt684yHEXx1mgoXPb6mY87vOA/flDNxb/u5BCo8HoP+HuDPbIJTtgfHeQcq1IuhyQWKQJ3zGMmtuknp+/aOc9U0OJAgUAwLyFE95FB3a8a09jbGo+VeQFr+dHBuZiaou5d1cYwPTNKiutozaWti6FaJtsHZtaSynWli5pLrPNUDL0WIOkD8B69a/no3Q6yBdZybwaJLMxByhn6XDXE6u2D2oJxCt7MVdLZ0IIuZVn+M474LRvOVY9psuM/BuR47jr7Z87WFSHlc8FgKEilkfG7E0rQS5YpbFROvSchBOn+XQkefvz9KAyG4FgeJDQIhWmmPaBjN7LLZwg+Gyv4pdfBV3opswz4g7calLQYidNjdV0bbmCtq2vlKTrpb6AJX5JHg+zWHLyGZctuftczF69UyE3hmM0UV8l1YgCLBlSrsFZ+P6ViBVai5n5IpBAoujLliI3oE88juWQW87UxMnV8JKdMvtD9KMz6fdhJpYoUG0GUQLlitz8ZqOMgnDrwqWLmDHZavYssXKvl0v/GBxK5kJAoLA9RAQonU9dJL4bePuB8lt+W7DW+mXcYOC/pZqw2a+JDZNehXDMKiqKkibNlTTtqZy2oo4rk1NlbSuEmV+PDKESQOZwRXZknVq3KLXELf1Wm+UTo5aNA91eWl5iADXGeSSN39GrhaJFgLds+gWXAKDqcww2MoHyF5+B265t+GSe797+5lzKxngvnn3PpAsvn+wo3DRgIXrWtfHQOatMoCb7aIIW7FQJDTmwLXIti/8z+K+Xe33Yiu5/+ThFS9dyjME5K8kQwPCQqcu0/ksXgb/Gvee27DbTZg8Gdr9pd14vG5aU19Om5orqWVNKbWCcLU2VgjpyjTQSe6PC1JzzBa7Et8cYHeiTVEpmpgkellcDaVu1Pw8EbIDtfUKsVdxooWAdi6Dk72Yq8tPKoz7wRncDw6BWL2Hm+07EQq/dbp95YPKt965D0QKBGsx2J2tWhZbrECy4q8Llz0asNy2UYTdFUOkBCK3mGuxUQsnderAd7M4iLJrQaA4EBCilclx5OzEo63rTBX7LPJ2vgiT+1/ihZED5jNOuLjbXp+HGuorNNFqXQvS1RiiFkyNVV5YusS9mMmhvd6++ME0DCmI9+BG/EN/FG7FKJ2fsUV763qgZfo3bbWCdWqRWNH8XDxLkL+HQbggMJqjxpfDCP5B9qBzyFDqMFjKYWUEPsx1/NX1znfL1/eyNxB8kx8BioJV8zQ35l+0bfGWbITDb9qviDsZPpqE3535y4iYRZ3P3H+9w8hvgoAgoP/CpGUeARCubUc3NTsq+lm8/n0ed6q/BNStOFBWCBefQJx0lWuytRFxXM1rK+JTjZ9CJS4JpM/8KH9sj4gRpv4pi94aiBOu96G9NYr4LX7ySsswAkuxViBUFAapYmLFn5lY8Tw3LsHLTwqmMsXlcd5H1t5hjPkhN0XfONHOcUz5d5vdtvvRuFEPpimOxupuv4+2/Q2W8X/MrbDUghULVnrde76GvX6FrOvFq1mv41DXM9/L8MDK7gSB4kPAVXynlAdnBKJ1EqXzEH/R23Ziwx9xq/oMRKU/hzvWZ9C7rZgCme7lQjhCZ8+O6MmDLKLq6rI40aotoeb6UmpeF9LzhnKPSEZkGvzF/XFW6HoUp24ImnRDnQuEK0pvwbp1bNiisbAEzC8Ldk2s4A5cYHcgSBXIlZ4vES3OEkRR5xw3NpOdgx/tKCxDRzD8R2Km/YHHLjn1kfXqP+S4S0keTvMlzZbIuEKgRge8K5M8IGF6NXxn+3hlfyMN1PWSGUOkFpbBap/kwWQ1QWB1IyBEK5vjD8LVQcRFX/u2dDb+QUXdt+Cm/GlNuBy6ge9d2Th8JBKj8+fH9PQn3BFLIYrayBauulJqAvFqrC+jtYjzWlvlp5pSN3mlyHVGh8GLB1dbtQnSZdCtDS56+3wMU5SOC+FKHuclixW7/dhipefz8TkTLCZcma8pmEz/mHtcxN/wSfwNf4BuHjFs84gTixzuLKAsPNbKYhbF1qponE5dOnc+QZT8iZuxsIKDmEPOPDx48DaUJduzuB67EzUNkyYICAIJEBCilQCgjPwMwtUFzUvs6/zOu594JRaOfgZ50mzd+gxuVVxDcQ2mrLweckr21OQsneAJrI+tXVVVpXGiBUFUJltrQbzWMfGqLqHqoIu8ItiVkWEvgdgsW7Y2VZr0yTUuekcI17VxhTVKZwZyLUGQKF1TUM8XiRZbrFaGWOk+4+90ApyjC39Px/G3ewzqnkfdXnfH8S3dQyuZOXhtQK//yyLP0hTLjF1x62Fytbi55lJ4WYs7EGHpWoDcgwtjxURMmiAgCCSFAL/QSFsBBFjDZt7nuRFxEJ82lPMJOJZuxmBwHFcwl92JuxlBvBrKaV1VCa2BZER9TSnV8VRZQnVwNZZ6Da2fI215CMxB/qF7zKJ3ETR/GNOxkRiNIIZr1SUpInBda1kxeeI6gmydArFammuCxTFWuXcFXjnAKGxIp8ApjiOo/biF8jgw/p7wh8J9hV6OZsvuPSBLiwQLJ9j5LMdoPQZCtUigXDa58Dka5SxD9hMqCgcs8s2wn3FxHUTIdz4rWYdXXjTyXRC4EgF5fF6JSI6/f+ELr9FQ5flm24jdiLfEm3FDuxlduBFTA6aMlPdJ5ZSYeIVCQajTl1L9ItGqAwGrrymjuuoA1VX4qCro1nFecvGkguxH67LCPMtAvH8hSocRMP/BkEXnpotUZX6JVDFxArFaIleXf9YEC/FXOZJcSDRomlyBWcD+a5+AJafDMmHFmpo6tRKiook6m+7vbdDQWiL42qqFP2YLxIltV/zdgH5W3dgaGqrux3dO6EBEFsbS4VTFxT98y7bow+e+n24XZDtBYNUgIM/KPBpqLodBbvetEAq8GXc0tnDdhJveFnSxfKW6yW+zJQEv1TDRqgLRCvmottRDVSE/VcMFWR2Cu7HcB5ejm0qhWC9ex+RHKgrDzgCyFI+AbHGGIhOus5MWseWr8Br6HINLKQpCxaSKLVV6jjqBTLAuJ1qsY8UELE8aes5uwR5NrpRzElSjA3m6HbOBWM/ZvffnSS8z3A1UttjiYFywW3YDxvW0kEzgmFqodAH/sd7XVli+mGRxrUMmwpqKxT9CEkIKTWd4VGR3RYqAEK18HFjcBFutyDq3snc5hrMLd7YduNPtwB2PNbly6lq8GjwG/IiBgI8qF4lWDRMtBNVXl3mpqjKgp4oyH4WCHi0tEYTrUQjY1ZCML2PLwhB0uE5ctOg43InHIYDKSvNc2ifv3IocmwNNKsUECu4/Tah4vjjFydVlRCuKxDyk3OZZ4/TEEXCGbpxON6hDF94nTsYs+6QzP3O6mCxX18O9DSTK5tBQDA8/CHQBaXyPqDmQrL/DEkVcaswmZHgyu+KV+B0AoNm4B7AkhDRBQBBIjIAQrcQYrega67+3h/zTUJk3DCZaO9CZHXj/xFytx+eSFe3cFQf3QrU+FApQJabQEtEKuKiCCVc59Lwq4sv5e1mJGzUbIYEIF6TEf30E5EzEodMoVs2SEJp0YeqdsnNb3ofJFALPVYwJFKxPLKtw6TOWser6lUSLrVQrH1N1vT8HVmmHFAN14++o2zacLjjIuizL6C6vnh0o9Jir65349X7bAj0tdhfqtjjjOYdlMfG6ZMXSy3gFLERAQ+d+IVnXw1V+EwQuR0CIVgFdDxxAH/YF2mJ2bAcGbjvufG24723FjXE9TmPFLV3XgtKNuK/S0suIFlyP5YtEq5TnpT4qK/NTGYpolwUQfI9lpSBhQegk+EDEVqM1jGspspWr42IMEwr4wsLFgfSDUJyPsDLqchpn+LFSOmfx6TlIkiZWPF+cYIm6KtHibfLPQnU1NNiMNoa/kTMwC36ITvcow+hRNnXHPK63u7d0UyFmC17tRJe7bMe3f0kxEGe2Zl1NsoEfEgwmhxE4ZpS6nmIRVmmCgCCQLAJCtJJFKs/WY5M+2XPbcQPcijsg4rh4cjieizMXWZ+rIMbW7XZRgAnWZUSLrV2lfpMCIFp6KvFoV2UJ5kH+7HdTwIeAfPzmR6khv9vQhMwD0xi/iRdbm0XMVt8kGAKIVtdYjLpBuj7E52G4FpmQ6cYxTwhOVmxV0hOTqI/mf06sQKKuR7R4O7ZqFV6DOjv1w8t1GsYXZAs6PciX7XFcTk9gLtx96MWVrzGYt5DGwxXIZcQLR8flHOI+RYX6ho7bovoL67WWljRBQBBIDYEifCylBkAxrN361f9DZrBiA56sIFrGFsNWW2zlbMbgMumqx+Qt1PM0TJAo1HRkMqYJF5MtEK0SEK0SJlpMsphsIe/e54EFjAmY36O38XmhCQZrmscNlWtMbqzrceGzC3N8Zr0wN7ZzgaDxhENdmufqD4ONUzH8w4Qpijlbq2IIzIpaKE6N7MQoflhAkHkkgnnUopEZWBSGI3TsfJg+HJqjqRm48kCwNKlKimgxiVpiZ4V6VVzqN/QhaBDTGcB4GvYWTMYZSzmnUUDmnZ7tfWK1KvghlhMQBAofgVw9TwofqUI5A7yZttFsfYyMVijgtOKtfiPsPBvxdMVEIGNUjakohWpNMCWOE7tEtHwgWZcRrTjBWiRaTLZAsjwgWy5MpiZbi0QLfxW8LxMLXKap54rT2tE4EYB/43nCxkHDIE0WSJPNnzFHwLWeWyBG+jcmWJgvES0mW0y8mGhFmGjxHARrASmKCxEQLrj0eB4OR2lyOkxzc4tEqzAtUAkhvGIF6ECoQSSG9ALQXgxKL9zmZwxlnI4p+3RpKHxutcZapQqkrC8ICAK5QyCJp0XuOiNHyjwC8biuklbLdlocw94Ia9cGuFY4e5FJVxOmEKY4i8j84Qt2j5poYXLBAsZz5Lzrc2GC5dLEK4k/HZAfLl8Sg1uPSZWNuQVGxfMYrFS8TNo1EWBwZjChooLTB1dWL+a9GIU+aDmh4J7VG/ahtGexyi9cExb5QRAQBAoNgSSeFoV2StLfayPg0MbdD5GHPDsdx9iIOJxmEIZGXARNeKo1YjsmXjWYPNfeh/wiCGQFAUTh00Vci/24Fgfw+RxeCPqV7QyAr/ZZ5Or1mJ6Bj4o1Z6UPslNBQBAQBDKOgBCtjENaSDt0qPU7TyC7zN5mWjYIl2qCJ6sJAoaNMNkw6VqLiRXqSzHJtVJIQ5vffUWkPo3jijqPNLdBxFadx3V3DvIBAwi8HoD+OOZ0tNPlJ2q/K7/PRHonCAgCgkACBOThmQCg1fbzOsR4Bc3Z9UbM1Wg71jqIXDXA8rUGD8QGkK81cN8w8RLytdoujPTPF+qlNIppCFx9CL7UC7iOzkNp/DwZznll6/ngXMDuEzdg+iDLloKAIJC/CAjRyt+xyZOexa1erpi1GQqGDQgsWnOJfJGBjEa7Fg/OWgQl16LDLCtRsBmOeQJ4oXYD6YzEdQKHYakagrzCEFx+Q9BlGkI427DjqCHUygPZ8gyWRGd6RWqhUIdZ+i0ICAKpIiBEK1XEZH0gECdf7nB0k+2oWkOZNY5h1eLBWov0esR4OTWIs8FnEDB8xgYVmHwCXVEggMw/CIHGrVQcUwVrlYPJuGg79ggyAIcR5D9kKmc45vGcWDPYINpLRTHschKCgCCQLgJCtNJFTrb7GAJf+MJrNFJzyhsj73oTpAuuR7Z2sZxEFaYQLrZK6HtVgoBVwhWJbEdHL8fEJEyuxY8huiILOH6KhT8nMCITGKdxR9kTcPWNY9kolo3CsjmqDOciWc6oYbouKpcxGp64OLRaagSuyKjIQQUBQaBgEZCHW8EOXQF1/IEHqO1EGxnmTKNtqSrUlwsh8BluRqOS5wiEDkF7uhzupTIQs3IER5fDIlYGwxm+Y4oH47sL6Izztavs3kOFYJq+NCmahptvCniDTNEEMv0mQITjc5vnsQnbco27XDaIlr+vY3uHiIDm6+hKvwQBQSAvERCilZfDspo65dC63e1gU7P1tmGUOTFVZiq73CajnEmWY9uabOHhzwQsCFdlADE/ASwLgBgEQBACIGT6O3/GBc2FtleLPAVrTaEMNc3jvNkKNQcc5oDHHJbNxZc5IFYKxMpB/JSCLhU+K3saxeswV9OQT5iCxMe0ZagJf9Q6UzEhZVZW01+fnKsgIAhkHwEhWtnHWI6wXARgEdt1aiPZMVfdwkI4YJogWxbIFRlBlGED4XJArowgEzBIhJaAZPgMh3ywzvjg+vKCfPhA0ny8HF3hiQP2mYzxBEuZA6V8xRYzVszn75jU4me9zMS01PhvhpclI/LKtW7YFceEiBvPofdOMeyEl0cR1xZDv/kzV2uGlpTSyzEtoN8L6P8C+s6ZewvQN13AumHshX8LxwmWM+8oNYfsvTn0aJbnwGDeNpxZ0zLmbBMEzIxMg36d7/JCpUPkEngcpAkCgoAgkDMEhGjlDGo5UM4QgETFLeFxCvtMb8xUVXZEoQyix+fYlhfEzOdYIF5KeVDKxQ3i4oaVDMTJ9iAOybX0HS5NN8iMm5chc+4jUuWAziisD8XXhOejoAblOFyllwlXvOE7iFEUCv2Yw36nQKwcOwq18xisd/iOqr6ovKMMFUadHhArY4EMayFqmAsofLigTMxd7nOumItqR2ok0DzhIMgKgoAgIAisLAL/H/TFHrgtx4bYAAAAAElFTkSuQmCC;" vertex="1" parent="33">
                    <mxGeometry x="40" width="40" height="28.7" as="geometry"/>
                </mxCell>
                <mxCell id="53" value="Archivos estaticos" style="swimlane;whiteSpace=wrap;html=1;" vertex="1" parent="17">
                    <mxGeometry x="50" y="40" width="210" height="240" as="geometry"/>
                </mxCell>
                <mxCell id="56" value="" style="aspect=fixed;html=1;points=[];align=center;image;fontSize=12;image=img/lib/azure2/general/Files.svg;" vertex="1" parent="53">
                    <mxGeometry x="130" y="160" width="64" height="70" as="geometry"/>
                </mxCell>
                <mxCell id="59" value="Entradas" style="rounded=0;whiteSpace=wrap;html=1;" vertex="1" parent="53">
                    <mxGeometry x="20" y="60" width="70" height="60" as="geometry"/>
                </mxCell>
                <mxCell id="61" value="Landing" style="rounded=0;whiteSpace=wrap;html=1;" vertex="1" parent="53">
                    <mxGeometry x="20" y="160" width="70" height="60" as="geometry"/>
                </mxCell>
                <mxCell id="63" value="FAQ" style="rounded=0;whiteSpace=wrap;html=1;" vertex="1" parent="53">
                    <mxGeometry x="120" y="60" width="70" height="60" as="geometry"/>
                </mxCell>
                <mxCell id="58" value="App dinamica" style="swimlane;whiteSpace=wrap;html=1;" vertex="1" parent="17">
                    <mxGeometry x="300" y="40" width="300" height="240" as="geometry"/>
                </mxCell>
                <mxCell id="60" value="Registro" style="rounded=0;whiteSpace=wrap;html=1;" vertex="1" parent="58">
                    <mxGeometry x="50" y="58.54" width="70" height="60" as="geometry"/>
                </mxCell>
                <mxCell id="62" value="Asistir" style="rounded=0;whiteSpace=wrap;html=1;" vertex="1" parent="58">
                    <mxGeometry x="50" y="150" width="70" height="60" as="geometry"/>
                </mxCell>
                <mxCell id="64" value="Material" style="rounded=0;whiteSpace=wrap;html=1;" vertex="1" parent="58">
                    <mxGeometry x="180" y="150" width="70" height="60" as="geometry"/>
                </mxCell>
                <mxCell id="65" value="Admin" style="rounded=0;whiteSpace=wrap;html=1;" vertex="1" parent="58">
                    <mxGeometry x="180" y="58.54000000000002" width="70" height="60" as="geometry"/>
                </mxCell>
                <mxCell id="40" value="" style="group" vertex="1" connectable="0" parent="1">
                    <mxGeometry x="288" y="380" width="125.07" height="130" as="geometry"/>
                </mxCell>
                <mxCell id="37" value="" style="shape=note;whiteSpace=wrap;html=1;backgroundOutline=1;darkOpacity=0.05;" vertex="1" parent="40">
                    <mxGeometry width="80" height="100" as="geometry"/>
                </mxCell>
                <mxCell id="36" value="" style="shape=image;verticalLabelPosition=bottom;labelBackgroundColor=default;verticalAlign=top;aspect=fixed;imageAspect=0;image=data:image/png,iVBORw0KGgoAAAANSUhEUgAAAMcAAAB7CAYAAADADZTIAAAABHNCSVQICAgIfAhkiAAAC4lJREFUeF7tnV1sFccVx8dW4kQl5gFwwDZKVcQNoKi1iapUwVaRoEgQiEiJRAio5iVVmyi4L3w0aYsxtAmGvECqqGpeatoKqGRICoa0lIoIm5BUAZsqSsBtXlp/EH88YFMFO9Lt/q+4lrF9vcd3Z3dnZ/4j3QTfPTN75jfnf3fP7uxsQTqdVtLS1d2V7ujoUN3d3Wp4eFhajXYkECuBoqIiVVpaqlKplCorLSsQOwNxTPXp7OpMNxxogIL4IQMrYqB+X30acT1V3GcOGrkMhoaG1Mu126yAQWHzh22yGEB8I85zaWDSDS2XWigKHiWciQHE+2QCmSCOphNNzkCZ7NeE37l5lEHcjxfIPeK48P4FCoNHDGdjAPE/ViAF+APlZu/N9LyH52X+zUICrhLo+aJHzS2Zm7miVZiFsHnzFld5sN8kMErgHh3gyMEE3M3zbC8inD2Fmqrv2QQ9k3OsXrOakBgojIG7MQA9QBcFff19++fMnrNLemQ9euyoWrVqlSouLpZWoR0JxEpgcHBQnTt3Tj2/6XmxH54uGgpOnT6Vfnrd06JKXgU1e9ZskS2NSMA0Av0D/co7EIjc8nShCq9cvSIy9s7DKAwRKRqZSgA/7IhjSYEuCj/55ye+tuXzy1XVk1W+djQgAdMJII4Rz34Fuii8NXjLz05VLaMwfCHRIDEEJPEMXYze55iqZ/c9eP9Um7mNBBJFQBrPInEkqud0lgQ0EaA4NIFkM/YRoDjsG1P2SBMBikMTSDZjHwGKw74xZY80EaA4NIFkM/YRoDjsG1P2SBMBikMTSDZjHwGKw74xZY80EaA4NIFkM/YRoDjsG1P2SBMBikMTSDZjHwGKw74xZY80EbhPUzviZrwlgBSWAJpVEvyJwoHefvXpZ5+qxYsWi/cfhaG34LYqLyvX1scbHTdUamEqCtdz7qP1g1ZVvaw6cJ8GbvWrzc9tUX9s/EPOfZmyIXJxZDuOwNZRlixeorDe6YwZM3Q0F7iN4ZHhjDBQdPUxsFMaGvCWG9fWp6++HNHgUfhNWHFatWLlivBJCfewfv16oWWyzAqUfOX+ZPUst7dWiOOjDz9SO3buyN3LiLbs/eVe9d7Z9yLaG3cTNgErxAFIbxx8Qx07fixsXjnbP918WtX9oi7ndm5IHgFrxAH0WJeo/Vp75KPQ8a8OJV3eKHLnuMO8CVglDlCorKhUt2/fzhvIdCsiAV9auXS61WifAALWiQPMo0zQkYBHKcYExJQ1LlopDiTo235SG/ogMQEPHXGsO7BSHCD668NvqiO/PxIaXCbgoaE1pmFrxQHCW2u2hpKgMwE3Jn5DdcRqcYCc7gSdCXio8WhU49aLA7SrqvUtZ8oE3Kj4DdUZJ8TR3tauJUGvq9/DO+ChhqNZjTshDiAPmqAjAd+7p96s0aM3oRJwRhygmG+CzgQ81Bg0tnGnxIFRQIKON/xICxLwR1OPSs1pZxEB58SBsVu5cqV4CNc89ZTYloZ2EXBSHNIE/ZWfvar+/rfzdo04eyMm4KQ4QMcvQUcCvv+118UgaWgfAWfFgaHMlaAzAbcv0PPpkdPiALDxCToT8HzCyM46zosDwzo2QWcCbmeg59Or2FYfycfZsOogQccz6CUlJUzAw4KcwHYpjruDhmfQWUhgLAGeVjEeSCAHAYojBxh+TQKJFocpqxxOFkYm+zaZv/xuIoFEi2P+I/NV04mmib2K+Zujx46qim9XxuwFdx+UQKLF0dPbozZ8f4P66auvBOWgrf4LP3xBbXpuk+rt69XWJhuKh0CixZFF9vqvXlPLlut72i/foViYWqje/u3b+VZnPcMIWCEOMP1r819iR3v58uXYfaAD+ghYIw4kwHhXR1yl5VKLmj0r+DtH4vKf+51IwKqbgHiJDRL0Zzc8O7GnIX7z1m/eUlVPxn9aN76LeFHQ7xob1czi4vGbpv335//+fNp1clW4fuN6Zk2x2/8LtmzryPCIWrBggVq3dl2uXQX63ipxgEQ2QY9qujkS8Bd/9GKgQQir8tySuRlhvPTjl8LaRV7tYroOZkQHLYuWLFLX2q8FbSZnfWtOq8b2EAn6iu/Jn/bLScdnAwbH9AQcwm040ODTk+RtLp9fnhFG0f1FoTlvpThA68/vvBsatGzDrS2toe9Dxw527tiptu/YrqMpY9pob28PVRjoqLXiQIKOF02GVZKWgB88cFBtrtkSFo5I2+3s6ozk4oe14sBo4Q2sYdxBbzzSaGQC7heheINrFKebfn4E2d7W3qbKSsuCNCGua7U4QEH3HXQk4DU/qBEDNs3w7JkzCrlSEguO1hXfqojMdevFAZK6EvSKygrjE3C/yEEC+/E/PlbqAT9Ls7bjDCDqy+VOiAPDjF/MoOX8eTuW6UE+1vOfnqA4IquP+0g4A4i6OCMO/GIGSdBxrmvTHXDcAwnCI6pArd9XH9t9JGfEgcHMN0FHAh7luW5UgQceEL2pBfnd7p/vjs09p8QBytNN0JOegPtFFkR/6vQpP7PItz+z4ZnY8zvnxIFRliboSbgDriNqMTcJR0dTyhPfeUKdbDoZuztOigPUJXfQk3IHXEcU4fL0ocOHdDQVqA1MC7l48WKgNnRVdlYcfnfQbUvAJQFTu6029mkm1z+7Hvq0EAkL2DgrDnQeCelk59u2JuCSoIhzmgmmhZi0MIXT4kCw4Hx795660bh5uXZbou+ASwTgZ4NpJqvXrPYz07odD6pFNS1E6rjz4gCo+ro9mTlHSMDfPHRYys5qu7NnzirMCIiiYFoIHlQzrVj3sFO+gP90/Li6c+dOvtWtrIcLEo984+tqoFf+mrjpgsBpbdTTQqQ+Uhx3Sdl091s6+H52mYsWXoI8Z/YcP9O8tiO3C+sR17wcGleJp1U6KFrcBn40wphmgqcTTZ/dTHFYHNi6uqZ7mgkueuDpRNMLxWH6CBniH6aZXHj/QmBvNm7cmJiLHhRH4OF2p4Hl312usA5wvgVXBI97Fz6SUiiOpIyUIX5iHeB8pplgqVQdz9REiYHiiJK2JfvCNJPpLt7ddrXNmGkh0mGgOKSkaHcPAcxsxnR+Sen5oseoaSESn2FDcUhJ0W4CASxo5zfNBJeB8dRhEgvFkcRRM8jnqaaZYGYzLgMntVAcSR05g/zGNJNZJfeuMI9pIUl/tJjiMCjIkupKdppJ1n/Tp4VIOcc2t2r8L43U4bF2D818KJ9qkdRBwODzwNceDLS/MCf9BXJsXOXsNJMT75w0flqItN+RiwPJWTqdlvqXWLurH15JrO/5Oo78Ytd286eFSPvH0yopKdo5R4DicG7I2WEpAYpDSop2zhGgOJwbcnZYSoDikJKinXMEKA7nhpwdlhKgOKSkaOccAYrDuSFnh6UEKA4pKdo5R4DicG7I2WEpAYpDSop2zhGgOJwbcnZYSoDikJKinXMEROL46ssR58Cww/YSkMZz4czimb4UWi+1+trQgASSQkASz9BF4WPffMy3T53/7VStH1AgvqBoYDwBxDHi2a9AF4WPL33czy6zvXpZteofCG8pepETNCKBAAQQv4hjSYEuCvr6+/Z7S8zvklSADZ4PXrt2rSouLpZWoR0JxEpgcHBQNTc3q601W8V+eLpoyDyy6q09hOdW+SEDxoAXA9BD5lFu/Md77RShUBiMgbsxAD2MigP/8FbAJhwKxPkYgA6gB3wKMgrxys3em+l5D88Tn5PRkARsJIB1fb0VcgrQt9GbgPhCx8tJbATGPrlBAPGfFUamx9lDSPb/TSeanD+0Ags/bjFA3I/XwgRxwIAJuluB4foPQTYBF4kDRkNDQ8p7sSF/QXkUsTYGEN+I8/GiyP6dc0PWoLOrM+29FtdaQK7/arrY//p99WnEdS5RZL8fvVqVSUB8Sld3V7qjo0N1d3er4eFhH2tuJgEzCBQVFanS0lKVSqVUWWlZ5kqUpPwf9zKSVlrPnDgAAAAASUVORK5CYII=;" vertex="1" parent="40">
                    <mxGeometry x="28" y="70" width="97.07" height="60" as="geometry"/>
                </mxCell>
                <mxCell id="41" value="" style="group" vertex="1" connectable="0" parent="1">
                    <mxGeometry x="70" y="380" width="125.07" height="130" as="geometry"/>
                </mxCell>
                <mxCell id="42" value="" style="shape=note;whiteSpace=wrap;html=1;backgroundOutline=1;darkOpacity=0.05;" vertex="1" parent="41">
                    <mxGeometry width="80" height="100" as="geometry"/>
                </mxCell>
                <mxCell id="46" value="" style="shape=image;verticalLabelPosition=bottom;labelBackgroundColor=default;verticalAlign=top;aspect=fixed;imageAspect=0;image=data:image/png,iVBORw0KGgoAAAANSUhEUgAAASAAAAEgCAYAAAAUg66AAAAABHNCSVQICAgIfAhkiAAAIABJREFUeF7tfQeAHMWV9qvunrCzWTmgCBIoIEDIWCBjEYwtIQw2GBzAhsPxbBzuzhds/2f/50s+nw//57PvbBzBYA5MENggMggjQAQRleMq5w2zk7u7/u/17oqVdmZ3ZrYmV9kDbHd1ddVXVV+/evXqPUE61QwC8nNo6o6FRC2SyDxE5PpJpnzkWu7o7pQdcKRoCZlihCXECEmyFbmbEq7bELbdRkGiAX+HcM9vCrIMIYw+4FCadKV0bEkp/DuOvyM+QeFGy+hGvjCe7cS1o0lXHo27bnsDrltkdRnSjYqgQ1TfSbTpVKJJbSR+u71m+kM3lEhoEKoLAblsEYmHVtGuJWeRtByaGJIkpDsh5Tqjuh13YoNlTnElTQun3JPQ+xODBpMNjQA5NCdcCYIhIQThElhFCiGlJBejBP/qP1b48nEJzxy7z//BZRi45BWFYrgAUA1uiVSdIbpBYkddkkdjNh2qs8QuEN9OkNMOEFhbo2UdwjNbO0XKbTo4jl4OPEsLaQntSa6lk57aVV0dVuOt0QRUwQNA3jieaMsMIt+zRMEPkFu3gwzTnB2x3VMx708HAczust1TfAaNRjOb465sQIez5MIEAlbwfrJ3EBR7LPRRGLgKZAWmAjEKiFYJv0FdSZfafSR21fvEhqgj1zb6jLWGlJtITj4guvcRHTCJZvpJ3LW6gntQV73Yg04jPkwENi87nTqs7XS6mEKW3zYwdS+JOPL8oGGc0207czGJm/Hzp6TEDPVSJfcx8yMIUoiAKZKOpASWbztx8VU0fFXQoOdSFq3viFjUnXIpKrvo9Ed2DxNh/XgxEajkwVlMnEr2rkNXvpvC4TqaNuIQRZLOVMswzoq6zvk+IRZB0plnYm5i+URYznhrHXRoVfcpMxJ3BtqPf4JpDbHXMMRqSEvP4saqoEkbHRLhzvBkGvPIIyXrN/3i7BCo6sGaHQTllUt+8CIi5ynaFTuXJo3pGhe1nTMhAyzG8ul8rFJmg2xawDdMOKxhqfn+A+1CU0UE3RWScIKm2A5l+BrolJ7Gcu4FyzTf3NvhQtkVIrH85fLqbF2b6v5aVkr/vjFvHjWeFqbJvlaoaJOTY47zfnDM0rjtvgtkM9aR0uf2NKbmCSeLPvV0WqwEDxhGp0Nye71pPGmSeDgQMJ/ZtdtHjVC7ty5/LYuidJZCI6AHdKERHqR8+REsItwzyPU5E+KOc7nh0kcjjnuOLWUQX/GqX04NAo3KW96SDUs1G8u2A7AheBC/O0maz1l2F1FiD6jJVvk+XVYOCGgCygEsFVnl1ydT57YG8sHqxTTkBdj6vjrlyAtTkupt3gbqt52t4n26jHcQYP0RD3iQEaQjsRkas+WwV7qfDGO1IwLUcPcaDVeREdAEVATA5Sdg/xeaR1MiLsWTzjKb5DUphy5Oue54lnRQBd0PReiH/q9gMoItEkGJj21/8Tp22e73GeLBrqB/w4gxr5P4QZErVKOv0wO/gB2/+WqY51hn03gnNj1py+tjrvsR26WTscTyYwJo7AuIfa5FQ/J0A0K0Q2/0nGXSr03pe4BGryf/T1O5FqXz54CAngQ5gJVt1vXnnUMzJyTJEYn3wKDuKzHbvQy7V0FPGaGJJ1sYS5VPQlckIRFtw87afwf9vtvjkbpDDX94qVT1qer3agJS2L1vfYHotMOntiZd8UEYzX0O+p2F2D6Hka+WdhTCXJSieInGW/uQiI7AkvxOS8jfBAK0ZnV0I527vChVqImXaAIaZjfbS5bQQfkIjW2eNcmW4rpIyrkexDMDBMTYanyHiW85PM7HRCAVhaErehLn1n7qM4zHdoZH05SHnymH6lV0HfQEybP73r7kEpqDT2Lcv22cI+hrUChfi6XWBNjrHDslnmfR+rEyRQCTRUJRHa8zjdUgpR9s2Nf60CmNjdT86KNlWuPyr5YmoDz6yL5mMvxOhCa6Ln0hIeVXY7Zs0ErlPICs0EfY+jqAk3awun4BB37/LxTYj4fkBhL3VWiDSlhtTUA5gC+/RWRvOm1iXIpPJx33CwlbjoPEozHMAcNqyspE5DfJDljGUyCjHxim80SscRM131JNrSxsW/TkyQJfieVWsnlXIxx2fTHhyC/EHDkFZ7E0dllgVyNZ2LAxETSNx2HY+H2KGs8FV6ytkaYPr5l6Eg2Cn/wS0YZ1RFNHzroOxPOtqO3OgMTT5+ZikCf1rRpFQEJRHYFXt/v9lvVNn/n2bvG7GkUiy2ZrAsoAVORDs8hnGgsT0v1+1HFhz+Nta2m8MuClLx+HgKy3jDB8NP0rBOUfWsauhO8enDvTaQACekKdAMnrixbSnIkdU+M2/XXckdfDjiekiWfAuNEXhkCAjU5x1EOGTOMtLM++K0x5b/DuDUM8VXu3NQH19vnqRYvozDEdOCDkfhGOvv4WS65JWsFcexOiAC3mZVmizhSPwD7j77s6J749/sknC/CayixSExD6TV67gCLR8BnwbPWjbts9D0aEVmV2p651GSMgoaRuD5n078Jyv/fSofG0+KmVZVzd4lStpgnotavOpdOMdvjkoW8kHPoGfPFw6JmaxqQ4w65238LLMvi1fh5nzb4SFsaakXfX9m5ZzU62wx+ZTy0icV7Edv4dp9TPxSn1msWidumgZC1n3VAYuqGb4eP7X16jRGrhPVtKVplSvrjmJp28lKg7NIN80vo2lltfhZKZA/DVHA6lHHT63T0IQBpyQEQvwH/11xDc41VxT+0hU1MT78CSBdQcip6SJPc2KJrPga5H2/TU3pgvtxZLBIcMN/rM7x6KRv7jpIfbyq1+Ba1PzRBQ8poZlHTMTyG41A8ithylXZ8WdFzpwnNAgLfscdqeI3r8MWQZXzPs2A7r/u05lFC5Wav+5PbL7yGKXTWnMW6bP4va8hZE2RytyadyB2w11pylAHjJNCGVXw5r+0fjIvjBtz9VjS0d2KaqloDkklkUDbkLpDB+2pl05usT6wMHgL5SdgiwN8Zogyl+6Dju3zcs31R2FVRZoaoloD1XTafRIviJrpTzEyiamwFa1bZV5YDQZZUHAvA35DRZ5mOmMG5cG929f8GKzvKomOJaVOWkjH94LiWE/T14JvwaLJoDVdlIxQNBF1d+CHBwRTg/Ww+3sJ8OJde9KP5QfnUcbo2qam7KpWdRZ11skl+In3Sk3MtcxDQeLkD6eY1AiRFgm6F2HOX4y5hp3DqiygwXq2aCyiWTKFxX9y74Zf5VzJVz4CyqatpW4gmgX18GCMAVbCxo0I9MSX/XsHxjGdRITRWqYpLGbhhBIjz2fSCeO2BcOBqNqop2qeliXUq1IAC9kNvqM++Mk3NdHR2m4L1HK75pFT9RD37wdApYqc9iG/NmbLE3VHyDKn5I6QYUEgGO0FFvGiuxo/tnze3jdohnnink6wpedkXP19iH51BKOP8E+56/5mijBUdLv0AjUAYIYNLiZL1YBwX19XXdzqvi0crdqq9YQ8T4VbPg8Un+D6ya/0aTTxnMCl2FoiHA9mzwSz4HXjrvSTb6FsnxRXu18hdVnAT0BOKtz7NPoaBh3QHL0Y85ro7DpXxU6AIrAgGO3trgE+0IDXTVkea9z0z/deW5fa0oApJXL6Iu+/BofAB+Dd89l/a4aa6IsaIrqREoCAJMQiHDCCN89GdMM/b7+nvaCvKeQhVaMUswecG51O0cReRR4w6Qz1JNPoUaErrcSkIAEoSAP6smGN3eYruhP+tcNreSql8Zyxd5wQXU0XK01Zbu/0Zt52KQT8UQZ0WNBl3ZikUABNSScNwfkT/1Z8n3LaqYdpT9EkxeQBRuObXVFeJh6HzerQ+UVszY0hUtAQJwgJ+Cf6HP+uLy1roV5W+wWNaShITCOdxy2kSH6EFNPiUYzfqVFYcAdsZ8OHz901SQbuy6dGLZ179sCYh3u7qSp44G+fwGBobnacmn7MeSrmCZIAASCsZd+iEFmq7bcyX2bMo4lS0BzbdnkTTo11CwXQTyKdt6lnHf6qrVMAIgISim3R83yJHL5JXlO33Ksmaxj8wC47h3wMKZt9rLso41PLZ10ysEASzFmlJS3tHlznwPb+SUYyq7yd35wbkkpfyfmEsf05FJy3HI6DpVCgK8RY/w4k1YSdwdH3lgoTzrrLKrelkR0MFl80hY9j91puSnHRew6aQR0AgMFwHRnXLH4ejGreGp0dmvl5kkVDaTPHnjSAoEEp+FwvmvHSl9w0VdP68R0AgcQ0BEHXeGLem26a17Q+WES1kQUPuCBRRvH3NJCpp7fbC0nIaHrksVISCgE0JgBuPOIx+aWTbNKjkBsRtVa1JkgUvydqxXy4qdy6aXdEU0AgoQ4ONLkIQug4/pn3ZdPltBicMvouQE1BmMTIKm/tfsyRDNKXvL7OFDrkvQCJQOAUQDNsK2eyOZ7tfDn28pXUV631zSCd91JR+cc/4QTjnLtKFhyceCrkANIRBAOOg6y/yYv2PEw/4nnytZy0smAe2/egK22+3v4YjFpZp8Stb/+sU1igAOrzbg8OpPY02HZh74SulAKIkEJM8/nyJjDl0Lb4a/TLkyULrml+rNbKExxLsR1iN9yvFZBJdSnryq9avfUO/I2JYTajZkOQV6r3KAKqZA2egzXnAd9/zWBzbB7K74qQCjc/BGyHcTdUw4dQE8GT6GKBatRa/A4NUryl1j8jyyZpyR8V3O1rXk7FiT5r4gY+Jssk6bn+YeLmGiOzs2krP1ZY/gRP0Y8i38gHedhprc6UsceJXfsWsrOZtf6LlnBcj/XhzcG6T81HMPkEyEuYIDyzt2xSDfeR8iEcQ+RIay7LWryd3f6//YddG2K0g0IOjtifl7CS/1/EMk4+2DvFPfYif3IVPc5srkDSOWby86IFax3xieMKvVEPJnEddtqUXyYbyD71lCrVffkBH6jvtup+7tawbMK74QPO/91PqJz2Z+9sG7qHvrS8hqkDFlLo3+8jd7CCjjEzneQKd1PfsUhf/jeZzQgzPQ5jE06s//GgakmU23IosupvbvfJKEaWZ8WeDSz9LIz3zZq3emdOQX/4/iK7YQgXyk41DLDV8m//iT0mdHPfft2Epy+4tq25/+bRV7lXfGEi59vMEXfD5x0YJbAk+9UtS2ZO7tAlTjyBUzCUPne7DMZJvwWuUfTKBeiYQn5Ik/fJIGSxKTz2OmE5/jv0EIAxJfS5c332sGk0i/OspB6tP7jtBZ7yL/+R8dULVjF5pOouYrP95DYpnqxW3md/VPjEWm9nE9T5SMMtegpu9ADeKPptx/jLd0L9h1xoyiYpFmxBbm/QeWLCC/aX4Sp3Sv10rnwZYihcG/lKWy5NPyic8QhQa6hpBYizde9xXyjR5XyirW/LuhlObO+VHLNH9mUbYAKBWFgOS55xL5uk6Be4CbQUA1qHQuQM9VVJGC/CdNpvprvnTCckiQNWcxNV68VEsrpe9PgR3phTY5/x7/wEVFq01RCKh7/AGq8xm34UDcyKK1TL+ovBDAkqjpkkvJmAwFeu/SSEpBrZ+H/shX1I9ueeFSRrVhfRCOQn05Wb/nij0LodwvQio4Ae2+4iyMt8C3wa7nYBU/uIKjCA2unFdU3zLNaGyiJiiOZSrlSUKhq79Ggakno0v0sCiXcYnzYsKR4uaGCROmbv5E4d13FJSA3lx2ETX7YotitvtVmIBn3gIpF/TLpB7wh3Rsp4d3e479XDiozdampn9b8nkmExbDKktQ/fyFFHjf9SQmnkFNl34YCvKib8Rmapm+3vMpEFHbnYaB9t2RcXwoCpwK2vvTQ/vJtuX3oeBqLXA7qqh4QXVnvIusr/8kbZussVDWZrm7I9sPUHjVyl7S6idlCBwICgSp/mwYZaUrCyST2r+X4ltgc+PdP/7Z5NrX0z+XtsYnXDQNav3k5yi+cR1ZIwcqpbMpQucpLAK8SYSD4dfUm/ZD7hcuvsv46ZMFe2HBCEh+6kIKd+/9OzjHhgZay9hZ9yDb+pw6x/sNK4FE3H1rqet7aWyGsHVtzV0MaeScDEQCAtq1jTr/5dPYGk8zRNKRVtaVheIZO14Netcra8RKkZG35lMGfT98eO8zeP+BQtWhIEuwA9cQdXbtOyPlim/aWFMWqvK63CwQYLJI98vmm5DuuWGRTxb11VnKBQERs+Uk4cp/i364cK47CkJAIXcWD/r/ijluQ7mgqeuhEdAI5IYAm5iChD5hC3lF+Ip35fZwlrmVE9Dqi86C0lR+EeSjl15ZdkI1Z3Oj3Vk3T8YiWefVGYuDAHx1WVjF/HNChhsL8UblBDSzNT41KeXfwq9zGuVBIZqgyyxnBGLr1lJyd9uQu3f24YPU/dxTQ+Yr57ZWad2gkHZnQRX49eQn1EtBSgmo48qzyHDcrycdOalKO0M3K1cEcLbt6M9uJplMZHxSOjZ1PXQfubFYxjz6RukQ4BN3tiP/PBoNny6XXKy0IsoISH7pAnJkfGFS0g28dlRay1orrNcOiE99D/gNyw6nNEDaax6m8MrH8fI0xpVoT3zTeore/UP1lYNpL5PbcbZU/e2q+v13XvZV6mtctiXClGYUtpP+PtzcobSO6pZJsdcQwnTC9+HjRzuWH04XYUJ2v/AMJd56bWAp2IHyz5xFjYvh46eSdqNgd9R96w+p7vSzyDdu4nF1d2Pd1P79vyVhpCGngQhkfwU4Nn3y8/BDdMPQz+BzGb7z5+S2FdcVxdAVK58cbBuErfkr3Xj0/fKL9Jj4bzV1U0JA8pMX0NEj+69LSfc9qJaWfobVN5LsPTsptuLnA4GErxwRvKlHT1JJBAQ8ZHgPdfzulzTqK9/A2S9/D0KQ8Dru+1+Sh7emFY6GBSPwqV/A+yBDJ5aSuh95gAiqKp0yIwApyKg35Q+O7J81j2h95ow53FGyBDsa3RdCf38LGvMcXq2zDooA3FQMWH7xkqyCMU489VuKvAoHYbwU85Zeaym2/Of6kzXoQCifm2xRBo8Wsy2SN8lPL1ZSsWET0Jarx5BfipvirjuDK6ikVrqQqkSA/QJ1/ug75LQfJd6e77ztp0TJzqpsa7U2isP6uK78avjIvvEq2jhsAhrvtk5ERNM/h75PHzZV0SPVXkZkHx395Y+o6/E/kv3mY9Xe2mpsH7blabppmDc6nx1+XLFh6YDC155LdqTj0wnHmVKNSOs2FQABLL2SK39HyWdQdjoXsgV4pS5SLQJwq2xAH/T55KEJtyHExK7hlJ63BHTHOedQortzIhTPX4CTCL30yqkXahwudjyvySenEVNumWGciGgA7me2fWzhsKqWNwGNtW0yhfsFuFjVznxz7ALRN/nS2vmgsEF2uAZ/Fi7t+Nks9gKORahIWwfedM2yHNG78k5XDl/LJXnvxLvTlcXleA7x+yX2JZQpf7oyMlwT+H4ewzWX+tZwXrb1g/fEL42Id41+jV0u55ny+hS/snAhTZ3YOY5sdzM8qOkDpzmCL1omkjl2MnhiIFPwZHAP7Sb3aHrJVjSPJ2P81Ay7YQjydHgPuUd2Dl0jfz1Z08/A/M1AEt0d5OzGVusgZOi9BKRgzTgnbVu8+2GUsyeLcrioUVNJjEz/PWNidfYgzE74YE/bQCbmdLh3hV+j4SaeBPb2tVCIc+wynbJFgD8XDZZx885dDV8//ZX8bKjyIqDDl8wnqzH6b5GU+9f8rcy2wjpfLwI8qQeb2PxVz7TdPpxnT+yAwZZBg9WhUOXk2jZeyqkafblKaydiUKN/Bw1xRJrmmaOclt3iAcSKyzHlpYQONsYnxVy6VpNPjmj3Zc9lcp/4iuE8e2JZqiadqnJybRtLbwOFyBNbqf8uIALs7bTBkp+jCcFv5/OanHVAWz66iBDZ9LqU6yqxA8in0voZjYBGoDwQAP8bjiOvjR7YPyGfGuVMQK320Vb4+vkUh/DI54X6GY2ARqC6EIAR8lSH3CvjN56Xc8NyIqADZ8PdhpSXYedrJt6kCShnuPUDGoHqQ4CFERzDurH7SHvOjcuJgJIT4hzW/PMwx9bkkzPU+gGNQNUiIGyH5glTfvCxBQtyamTWBCSvPp9G+OV74J6RLY80AeUEs86sEahuBCABGdjR+tL5k3o9HWTZ3KwJaLevk3BA+ytYfmX9TJZ10Nk0AhqBykdAwBPq+1LyyOm5RFTNaht+3WXvopZYZDqMDi9jC5bKx6oALRjMrqcAr9NFlhCBTDZaJaxSObw64Ugj4DNvkkfF57OtT1YEVDcuQcZR93pIP4FsC661fGLE5J6jApqeq7rrPUv1rkNE8a6qbmdejQM4OBt6xaT66Hc2Xz9//4xb1wxZTFYENPEInIZLebU2PMyApxmgkX//E/KNhymENozLAFKVXIak237rf1P84V+gQbqzT+xV9h3tM8TlYzb4bjnxXrq/hyQg+fXJFN4ml8F/93QUoL/v6VBMIZqD5SOjjt1ha4jSQVQ91xDyOgX/D5p80nYpdskRGIc+Vn9y+BZanTbLcReHVCh3b2mE8ll+FCdfc1NvD/3uqsnB30G3GyK5/iBWTZ9maohMpcgNay+OmfDBdT4lf3Z31MVJ4aHTkARkG84kOCC6SC+/BgMTJ7WPQi+glZODgVQV92QiTvLIvsEPE1dFS/NvBLbkG00hrth24VlDFjIoAblLl5Jf0AUIx6HPfQ0GJbuKaD8yWA59r0oQkMkk3J3sqZLWFKYZWIYhycvHtdpDvmBQAor7dlLSpattbfk8KJCs9XG7EQNdb8UPilM13JQ4+S+74JNIS7uDdSf8RsvTU0ZqobzknMHyIZZghvTGvHkk/PZ4iFMXIovWrGbAybsMdNxEcrAc+l6VICA5XFIyUiWtKVwzoAdC9Ay6ep1v8PNhGQmo8bQwpRxxBQqpL1w1q6dktxNAI8CdTlWMAKQeNxImloJ0GhwBDyFJV59qDu6xMiMBtVIj/IaLj+pgg4MD7d3F0ss9uJt4h0SnKkYABOS0H9ZL7Sy6GIsCgd3ziUm/faF9beYNsbQEJBcvppCTmByz3XO4oCzeV/NZ3ENtxCF+dapuBJyOo5qAsuxiHN0SjpRXRXfUZXwiLQFRfT3FXPF+KJ8Hl58yFlt7N9yjeyGaa0Ogqu55+NB2I6z/0d/kbPqZZ0PCpUsCYzIfW0lLQO11EbhdpUuhSNJIZ4U04lvgbJDUOyPZoFW5eVgHlEjpzc4se5BXT66UE6OUzBi3Jy0BNYjD43C0/my9/MoSac6G3RFWUOrt2Rwwq7SsUD47HVoHlEu3wYYw5BfGhTsuOyPtYwMISC6Zi+WXcwaWX+kDNKUtRl9ksdztgDGiloKqdjBIF56P97VpHVAOPdyzDJMXja/j83MD0wAC6oi0snHQhRCdfAOz6ysZEWBr6M6OjLf1jSpAgCWgfduqoCFFbYKAgmJOPGVPS/fWAQTUNP4wrJ/lIuzja/1POsQyXQNabjSqY55nwqdKrruH00esrZLmFaQZ4JMxlkHzEp8YuB0/gIC6U3IqxKY5BalJFRfKscXdpLYDquIu9lbXMoqT8HqZnVM380H2lKTFIoLl6wnpOALavOx08hviTCiOWk7MqP8eAgFegh3RZ4SGQKlyb3tW0NhOhmMsnXJDAFF0OJ2XssYMePA4AjpqbKOoI9+rDc0H4DT0BcQpd3ZDP6C/jkNjVYk5mIDYCFFrJnLuPd5Nh6fEubbjTnjpA8c/fhwBnSmmsvuNRVBA5/ySmn8AKDt7Ntc8DFULAPcvOyLTmtG8uhiw1QUM46x51unHPX+MgDbfOJ6k4RgRx50H39Ia5lxh5i/kQaxxYcGpUxUiwOf9onEQ0AC1aRU2Vn2ToNYR3a7znl1jYUfVLx1D85QtM8iwxCXwZKYjX+SDPysouyGie9KjliDzgbDcn3HhjEyYmoDy6SdW69SZ5mLmmf7pHTR9z0L/456PLbN8ytfPgHQknJV7/oI1hNU3HtCn9iG4YsVup065I8B6oIjtnknjsFHTL72DZvADFDDMc+DvTU+f3PH1nmDgelyzagjzhLB8H8O0cHZCx6e1E3n3kSkokJDGIrnsHU30sbA80bq9FLaduRrhvPH1oHPgmEy5Cbn+JuTeKaqJAp9we9em3OuhnziGAHbCBHbCzh770KOr+i56BCTffw7ZFJltSmqGRxutRc1z0LB+wIkgRpjCwW+D0DofuEeL/rn0CQi7edmHyRoxMpenBs8L5bO7f7s2sxgcpUHvwjeQbBXGfOYb8dhLXl6PgPiP8IdPOw3qHx37a1AIB7/JBKTcNzRO2cfvvRkDX1tnDY5+v7uGj5retzTr7ENnxJIak8PtOkzC0lNkaLwy5RCwB3LnBoM4stSbPB3QriWI32OIuXC/amZ6VF/PAgHD7LWGziJvllkEtvVF42ilUlWWr67cbKFWEIXCocz8AytomWKPl1q/l+/AYEU0NrkmOkE51uMcJI+AbMshQ9JsDW6+0PY+BzHd3rdTqZguTJPEyEnDrFhtPW40jSHhU6uJY92e1k4Mfxzhe1qfSLqTumXPkRaPgEaHJBTQ7in6Mzt8gJ0Dak9LC3+AjDEgIK2IzrpzRMtoMgJqvQm7YTibU6jby7oxVZYRjg5D3a6ctivyptcyj4CC0p3gNwhyvk7DQoCtoTlqgkJraCYgs1V3TS79IppGkFBJQLy7GY9rI8RcOiFDXixgRbNfzFwUWOTl8Ago6TqjcKM5wzP6ctYIwBgxhl0wldIKBr8IauP0rLuABzWTD/RxKhO7WlGqV1JZuQorC+F6ZoR867xaG/JzRLBQnIgQGg0V1o7yqy6IR8ajODOEMM2qSAi7X2a97pqsO7uPsFXhzy9GWc6RQ8pJLes2VVFGCDpG2HGn2fU9JhIG7VhIjT5zCkShd6yiq6jBxW6KTHTjOEbmMCT51MeEPYvK+ZRPHSrnGUFGE4R5lYAxAR3cgxmip4iKcRAwxGgh/CEuy6AWfLUlTQMz6f1FFegmQUAgKVa3AAAgAElEQVRRlbHDBZkjx5JQOaFUtLNsy5DQmY1Su2HFOqDD+/UMUdTnUCqMwB6Y553MShw9RN31vkkY39oCWgXAbpKcRFLdjgkGv9Hciprx90F30ZBdBMfx5ggQkEqs0AduF6Ra/REYEv5sMsQd2ZJynCbOa/hGBXhoj2ftdDYP6zyDIyA4BoBigzWDjepMtXYtg7eigu+CJIwmELbKLXOQmsQumBaB1IwLODz0BywxXt4wCUuwlElBU7BGSC/BVODLrll5K14Vmiya+nBiJqjddGfTPSzIe4StKgF/NxaBJbR2Rq8KUlipyKAhJtCOk7ELxvY/kkaoKrzmy2F9wSHWF6hiIIipdaGe4xg1D24WABh+iPUgbIX4S+j0ZJj9QeukDgExnqYbZETsVADH5NkGSC/BFKHrHOXwvYoKYx0QtuFFo/5GZIWoLwTCrssqa7aZ3Dhsu6KagLLFa6h88Moh4Pp5DG1/gyxbihacUPW2xHRSg4DbrdZsX/iDHgm5rNfI58vOz/BpenVCmRqgClCKCEFaDNWrK5kV0Db2bGBeoeyjoq52FVkSNGoi5shxdRNbyApZYkTKJYFY8DqpQACTXSYSPUShTBEKzQZ/1fMhIDzjO3sZNX/qS1jLqRLLVABVqDJgttAIfZkq7FkHlELAST48qR3Sq+o0WWcarRQ3ybKwJ4++wqzR/K4KXbfzKEgIZ4eCigRL+KLhrWUcBsijiviCQ3/hnziJhF/7sskDQJzvO4JvNqxX8nlYPzMAAZZ1fEK0+G0ctMYfbGSik0IE3I4D5OkNVK15MPLNMRPyLA9f8D0bFLauxoqCBOQcOaBOoqox+AZpbpMLkxUQkGySTO86KUNAdh7oWYYp+2ZiWTFmIrxi5eEVkZcQXYegOmIdkF5n59zJmBlOR7uynsz5/VX6AHinkfxxMpIuNfD6SyeFCETbyYUrVWUJ3wejvh5qCPbIl0dCXVzPoZZOOSPAvqAj77gQzfl5/cAABFjagd45FEtiXCMSRqPCqTLgZTV5wU6StBW674TkYvphCZ0nqbF6zz6CeExaAsp9OEJydKHP00kpAgLeN4IJYfv4eG8DxqVeginEl+F0oIhWKViaDZCA3Py6if1KO3yWSa+0c+5liWioLs5L6qQWAQTI8EERPZI3ZhVt1aitYEWXhonusjGiQoljOOeb2K+0G+O45hWNakkqL5MJcg/DFYcmb6X4Q+ljmq4VMCxD6L1ZpdCiMFZcqtS5oDyjqQUuQfM84wQ/NvY++KrWqr6ce5qX0vIoCEgnpQhwsBdhCh87rkQ8Qp1UIsCChhvFNrwyB1boLctHoh4eDPL5EnO0jq1vK5XIVOJVzmVJ2GDJMJZgCqXZcm5vseqGOSItKS3DAA95Zog6qUOAl2B91tCqSmVF9JjJ+REQnrV3rM/vWVX1r8RygJu0YQWdgmW7TkoRYLNOWP8glKdOBUAABATjNW/wqkpMQJNnorR8FDmwBToKYzqdckQARohs1Z4X5jm+qkazawIqRMezDmh/GyI+5mm3k65OkKosJqB8QjSDvFw41HK7tU+bdNBmvIZ1AR/DyGvZm7FQfaM/AkxAevlVgDHhHmwDV/REf1RSPAjIHHdSftbQXAE3RZ6bEJ2yRwCYe+YLOhUEAU8P5EjpAOd85PqCVKoqCgWly479yvWWRgDuc2GMmE98KiFcchDd01fV3xvFw5h1eeyKNR/Ff1UM5MI1gl1ywADahj8gHLLWSTECUF4moyALSEC8e6JiAHN8sBBccnhLsDy246HuS2zfStKv1lmXYuDyLw44B6efojYmPC9dEWiSDTl1UosAL7sc7I1YcBCt7czVYttTGusPunD+imNUqUgoz2xq6uGzPMoTMAno/tk3qnM7GQQvYWow/ncvw3e/Quf9WEI7h/b2fED4Q6KTMgSY213XTloQhSKCO1DjqwzcnoIgvnfgOMbEKWokINYBtYzkzcv866nMLin/KhTkSWBjINKmCkGzf/0kvA84e7biEktAw8C9II2u7EKBaAriT8TwCzPMyqDKbk4Z1h6zweEIqaqkd5Qn6hvZgL13QpRhm0tYJTEC7kpUMxDa4+7bjn/q6aG4a2GBKJJuwmg3Gi3RbSibJYqrWcnFQW/gxmHAptCNJ0uqRgOc06sitUrG94S6G6NPgnIe0TCUJvRhO5ZgOilHAGF5Yk1+RMXAmIYEpBleNcJMFo7qYHZYJxujYQ2tGej47vJwmeAdV1GWUCYbksoEfAFp/YQyWLkgZht8nyP4nPJpJdEJ0VUzkFKIGWE4stq/W630jjKNCSf3dqHqCld2eWYDlP2mSgkIWlIcKM7H7rOykSxO7aFQ6DIcxHDDpi5szTX/KIcdEpC9a4vSryefhjcnTFNapvJ2l6JAjF/hZ/JROI5RlOfTqQB6pVJAVG7vxOYXm+WTlXTlUQ44Um4VrPj68ADes1ktsvBdYDQj5Ax/MPTEODZEPJEeLmsJJ9eVhR7iJTQMNzXM6mciyEYkHNkhQt1kxF0HxipCGyMqxxki/OGdgFbhcTsQjxnwg38UfumVt7sEBQIOs1lxcBcwj7eJUK2mCyXopr5XsrQDI8TDDbEE/Fz5zO46UyCUp05KEWAlZjTc60heEWGgTKMBW/GKilPa3pIWBmJuHaVYKsRJeLaCztcJXEnxKO+XQ/8jm3zGfrp/Fxlwi9hlCeKQCXpYK+43dmbFQQqVIYtPh9k6UnfVCf3Eu7jsMVKpIgGzwdnbplaCVTy+KrU4Q8ATmRAHaMkS7IMJN4oDqfA5oJN6BAxy2J2DQgbiCKnqylPf4pKUaCC+r6XYQBPSpsObCFo7qrxLwe04iCr3kmzHClc4FLeJ/TRoqBVDzeofzxpaFbTQS4hAEMsChfYuittckuICTVC1KdS1cSMwG5y920rSnGp/KS8MupNyH019iYxIqINCltgFvPUSTHXPY1I48aRS3QSfzBZ1WG6oIjXVbS5BeaJxNBle3HuFQ5gDErIXSa3wV96jAUNEYLR+iH6GbfiGttMoNerAzogDfan2PakU7J5wOHBOr3Db3GBju5YJOEKMpZ3C+aa04XkU5m135ynFiObRJIJBFKBKiGcraLvHFYcmoDx6c/BHfIY4Wm+Y3ZzLokltFO3274BYpKr3Bn97Ld3FDopzkM8SMVOogVfUN1DrTd/qjT1fPWAmNrxJ0f+9OS87HqMZJ+GDCsPbobs8VyqIcJuP66Xq6ZXCtCThukdDFnRASJb47XZq/9DMNpxOTaQQLrUwr6zVUmHM1hePSw3/eOed6ubOr66lASt82w/nR9PH9GIqj2FA/9PViWMYNvRttTp2C9ZuaQqx2+jocVfs9VqDZR7qdtwuBIzXBKQUd0ysQ/uU6oC86vF6pZpMdJmAuiN5I2/UYdgqXOZyRdxoFDIrBxVQS2x5N7JKHsRWgWywjK2GBct1JG/rQBrW5qTr2QLppBIBTAq3W8dkHxJStjpOJPPkVJypZq+TKnU1XJ8kDgdoV6xDdl2uGXgLPubQpm29jlg9AtotEuB5gdi91aTWzBWaAuTHpJBwycEKTZ0GQQCuT4dD1ObIMapUbD2V5A8HS0AcN1gnpQjAADGZcuTm6SvWeuV6BDT54Dhq8IkNaj8jSutdsYXJGI5jRCAFqfxCVywa6Svu7TgdRPz1fJaV8JdhjByLghUp2bwqwls6L5113M70HTaMqz64Jh/hN3Y6Fy32SvEI6OXAsxRx5FpYmKjsxWFUs4oejXWSG9FH7QbtUUQPcQ/sRJbchx/7bTa9Yxi5P5uxTlgnOAdBQHnUJ2OZ+oa3vEIUnk7bEJvNp1Z6iHgatoWR8ynVcGSt68pk3JUBjZU6BGSyG4ca42pVmY6NsD8crzyfSQd7iwBC8+Rpc6MOmXdK4tP97pE8NQCsVPCOYShMrAPCrpzWSCjE1CtKuo2Wtcm/D26Fe1OPir8enS8aNiB2Jo9qTUAqcQekng5I4Rc6sWsnHf3RP+enJEVgw5Ff/Rb5p0xXWqfhQia7DuVXhOEj04+jKSp3wZiAor0GpPnVSj+VFgEhYtJ9I8h805s8AhKP7KBDSxcfCoUO7OxKyjm8yZv2eX0xZwR6fEOD1xVOEEwPcra+BKcGMJTLMUnbgX7jRvJPnlYeBMSK+lTS+4l8YnpZdWSEerZ0c4QiY3bPF3Rc+4LOCFCeN+CIHvHb6JU9YhYhhomXjp3gG4WTqaakV/MsWz+WCQF8TZ3DOFOkaoMRE9bgA6l1eTrg4vp0whumQoksU9Ozuw4bIPhezhseHwiIfSQpS+zHKQI3KtpBhDJIewvCalmOMMSaiRIbDr3pGAHRAZM/0qt8ZTMwVTe/VOVBXjnChxrVvd9oaCDRyH6Bck98mNWL1lEu/Qxc3K6OvOtjINS0wfHSVLWH6xNDWO1wnkvC3LukJp5g8vEbYg85YhuteONYm98hoJl+gmfE55TOlJqAduhGOhwhVdWiFhONJ5zRyBJQHoWyfuMIFKzYPSqLhCY43dglzKMpHunwIVSV0TAYnySWthFtl6t6fIBsniff8dLqMQISd62mIxG5HizVd3pS9ftrtDw2aoNCU6VvaBjIeae/8/nqox72ro1lREBwe8EuS/KxOmYyblRsBY1RKqGol6n8j4bU6EAftNk+fCuA6jO7wzA37JfekYD4InuWI7F60JL0zZwRkHEQELbOlSXWA7VAAsqHgLAWdNo24p8K14TDaRhvwQOf/ByKCTJHQ53JCn5VieuDJVg+ApmqKlRnOcINCuNFx+XAmu+k4wioG2K5ZdCz8BGtk0IE3KMHcdYJehdlCU7Yx/btI+ReqHtoh1qJLPcq9HsChHiAraCP/xZmVySIeNyk/JZvmV4AAnLQXzIvcs9UaG1fZ/1PwBS7k9J9fcqKN48D47hej8ouTxENU7Wes/K1jZui1kOncHQf/PeoJCB8+cfjS4IzVDkndLCMR/ArEzsXjE5nz/b8pDn+YHpErPaL6RxlBbTaMnPupyp6gJGEs0PssA/UOx5HQKc/spsChrERymiMiHKR0Su9JzDhuw5Ap6Aw9Bq+zlYLrEnzISDuWBhj8Fe+LLoYo9ML4JhPQvu9k/AqpRVWQnd1afrJpz8yPIMVlaw3xcpGZ6C3nwFyb8pyw7Z012j+z4BmPpdxHoxD9ChLrAMK+GBhnYcExJXAJLO9aB1lkNj38sGdeelxWFlssBW0ym8lExAHJNQTQNngAJTxmOM8v27MOxbQfYUPIKD6PaMoaBhPoR8UzhhlbanIgiS7m2DbG4XKUhO2QPmSmjAxybph6cuJ66SwXll3UN97eUkYgR1QHqONz5CZIZxrU1l/bBbow8NZ92JWGeFtdXvI8L0x++cDTRsGuHsTzz1HkatmvYilWFfMcTn8gk7DRgBLng7Y3kyZipLUfFpNXoLlOfEE7Ga6fn0zJbZtorozzqbgjFk4oMpHAHvrpnJJ0x+7Y/WVlNrdRrFNGym26vHeJVQeDASp0jsJz4+qgRWHfJPk9nmxzBPfYQ+XKioA3SKDprHa8tWl1UEMICBuuyusNx1KclCks9R1bRWhmmtTWKznJY+yiQL7F3bEDkkm3+QexOT//UaK3o7lBvxMBxZfTXWLLgEZnYZJ3UzC37teHxYZsXSFGrK7DSi9E21bKL5+LcUe/AU5+7djGQnS49DHeYY/5qqZeZsjpEeOz4G5hwYuFdLn1leHQoCHfsx1H1+Z2kpL02ROS0AN3RNJhNqeSDjOWfkP8TRvq+FLXoDCYU3mfuChUwQCKxkNLVBu57m06/26Cy+eFlHyuXsp8cxd3n9bcxZTcOHFFDhtLvnHTUA4aHafwC/lu4OMiH4SA9vS2EePUGLDW/i9TYmV95DsPooDpxhywMHwwuggDcciGy5FRAMroXuKUvFPXi7Ldi9gg04KEMDRrvYGYaxaGnl32tLSEhCL9q6UK3B69S8SrtRhONNCl/1F5h3P2lcVAfGr2RPguFPI2Q3XliqWCiiD45hxcjauosj6P1E3ljjGuJnkm3suBbFUC5yM/544GfmYRLgOx2PAkS3YVUj8tRcpCdJxNvwJivJEj2tT5i8mH04q6gssRQgRUT37IXUMBFhxGBW6CpV9dTxMNfMXy79BU7yWjLTuCjyyIm270xKQePRRcj5+8jN2zDqAQib2ffvSlqAvDo0Ay6HdiMPGX3tVjsDQMebUWT0ENHQNcsvBBMETHEs8eWgLJZ/eSsmnfkvSVw/7o5kUOOcCqjsTuqNT55INz4Gxjesp9uwKsreth8nBbjz6Djv1WDj3LsVyq8WQuY2RE9SQWd+b+MPLB1GhiObwRzoNDwE+fuG48oHQ2LaMBaUlIM69oa2BJo9LPigc588zPq1vZIcAJqRzcDcGdgrSgCJ/byjTmnIqJZ89QQzJrkY55mJCwv9tuKnY/TrFdr9B0Tt7tqrZJaq3Fc5SEf67R3AoRp1gjDluWo7tGCo7CKiDzRMGbA4P9aC+nwYB7H6lQoa5fO+68TQlzX2+lBHpCWMM+OSWd+JwajFGU4bqVc9l98AOTxmrLGGmm6PgjD1PY8S868HSEdYpAqTDDsQ8RTIvg4ajy8mrMrw8nKp2qYSmeb6JFC7p8mpaFTzEowQx4FfujZt7prz8csYWZSSg1uWvcVi258Bim7mwjCXoG1kh4B5sg+pDIYwoywz6wQUDzduzqlClZ+L28zEMlboallR5qaxOpVTpKOddf/YrlhJ058imjBTjlT3o3VBiPHtJWD6M3d68G1BVDzKDd8EOCEcglCWegDBGrNVPg7f0Y1esiglIIiAhO23TaVgISBxqb4fTmMca7nx90IIGJSBxOE7YF7kfBbGzep3yRgDWvtgN8k7Eq5KCMEeMYRgj5t2UcnkQOPJxFGV4cruwtHQ62XmcJqDhdDOjB6HlKStmveN7NUOBgxKQ+cIL+Gibq32GYBpTuH7IUJsqvswHQF0e3KoICOsEsxn2ObU6VzAaPQlIGZ4YfDA7cPa29ei0qngsFrppfNLHFMbv28XQ6oFBCYgrWmf5Cdtp97FD+0JXvJrL96JjdA08C5N3m1EeGxGKYEjd1n7elSnygyyh4Ocdw1CZQGbO3q0qS6zJsiCwQOFJz07849tDtn9IAvLd9RoUReIPflg0DlmazpAZAcwZtxtuPhWK92wN3XDD35MxfjZWD1iOsEI6L8dematdNnd6cZPsWLJhHNVd/ufkm8DOyNSJgOyEzMURES3s59/r6A3e/VrhDwT3Z1NKRjug/g9Hkw0b/P7wqpgrP8jfnmwK1nlOQAAGiE5CrTU0G8s1X36N97MP7qXEzjaKv/oCJTe9Te62V6F3ivcoVHmSqlyqFKtzWXnvWXzPIt+MeRRYsIiCU6f3BFX0rLHVD0Vvs0DHhM+7hyH9xJMu3bnvoKBTsiglKwJypnWRscf4FaSgy1KszNApZwTYItgNIx4XE4HKidNbljVmArwDTqD6Bed61rz2kUOU2LyeErBSTr7yBLn74Iiez07xcQtvMV1mK+pekmQfRyJYT775S8g/63QKnj6ffKNG4zzaqHcwV4lfX6noFxmDp0gOkKjKWDTnUVLZDzCEkH7eqvNZq1qfhAPELFJWBDTuxxup80OzH4BR4vakI6drKSgLZE/MwtEo9uzAVZ74BeDwvkmJolk56+ffSVOo8YL3k3PdpxEN9SDFN62jxEvPUOqlh3ussnsPopZMOuJjKQhbLVM2mRNPpcDFH8HxjlnkP3kW/PyEoOPqtRr34CoAZsf1EfQ/sIIuUO+cOBqq8m/wAztdvSWxI0TZHmTJioAYrYZxoymyf/9P4F7xP+DfVadcEcD8cXZuKhj/pK0Ok5IwyUToGhPRQwPTIBS//zIcjP0nim98m+Lr3sQp9YfgFH4H9EeIBMGEUMilWi9JSgwgUT+GfLMXUN17l8AFCA65Tpjcq79iCXFI1WTa5g7rIl7rdPAh1BK8e1gVL5uHpc+gA0GyfhlcnX1gnawJyPzpSuq8etbtZkp+03HcfvJw2QBQ3hXBAHf3wvdxIZYP2bS8b2KBkAxIF6Ezz/F+9LEbKbVvV88p9lefp9TmdeRufwU8hAOZHoHhly8p8bPY2mY9jmgcS9ap51BgzpkUmHsWBU6aDHciTe+UfwyXQks6GcDiiLGRSE+bM2TRlzMjgMU9SVPcsu5wmOZnzjbgTtYExE/aXYFDVn38TtulmzCuSjRSBrShQi7goCOiY5SMgI5DiYml9wJ0Qr6JU7xfw8LzPXekqSPsxwfS0ab1lFq9ApFUccLdgu5oKAmpT8LBsopfYM1cSP7551Ng9unectAaObrX5Ufvy/tIp1SkfAImLm8SaAV0XvPJZ1KHIcXtweiYnJ7PiYA27rHptJniN5YQ1yelxOdLp6wRgBTBltAcDkcE8oxqmvXLcszYjwBYKgnwcm3yFJIXLyP3hi+SvRc+frZsovjKP1LqrWdQeI8N0jFFNqQ7mYDfn7pG8l94DQUhWQVPnePZ6Rh1sFPiVBYkMwgubAPUDodpqtylDPKqaruFroXwIx5MOv7Ns196Kafm5URA5739NoXnzF4Dpnsy5coP8Wo9p7fVembWM8AamnesyjuxhASSwYEes7GJzJmzKQDfP82XfhghazqgP1pHsddWU3LNKjgFC1Hg/Eup7tTTKDBzzvF+dMqddI7rBEn2vrYeKa9WD/jmOShx8DQGY+VfiOm5x77LiYC4fg113RSz6/8nIcQSbMkjJIFOWSOACcnuHqwx4/FIBXH3Mf0RXKlCqgm96zzvR/KrPe0oq6VU1r1xfEbW0XGARJ1yRUBi9+vZBst8jm4e2vL5xMJzVvmL3+yEXtH/uM8Sq3nf/8QC9d+ZEeBT1qzorCjyObE5TDZ9P6NXL9T394l5K+lv7ptD8AWtR3ROvQbpJ+UY4sfkz0330/eSnAmIH3xlTxA7G/I/YHSUU2VrPjMUvm4SCtqKWprUSq9BkdEdRmM1A2Xb457hoSnWdCaCD9Fvn8r2sePy5UVAF2Cff080+EeoCF7UUlD2uLMVstNnDZ39YzpnoRHgQQwraDcRy9/koNB1LMPysfRybVf+ozOk043Mlc+LgLi43Qdg9SjpO6gE77nqlA0CWLI4B7i39Fc2G7iKmccJIzprEgSkU7YIsNOxP3WagYdPWbMm22cG5MubgC59/XXYdAQex+Gzp7EQ0zNqALTpL3gEpNFKD04Jr7q8/HJy38UpYZVL+mrW/WBL4l/H1I8bVj3yJiB+a0vjJIIe6N8hBWmPiVl1Axsj4rS11gFlhVbRMqE/3DiGsEwbPbho1aiUF7HAUWeKJ3yW+VjDbY8Oq9rDIiDz1ofIZ6aeAAkhwLf+rg/ZE56uIVrRm2BDtrEiM+DDgAOx+ruQXedh1RPD8us/giL3bfcT3zAsAuLCtgYaEUuevg8pCOEEdBoUgV4CkkktMA6KU7FvYknsdEIHpK2gs0Ge7X4eFsJ6yrp7+LqEYRPQrNtfo5Df9xwqtRy1H36NsoGggvO4kQ54RoS+AWSkU5kgwMcwEOFVn4Qfuj+w2ok6Uv5T0N86dOYscgybgPgdPjmdkg59K2AYbGWnZ9ZgwCPuuBtlmHQqJwScw/Agqs3aBu0S1v3A2fwvmkaPeIPueHbQvNneVEJA4q4HaHTDiF0wSvpnDiee7ctrMZ9MhGGMiFPXOpUPAqyE1vZZQ/ZHnWnsCZrmN62OF4bMm20GJQTELxO/e57tgn6IpRhrpjQJZeoB+NlJ7d+H0+N9Rm+ASi/HMqFVwOu9uOPgqX34ILntHBNep0wIwBGhjSjt3/X7mqKkQPfT9x6lQqf8+AconGi7KubIO3BavtefZqYm1fB1Xz2ZJ7+L/KfNoeD88+D6Yip8Ho98BxC9HaN+cPQjefb7nGzbBhe18Jn9xstkb4QD/6NtegmWGXVZbxnPWtK6oOH+tzLnyuOOUgLi9x+86jTyu3R/t+1egT+Vl59HG8v3EZwylw6csAdayToZDtgvvoLqZp5KvknTYeTJwing8xDUMObViX2kAymHLZ3jcNAfe+lPlFwNJ/0de6FzhhTE0GoJdFB4eYcbv8uTI62nR/+8zAlo96UIZuifOVdK45m46/b7rA/aRn2Tt4BBRi5ik5tjplDwko/Dv84sCsyAg3Y4CCuug/YK7g64f/UinLJnx/0IVbR5A8X/9DCl3ni6h899fmYcTTpZdjH4WTZYxi1uMvyFlj/uzvKp7LMV5NO655q51JCyv4Gl2D/ZYKLsq6NzegjwEoxthjhETaCerLM/QIHTOETN2eQbM4bMFr1c83BiycWTYPB/6NRShzkUESJ/rF9LyZcfJ/fAlh4XsEO5ktXDLi0CDCvIZ2fKoYWjH1ifVaDBtAUNcrEgBMTvC185h2xynoukXHiu0muIQfogu1s8GvA/Y9xsBOkDGZ0DX8scpG/StOMN6Kpdf8QSjkfQHMXiMCXadlDs1Rcptf4NsrciFpXd61i+l8SzA1fnSocAolw4Qcu4smnEqAfplj+lyzLsawUjIHnNVRRx181POu7TUVv7jx52T/UvgD0UQq/hOvChPmoyBT9wDdXNRbQJLNcMP/xNc/BBTtVCRkw6TMBYoqb27IDyeCNFn7iP7PWvkHCxm4gQ1YhNrRTiWi+MKb7Zb/yWqPX6+nueLxgcBSMgrnEHlmKmbX8HCun/g1BQObt/LVirq6ngXpKR0B2RL0D+866g4FnnUnD2PLJaWhH6ppGZqFcGLWh3q0H1uGVV3PMgmdi8luJYViWevofcg9vhdxpDiX/ad7MazNOUErLEVr+gS+rv3bA9zW1llwo+Ig9fOctnSfkUSGhRz0xQVnddUDoEQEgsKbB+xJx2NvnPPI+C8xaQf+IkL3SzF5qZk9fzBe/+dDUceK3fLhRHJ00e2E+JN1+FLudNsl9/nGQSQRO53npZNRC7Alzh+O5BU3zGaGW7D4UAABIPSURBVGm9o+GXhZN+ijIC33j3u2n6xM4FcUc+mXD1UqwA42WQIplgeO2C5UndKDKnY5k2f6EnHQVPORUK7n4xBYq6XPMUWsdSsm0Lxbfi99KzZG95m+RBxLEvan0GgbD2bslmn3F7JG5+auxDwz/tPhR8RfkEymVzKRKw/yrsyH9zXNn7CR6qavq+cgS8SQ0JCfHJ+OBl4L1XUd35CI186mwym1tJ+DiiNy/XCjAseqUcaacg0SQpsWUDxd5aQ/E//pqco3vJCMBulaUcvaxS3u3ZFsifhUbLaCODTmu+Z31RXDYUYKQNbC4c2FP4qnnkuKnlUce9HA0tynsH1kRfOQ4BNoQEIbA22zp5AeJ7XYbt/jk9UUybW0AIvWo7r7dy7LL+yyoYAdocbZXj0a/BjtULy733Ch/K18uqshmUOOne7RPGsiOy8dnpy7OP7z6cBuQ4qvJ7FRMQp/BVc6bZ0n0karszch/R+b1bP5UlAkwEkD4kfqJpHPnmX0yBWdjuP20uwjZPIiPYG+GUi0snIR0jHPQ1ykjt20OJndsp8dZrOO6Ac4Jtr/cIVyzl9COnLGunsxUYAUQ2dRp8xrcj4eC/3GCOpRUPryjwG3uKLyoBJT44jZL+4GXQBd2ZcGRDUVqoX5I/AiyTGxYZEyAVzZxLwXcvpuCMmWSN6vUDzETiGfmBuBByOr5lI5ZVr1Hy1VXk7FyHawh13LvsO07pk3+N9JOFQACr8ibLWOE6clnLAxtpydIlRSOgom6NB/6wnQJnn/FHOTX5nylHfgOqUW0lXYgBpapMfJ4ETu/LPW9QYh+WT0/cBrfJKbKmn0Whyz5JgSlTye7ooOjKFZR8/n7vCIQI8FEHJJBTD/l4f6iqkS5HPQKyzhC7EkLeNGor6wCLm4oqAfU1rfNDc6BvdB/qst2lPE6L22T9tmEj0Ldcw1ERggMoYWLgakPAYcNaigKw3R7xC/GRxkTgEfHwG14ViikBlUQCad4TopTrfrrOMNajvfrzWIqRN5x38tILJMRKZMHhmTX5DAfNkj1rQe+D8Drf6vBHj5FPsStTEgKil1+mHYn9+y2TPh2yjKOagYrd7fp9tY4AoqrLep9xm+PSf06+a2fJ4CgNAaG5Zz3cSY3RxhdNKf4KIqAOSVmyIaBfXIMIQO9jPB9P0U0jHthQ0uaXjIC8Vj/8EgX98VuxDv0RtgH1acKSDgX98hpBQIZMYyfien121JT1CFJX2lRaAkLb/XdtI8M2/67RZ9zJYmFp4dBv1whULwI8uaDy6Aya9Ena2bBe/Ffp21pyAmIIGh58m2LkXBcyxUpsiWkSKv240DWoQgRg6ZwwSd64v3HvnxpfeaUsWlgWBMRINNJh7MeLG7AcW4c/NQmVxfDQlagWBGAtkQwY9O2EtO6f/puusmlW2RBQ4J4j1HRwZFvQMK6HG8g2MJAmobIZJroilYyAaQinyWf+xLCt73+t6cyyakrZEJCHynPPUagt9CrWqNc1WKJdk1BZjRVdmQpEAJKP22SJ213H+EtWdZRbKi8CYnSwNg24+1fZkq6CiTiCqOukEdAI5IMAJrcLlcYDkYS8oeH+8iMfblP5ERDX6t52Crd2PAPPbJ+B4qwzH/D1MxqBWkaAfRtgx+sxWzofHf2H0tr6DNYP5UlAqPG0X+0nK9n5exDQX/gN6h6sEfqeRkAj8A4CvJMMW5+VcINz4yjfFjh8Kt9UtgTEkIX+uJd8duLXQUN8BZEZyxrI8u1iXbNaQoDJB2GUXzSFe21LbOM+lXHcC4FjWRMQNzj44DaqC4/8NSShz0ISgi9RnTQCGoF0CHiSjyVeFJLe19g+bh89Uv4byWVPQAy09fgq8sfrcWTD+BIkofIxYkg3CvQ1jUAJEOjV+TwD3wRXNXWMi9LTK0tQi9xfWREExM0KPgzLTeH/VZ0pvsSKab1Fn3tn6yeqEwHe7YLt3GM4ynRtY7vcR08/XTENrRgCYkQb73mDwu6R2yEFXVtveZJQ+cuYFTMUdEUrEQG286m3zOWO61zeZG4A+SCkUQWliiIgxnX8/QepsX7jQ9iivwxOtPfjkiahChpwuqrqEGBH8s1+87eJFF3VunxTqtwVzulaXnEExI0Qv3Wpwb/hOfg0uRLbjVs0CaXrWn2tmhEA+aSafMZ/udK9YfQf+PhkZaaKJCAP6t9J8h8e8yK8Kn643jTWaFcelTkAda1zQ4DFfT7Vjt2u/+M61l/U31O+RobZtKxyCYhbB2XbtiPj1iIY+oX4GjyI9bBejmXT6zpPRSLAGy+IXNqB4xWf6LKN7zfc/2ZFtqN/pSubgNCSM0BCLcs3haUjPoTO+TlISBssVvyw1A1IgwCsm8UueIu4vKtxw30nPbA2TZbKu1TxBNQHecP96yjlGJ/HduQ38YUIa1Go8gajrnF6BFi9gI/r8z7DWBo4MuZPE35TPaO7agiIu65l+Vpy6w7+oMmyPgbl9G7tXTH9gNZXKwcBDp3TZJm3wpnYxY0T16+rJBufbFCuKgLiBjfdfoSMrsaH4YTpfXDC9IImoWyGgc5TbgiwjAOj2wjOdf1V0hV/FrhnfYJ+VD2STx/eVUdA3DDz0Reo+d51G+H/dhFE19tguJisvq4rtymj66MMASy54JCvLSjE1Q3N6/+z9f7q0Pekw6cqCaivoXX3IvCqFb+hxWfehBP1h7Q0lG4I6GvlhIAliJdcj8DS/4JQIrCCflXdn86qJiAeWI13byfhBn9e7xOXIvTPi9peqJymm65LPwQkJPVuWDZ/2yT3Ut/d63fQQ69XPUBVT0Dcg9a9r1Ld79e/YkixuMUy/xMdzdHNq/vTUvVDt6oaKJt9ZludQcsMQ/xL6N7KNi7MpWdqgoD6AKm/b13KTq7/C/iavrLJMrbrJVkuQ0XnLQQCPiHirT7jt8J156xJbnzWf1f16nvS4VdTBMQANP5B0q7IhuUmiYtb/ebtGACsoNbSULrRoa8VDIFez4XbsEnymQQ519ffvyH63j/W3jCsOQLiETXrUUmQhnZI0/xUk098CoNgl5aGCjbXdMH9EOC1Pz56zoiA+Vu/EJckp0XvaL13U81iVJME1NfbV4VPokBwy13YIXs3pCHerudjHLX3GarZ4V/0hktshLS1+o0r4wnz+tC967Y1/2BH0StRTi+saQLijjDusCl47/r93abvBhxovRoDZK3Qh1rLaYxWQ12k3xTdLX7jlqAlFkanRB9sefCtamjXsNtQ8wTUh+CYu99EQMSmBwJE74ZS8LtQVGu7oWEPL10AjlLY+LCtbDTpcrsj+oXA3ev217rU039UaALqh4a4bzUF79sQ9bXG/y+Cul3c7DPuwbLMwbpdL8s0l+SEgKdkxnlE6Be/ZAp5Yec48XTzE205lVELmTUBpell3y92UNuu+resAF3T4LeWtgTMt+Dmw0mTVV/SCJyIgIQ3hsiIoPX/QkHfvEMUuiUEp2Fjfwyr/DJIdry8vNXUNAE1NTZlHBKnvfQKBe/cQHW09nGS1hkwFPsau381YFed8SF9o5YRYEvmSLNl3ldnGovs5El/6Xfeap9yL6K5lFFa9fyqIWsz2LwY8uEcM9Q0Ac05fc6QcInfE73x9f+hvQcSP27yG+8d4Te+jeXZLn2kY0joaiWDRICEBI5QrGjxGVfUBdyPRHaE3mhY/iiVm5P4VS+soj279wzZL9nMiyELyTKDlWW+qsw2/6z5WbXrPee9hw4fOUzmiJH71n+o5Z+nBSbcCudQn0068otxR46EgghLfp1qCQHWCyJSrwuXGc+alvGvZLiPr6rbSBf8WtLoMgTiyNEjxOM4m5TtvMimrKHyFGXiSLa+KsPEnTJq5Kisa3brbbfSsmXLqLGxkbo+ci61BhKjk9L5m6gtbwAZjcDarKYlyqyBrOyMEjtbKTiFX+MT9N0O2bQi6LxMod+XZ9TwcDhMDz30EF3/qeuzRp0/tiNHjMw6/3Ay1jQBMXBLL11Kj6x4JC8M5dKlJBGI223YeZIj6XNR27025rjT3B6+LQq2eVVcP5QzAryrhaVWDPqdZ2HL81+GCDxstI8m8dhjOZdVzg8sWbqEVjy8omhVLMokKVcJiFHmdXG2oulgvSKXEjnNsyckk/LKhHRvhEQ0L+VCIhJ6eTYYbuV8D98RiVjrBCPCdiiY/4AjFL+0guJPVngdiQfLueb51+2555+jRecuyr+AHJ+seQJivC6+5H301BNP5ghd+uzyc3UUPTSVEK/sMlvSlyOOe3HSlpqI0sNVlldZvwNpB/G36EDQMm8hKW83ZWqzcfoWsv6hLKuspFIXve9ievLxJ5SUlW0hmoCA1IFDB2jcmHHZYpZVPnn55bQl8CBNlrNPt6W8CcrqKxKuOwrLM9YTFQX3rCqqM/VHgLfS47Djgd2XuAX+eX65hoJ0dvtIEk8Ud2KWolv2H9xPY0ePLeqrizIRynkJ1of2ymdX0gWLL1AO/qbr5tMMdw05yTnjE9L5oO3Sx5JSnp1yZaPWFSmHO58CJQIYOAFBO6HfWYGNhDtDPrlqy746mrHytXzKq8hnnln5DC1+7+Ki110TUD/I77v/PrrqyqsK0gmbr59PUw6NI6OljRIpd7506ApIRlckHHculmoGWzeiM4rSHwVpYAUVyrod7GARllnthhBPBUzxe59Jz1pNo/Zv2RqhGU+tqaDWDL+q9953L1354SuHX1AeJRRlwFeCBNSHnSql9GB9cfdFE2hpaAoFg+3kCmMhFNZXg4w+YrtyUvwdsagofTNYPavpXp9exzIoGcROFtbBdwpDPBZ05Z7VTogWLn+1mpqbdVuKrXQ+sWJFGeSVREAMUCQSob/75jfoxz/6rxPxUv63vOQc2l7XSVMb68iOJy5Mkbwq4dD7QEgnJV0Z6n1hUfpJeeNKXCBAk9AluyzpIKTxa9AtP9DgMx7oSAR2W0GXGv/3jRLXsHSvv+krX6bv/cu/Un19fekqgTcXZWBXGgH19cjefXvp9ttvp7/9m78tSifZ184ns6uFqH4XdaesheiciyEVXQgbo9lQYLN2EEfz9VItXWfwsooHMw4NE5ZVMYS32Y6ze6tjrny8wS+e95G5kxqj1Pb6CJr6Snmdz0rXnkJd+4d//Af6zKc/QxPGTyjUK3IqVxNQlnAxGW3evJn27dtHyWQyy6fyz3b+T2+mKSdb5NhRSiaMqTgDe4brysXQFZ0HyWgOvub1UGhTreqOmHAYXdblgJJdeLXc7ZB8FZFEV0Zter7RZ77RYVqpJujcDu2YQE9+4m/y74wKftLv99P48eNpxowZZUM6/eHUBFQpg+vas8nu2k92oJUcw5lokTizO+m8J2SZiyO2ewaWGsGEK9l5EctIcOpYHOm2GPB5TEMSXCsEiIaZRwZAOLj4Agn5DGx1Xkw58nUOthSyfZQcs4v8P28vRtX0O4aJgCagYQJYisdfXiJonnU6BcYeJtoyg2g8/i3Foi7bORsTc37CkXNBRhOhaK3Hv1mPxLZHzEyVcFaNl1Iei3LEEiiNI1h2dsBV7iaYLryJ9r3sN401JJ1tJJqJwhuozZ1MU1a8WYqu0O8cJgKagIYJYNk8ftkSum/7o3TlNJjRN3ZBXnDGJmw5KWzLaXAjMtOVckY45UzDsYLROB0yIubIZlzDDrQ32fkf7OiIx4P3d1/qHSD5jBOvmBPKYsnM09WwIMMkg00/F6QSgaL4KPRcR3HQc3e9ZW6NO+4m26HNrQFjp7Ros9E+mfYk19Lo5gXkj20lWlG7CuR+3VPx/5nPwMq50ZWqhM65oWX0wO6lcDUCY6NY5E2aGFhEIf86Ipxwlgl/KEViTEfKboIrifFY0kwAEYzHkZEx2H0bByvgVkge0ITLJlxvhNQRghSF3Wry4W8YCJOAGAUSeWfoeATG/wOJ4T9ZLZXy8Xa3YcSQP4K8XSC7TpTTgXIOQZo5ACXxAWTcG07JfZByDjWZZrdh2HvJB499R1tom4zT9BVrybloMZlPrSwjZHVVVCKgCUglmpVW1p9NJtpxMtF0UMr2NygxsYVEzE8+JwD7JNCDP0HRpKAkNE8+EJPhWAFYDftMQ1pSCj6n2ZNYmpEEywGyU9JOuoYbsRNGe0uQ5R2TDMfniUKxum6qjyWI7t9FtGQJrkFPM/Ulop/1l5MqDURd3+Eg8P8BuYMHiIjPVmwAAAAASUVORK5CYII=;" vertex="1" parent="41">
                    <mxGeometry x="50" y="60" width="70" height="70" as="geometry"/>
                </mxCell>
                <mxCell id="51" value="" style="shape=flexArrow;endArrow=classic;html=1;" edge="1" parent="1">
                    <mxGeometry width="50" height="50" relative="1" as="geometry">
                        <mxPoint x="280" y="435.00000000000006" as="sourcePoint"/>
                        <mxPoint x="180" y="435.00000000000006" as="targetPoint"/>
                    </mxGeometry>
                </mxCell>
                <mxCell id="52" value="" style="shape=flexArrow;endArrow=classic;html=1;" edge="1" parent="1">
                    <mxGeometry width="50" height="50" relative="1" as="geometry">
                        <mxPoint x="80" y="350" as="sourcePoint"/>
                        <mxPoint x="80" y="230" as="targetPoint"/>
                    </mxGeometry>
                </mxCell>
                <mxCell id="54" value="" style="shape=flexArrow;endArrow=classic;html=1;" edge="1" parent="1">
                    <mxGeometry width="50" height="50" relative="1" as="geometry">
                        <mxPoint x="120" y="230" as="sourcePoint"/>
                        <mxPoint x="120" y="350" as="targetPoint"/>
                    </mxGeometry>
                </mxCell>
                <mxCell id="55" value="" style="shape=flexArrow;endArrow=classic;html=1;" edge="1" parent="1">
                    <mxGeometry width="50" height="50" relative="1" as="geometry">
                        <mxPoint x="170" y="380" as="sourcePoint"/>
                        <mxPoint x="510" y="210" as="targetPoint"/>
                    </mxGeometry>
                </mxCell>
            </root>
        </mxGraphModel>
    </diagram>
</mxfile>